<svg width="50" height="50" viewBox="0 0 50 50" fill="none" xmlns="http://www.w3.org/2000/svg">
<path d="M24.9478 4.92212C21.0107 4.92212 17.162 6.0896 13.8884 8.27693C10.6149 10.4643 8.06344 13.5732 6.55679 17.2106C5.05013 20.848 4.65592 24.8505 5.42401 28.7119C6.19209 32.5733 8.08798 36.1203 10.8719 38.9042C13.6559 41.6882 17.2028 43.584 21.0642 44.3521C24.9257 45.1202 28.9282 44.726 32.5656 43.2193C36.2029 41.7127 39.3119 39.1613 41.4992 35.8877C43.6865 32.6141 44.854 28.7655 44.854 24.8284C44.8484 19.5506 42.7494 14.4906 39.0175 10.7587C35.2855 7.02674 30.2255 4.92769 24.9478 4.92212ZM24.9478 41.6721C21.6164 41.6721 18.3598 40.6843 15.5899 38.8334C12.8199 36.9826 10.661 34.352 9.38617 31.2742C8.1113 28.1964 7.77774 24.8097 8.42766 21.5423C9.07758 18.2749 10.6818 15.2737 13.0374 12.918C15.3931 10.5624 18.3943 8.95819 21.6617 8.30827C24.9291 7.65835 28.3158 7.99191 31.3936 9.26677C34.4714 10.5416 37.102 12.7005 38.9528 15.4705C40.8036 18.2404 41.7915 21.497 41.7915 24.8284C41.7864 29.2941 40.0102 33.5754 36.8525 36.7331C33.6948 39.8908 29.4134 41.6671 24.9478 41.6721ZM34.1353 24.8284C34.1353 25.2345 33.9739 25.624 33.6868 25.9111C33.3996 26.1983 33.0101 26.3596 32.604 26.3596H26.479V32.4846C26.479 32.8907 26.3177 33.2802 26.0305 33.5674C25.7434 33.8545 25.3539 34.0159 24.9478 34.0159C24.5416 34.0159 24.1522 33.8545 23.865 33.5674C23.5778 33.2802 23.4165 32.8907 23.4165 32.4846V26.3596H17.2915C16.8854 26.3596 16.4959 26.1983 16.2088 25.9111C15.9216 25.624 15.7603 25.2345 15.7603 24.8284C15.7603 24.4223 15.9216 24.0328 16.2088 23.7456C16.4959 23.4584 16.8854 23.2971 17.2915 23.2971H23.4165V17.1721C23.4165 16.766 23.5778 16.3765 23.865 16.0894C24.1522 15.8022 24.5416 15.6409 24.9478 15.6409C25.3539 15.6409 25.7434 15.8022 26.0305 16.0894C26.3177 16.3765 26.479 16.766 26.479 17.1721V23.2971H32.604C33.0101 23.2971 33.3996 23.4584 33.6868 23.7456C33.9739 24.0328 34.1353 24.4223 34.1353 24.8284Z" fill="white"/>
</svg>
