<!-- icon666.com - MILLIONS vector ICONS FREE --><svg viewBox="0 0 480 480" xmlns="http://www.w3.org/2000/svg"><path d="m480 72c0 39.765625-32.234375 72-72 72s-72-32.234375-72-72 32.234375-72 72-72 72 32.234375 72 72zm0 0" fill="#bf4653" style="fill: rgb(143, 14, 160);"></path><path d="m272 176h176c17.671875 0 32 14.328125 32 32s-14.328125 32-32 32h-416c-17.671875 0-32-14.328125-32-32s14.328125-32 32-32h176" fill="#bc8f6f" style="fill: rgb(198, 146, 108);"></path><path d="m448 200h-416c-13.425781 0-24.871094 8.28125-29.625 20 4.753906 11.71875 16.199219 20 29.625 20h416c13.425781 0 24.871094-8.28125 29.625-20-4.753906-11.71875-16.199219-20-29.625-20zm0 0" fill="#cb9e78" style="fill: rgb(220, 163, 116);"></path><path d="m240 0c-17.671875 0-32 14.328125-32 32v160c0 17.671875 14.328125 32 32 32s32-14.328125 32-32v-160c0-17.671875-14.328125-32-32-32zm0 0" fill="#52575f" style="fill: rgb(88, 93, 101);"></path><path d="m228 2.375c-11.71875 4.753906-20 16.199219-20 29.625v160c0 13.425781 8.28125 24.871094 20 29.625 11.71875-4.753906 20-16.199219 20-29.625v-160c0-13.425781-8.28125-24.871094-20-29.625zm0 0" fill="#666d77"></path><path d="m448 240v208c0 17.671875-14.328125 32-32 32h-352c-17.671875 0-32-14.328125-32-32v-208" fill="#bf4653" style="fill: rgb(143, 14, 160);"></path><path d="m64 480h350.871094c.664062-2.566406 1.128906-5.222656 1.128906-8v-208h-384v184c0 17.671875 14.328125 32 32 32zm0 0" fill="#dc6068" style="fill: rgb(192, 71, 194);"></path><g fill="#fff"><path d="m184 432c-13.257812 0-24-10.742188-24-24v-96c0-13.257812 10.742188-24 24-24s24 10.742188 24 24v96c0 13.257812-10.742188 24-24 24zm0 0" fill="#fff" style="fill: rgb(46, 41, 41);"></path><path d="m104 432c-13.257812 0-24-10.742188-24-24v-96c0-13.257812 10.742188-24 24-24s24 10.742188 24 24v96c0 13.257812-10.742188 24-24 24zm0 0" fill="#fff" style="fill: rgb(46, 41, 41);"></path><path d="m296 432c-13.257812 0-24-10.742188-24-24v-96c0-13.257812 10.742188-24 24-24s24 10.742188 24 24v96c0 13.257812-10.742188 24-24 24zm0 0" fill="#fff" style="fill: rgb(46, 41, 41);"></path><path d="m376 432c-13.257812 0-24-10.742188-24-24v-96c0-13.257812 10.742188-24 24-24s24 10.742188 24 24v96c0 13.257812-10.742188 24-24 24zm0 0" fill="#fff" style="fill: rgb(46, 41, 41);"></path></g><path d="m360 64h96v16h-96zm0 0" fill="#eebc5a" style="fill: rgb(215, 29, 29);"></path></svg>