<svg width="173" height="174" viewBox="0 0 173 174" fill="none" xmlns="http://www.w3.org/2000/svg">
<path d="M79.2353 107.336C86.4811 102.485 91.9821 95.4164 94.925 87.177C97.8678 78.9376 98.0962 69.9645 95.5765 61.5844C93.0567 53.2044 87.9225 45.8623 80.9331 40.6441C73.9437 35.4258 65.4702 32.6084 56.7656 32.6084C48.061 32.6084 39.5875 35.4258 32.5981 40.6441C25.6087 45.8623 20.4745 53.2044 17.9548 61.5844C15.435 69.9645 15.6634 78.9376 18.6063 87.177C21.5491 95.4164 27.0501 102.485 34.2959 107.336C21.1891 112.195 9.9955 121.186 2.38549 132.967C1.98554 133.565 1.70773 134.237 1.56821 134.944C1.4287 135.651 1.43026 136.378 1.57281 137.084C1.71535 137.791 1.99605 138.461 2.39857 139.057C2.80109 139.654 3.3174 140.163 3.91751 140.557C4.51761 140.951 5.18953 141.22 5.8942 141.351C6.59888 141.481 7.32226 141.469 8.02229 141.315C8.72232 141.162 9.38505 140.87 9.97194 140.457C10.5588 140.043 11.0582 139.517 11.441 138.908C16.3498 131.314 23.0668 125.074 30.9821 120.754C38.8974 116.435 47.7602 114.172 56.7656 114.172C65.771 114.172 74.6338 116.435 82.5491 120.754C90.4644 125.074 97.1815 131.314 102.09 138.908C102.883 140.093 104.108 140.917 105.5 141.201C106.892 141.485 108.339 141.207 109.529 140.427C110.719 139.646 111.555 138.426 111.858 137.03C112.16 135.634 111.905 134.175 111.146 132.967C103.536 121.186 92.3422 112.195 79.2353 107.336ZM27.0312 73.4062C27.0312 67.4913 28.7751 61.7092 32.0424 56.7912C35.3096 51.8731 39.9535 48.04 45.3868 45.7764C50.82 43.5129 56.7986 42.9206 62.5665 44.0746C68.3344 45.2285 73.6326 48.0768 77.791 52.2593C81.9494 56.4417 84.7813 61.7705 85.9286 67.5718C87.076 73.373 86.4871 79.3862 84.2366 84.8508C81.9861 90.3155 78.1749 94.9862 73.2851 98.2723C68.3954 101.558 62.6465 103.312 56.7656 103.312C48.8823 103.303 41.3244 100.15 35.7501 94.5432C30.1758 88.9366 27.0402 81.3351 27.0312 73.4062ZM169.04 140.491C167.839 141.279 166.376 141.555 164.973 141.258C163.571 140.961 162.342 140.115 161.559 138.908C156.656 131.31 149.94 125.067 142.023 120.749C134.106 116.431 125.24 114.175 116.234 114.187C114.801 114.187 113.425 113.615 112.412 112.595C111.398 111.575 110.828 110.192 110.828 108.75C110.828 107.308 111.398 105.925 112.412 104.905C113.425 103.885 114.801 103.312 116.234 103.312C120.613 103.308 124.937 102.331 128.897 100.452C132.857 98.572 136.355 95.8358 139.142 92.4386C141.929 89.0414 143.935 85.0671 145.018 80.7997C146.1 76.5322 146.232 72.0769 145.404 67.7522C144.577 63.4275 142.809 59.34 140.229 55.7819C137.648 52.2237 134.318 49.2828 130.477 47.1691C126.635 45.0555 122.377 43.8213 118.006 43.5548C113.635 43.2882 109.259 43.996 105.192 45.6274C104.529 45.9157 103.815 46.0674 103.093 46.0736C102.37 46.0797 101.654 45.9401 100.986 45.6631C100.318 45.3861 99.712 44.9772 99.2038 44.4607C98.6957 43.9441 98.2956 43.3304 98.0273 42.6557C97.759 41.981 97.6278 41.2591 97.6416 40.5326C97.6554 39.806 97.8138 39.0897 98.1075 38.4258C98.4012 37.7619 98.8243 37.1639 99.3517 36.6672C99.879 36.1705 100.5 35.7852 101.178 35.534C110.487 31.8002 120.84 31.6658 130.242 35.1568C139.643 38.6479 147.426 45.517 152.089 54.4389C156.752 63.3609 157.964 73.7036 155.493 83.4718C153.021 93.24 147.04 101.741 138.704 107.336C151.811 112.195 163.004 121.186 170.614 132.967C171.398 134.175 171.672 135.646 171.376 137.057C171.081 138.468 170.241 139.703 169.04 140.491Z" fill="black"/>
</svg>
