<svg xmlns="http://www.w3.org/2000/svg" width="512" height="512" viewBox="0 0 512 512" version="1.1"><path d="M 236.500 162.608 C 197.759 169.525, 165.244 196.634, 151.871 233.167 C 148.569 242.186, 148.463 247.005, 151.464 251.586 C 155.683 258.024, 165.686 260.034, 172.076 255.727 C 175.772 253.237, 176.367 252.249, 181.245 240.495 C 191.310 216.245, 211.626 199.129, 237.791 192.855 C 245.031 191.119, 248.440 190.860, 258 191.324 C 279.115 192.347, 296.042 199.001, 309.845 211.705 L 315.500 216.910 310.398 216.955 C 294.378 217.096, 289.190 237.838, 303.401 244.927 C 307.779 247.111, 346.855 256, 352.076 256 C 356.348 256, 361.633 253.324, 364.042 249.941 C 366.230 246.868, 376 205.307, 376 199.071 C 376 187.675, 362.008 180.163, 353.087 186.769 C 349.151 189.683, 346.173 194.662, 345.439 199.556 L 344.778 203.965 337.639 196.305 C 321.536 179.025, 299.674 166.861, 276.989 162.557 C 266.852 160.635, 247.417 160.659, 236.500 162.608 M 339.898 288.281 C 338.029 289.535, 335.755 292.123, 334.843 294.031 C 333.932 295.939, 330.897 302.298, 328.097 308.163 C 314.777 336.068, 286.975 353.037, 254.662 352.985 C 235.287 352.954, 217.346 345.986, 201.250 332.240 C 198.362 329.775, 196 327.474, 195.999 327.129 C 195.999 326.783, 198.137 326.634, 200.749 326.798 C 207.203 327.204, 211.849 324.602, 214.807 318.926 C 218.549 311.746, 215.970 303.104, 209.012 299.506 C 204.198 297.017, 160.899 287.805, 157.229 288.489 C 152.995 289.278, 147.395 294.225, 146.123 298.300 C 145.574 300.060, 143.022 311.066, 140.452 322.759 C 135.255 346.408, 135.231 348.915, 140.141 354.507 C 148.769 364.335, 163.113 359.407, 165.972 345.634 L 167.111 340.148 176.306 349.430 C 196.148 369.461, 219.732 380.456, 248.065 382.884 C 291.781 386.629, 334.119 363.107, 354.572 323.711 C 364.910 303.796, 365.456 295.769, 356.959 288.619 C 352.765 285.090, 344.885 284.933, 339.898 288.281" stroke="none" fill="#984084" fill-rule="evenodd"/><path d="M 152.366 41.919 C 147.922 44.628, 146.649 46.539, 123.498 85.250 L 102.715 120 76.608 120.017 C 47.263 120.037, 41.117 120.856, 30.213 126.203 C 21.705 130.375, 10.641 141.164, 6.241 149.581 C -0.333 162.159, 0 154.342, 0 296 C 0 438.291, -0.377 429.805, 6.534 442.908 C 11.729 452.756, 20.471 461.240, 30.731 466.389 C 42.474 472.283, 29.824 471.969, 256.540 471.985 C 487.085 472.002, 469.521 472.514, 483.098 465.379 C 495.972 458.614, 504.987 447.572, 509.994 432.434 L 512.950 423.500 512.975 294.191 C 512.989 220.536, 512.623 165.115, 512.125 165.423 C 511.644 165.720, 510.978 164.284, 510.646 162.232 C 509.404 154.548, 503.311 144.080, 495.721 136.591 C 487.304 128.286, 481.124 124.717, 470.415 121.978 C 463.657 120.250, 459.309 120, 435.995 120 L 409.310 120 386.401 81.867 C 367.127 49.783, 362.940 43.437, 360.012 41.867 C 356.680 40.080, 352.233 40, 256.016 40.004 C 158.822 40.007, 155.396 40.071, 152.366 41.919 M 236.500 162.608 C 197.759 169.525, 165.244 196.634, 151.871 233.167 C 148.569 242.186, 148.463 247.005, 151.464 251.586 C 155.683 258.024, 165.686 260.034, 172.076 255.727 C 175.772 253.237, 176.367 252.249, 181.245 240.495 C 191.310 216.245, 211.626 199.129, 237.791 192.855 C 245.031 191.119, 248.440 190.860, 258 191.324 C 279.115 192.347, 296.042 199.001, 309.845 211.705 L 315.500 216.910 310.398 216.955 C 294.378 217.096, 289.190 237.838, 303.401 244.927 C 307.779 247.111, 346.855 256, 352.076 256 C 356.348 256, 361.633 253.324, 364.042 249.941 C 366.230 246.868, 376 205.307, 376 199.071 C 376 187.675, 362.008 180.163, 353.087 186.769 C 349.151 189.683, 346.173 194.662, 345.439 199.556 L 344.778 203.965 337.639 196.305 C 321.536 179.025, 299.674 166.861, 276.989 162.557 C 266.852 160.635, 247.417 160.659, 236.500 162.608 M 0.485 296 C 0.485 367.775, 0.604 397.137, 0.750 361.250 C 0.895 325.362, 0.895 266.637, 0.750 230.750 C 0.604 194.862, 0.485 224.225, 0.485 296 M 339.898 288.281 C 338.029 289.535, 335.755 292.123, 334.843 294.031 C 333.932 295.939, 330.897 302.298, 328.097 308.163 C 314.777 336.068, 286.975 353.037, 254.662 352.985 C 235.287 352.954, 217.346 345.986, 201.250 332.240 C 198.362 329.775, 196 327.474, 195.999 327.129 C 195.999 326.783, 198.137 326.634, 200.749 326.798 C 207.203 327.204, 211.849 324.602, 214.807 318.926 C 218.549 311.746, 215.970 303.104, 209.012 299.506 C 204.198 297.017, 160.899 287.805, 157.229 288.489 C 152.995 289.278, 147.395 294.225, 146.123 298.300 C 145.574 300.060, 143.022 311.066, 140.452 322.759 C 135.255 346.408, 135.231 348.915, 140.141 354.507 C 148.769 364.335, 163.113 359.407, 165.972 345.634 L 167.111 340.148 176.306 349.430 C 196.148 369.461, 219.732 380.456, 248.065 382.884 C 291.781 386.629, 334.119 363.107, 354.572 323.711 C 364.910 303.796, 365.456 295.769, 356.959 288.619 C 352.765 285.090, 344.885 284.933, 339.898 288.281" stroke="none" fill="#fbfbfb" fill-rule="evenodd"/></svg>