<svg width="716" height="144" viewBox="0 0 716 144" fill="none" xmlns="http://www.w3.org/2000/svg">
<path d="M16.5938 112.672C16.5938 115.328 16.625 117.656 16.6875 119.656C16.7812 121.625 16.875 123.328 16.9688 124.766C17.0938 126.203 17.2344 127.406 17.3906 128.375C17.5781 129.344 17.7656 130.156 17.9531 130.812V131H6.70312V130.812C6.89062 130.156 7.0625 129.344 7.21875 128.375C7.40625 127.406 7.5625 126.203 7.6875 124.766C7.8125 123.328 7.90625 121.625 7.96875 119.656C8.03125 117.656 8.0625 115.328 8.0625 112.672V82.1562C8.0625 79.5 8.03125 77.1875 7.96875 75.2188C7.90625 73.2188 7.8125 71.5 7.6875 70.0625C7.5625 68.5938 7.40625 67.375 7.21875 66.4062C7.0625 65.4375 6.89062 64.625 6.70312 63.9688V63.7812C9.29688 63.7812 11.9219 63.7812 14.5781 63.7812C17.2344 63.75 19.8125 63.7344 22.3125 63.7344C24.8125 63.7031 27.1875 63.6719 29.4375 63.6406C31.6875 63.5781 33.7188 63.5312 35.5312 63.5C37.3438 63.4375 38.875 63.375 40.125 63.3125C41.375 63.2188 42.2656 63.125 42.7969 63.0312L40.5 69.2656C39.4688 68.9844 38.2656 68.7344 36.8906 68.5156C35.7031 68.3281 34.25 68.1562 32.5312 68C30.8438 67.8125 28.8906 67.7188 26.6719 67.7188C25.9219 67.7188 24.9844 67.75 23.8594 67.8125C22.7344 67.8438 21.625 67.8906 20.5312 67.9531C19.2812 68.0156 17.9688 68.0781 16.5938 68.1406V91.8125C19.8125 91.7812 22.7656 91.6875 25.4531 91.5312C28.1406 91.375 30.4531 91.2188 32.3906 91.0625C34.6406 90.875 36.6719 90.6562 38.4844 90.4062L37.0781 97.2031C34.7344 96.9219 32.3594 96.6562 29.9531 96.4062C27.8906 96.1875 25.6719 96 23.2969 95.8438C20.9219 95.6562 18.6875 95.5625 16.5938 95.5625V112.672ZM78.6562 115.156C77.8125 115.156 76.75 115.156 75.4688 115.156C74.2188 115.156 72.8438 115.156 71.3438 115.156C69.8438 115.156 68.2969 115.156 66.7031 115.156C65.1094 115.156 63.5938 115.172 62.1562 115.203C60.7188 115.203 59.4062 115.219 58.2188 115.25C57.0312 115.25 56.1094 115.25 55.4531 115.25L53.7188 118.906C52.9688 120.406 52.3281 121.719 51.7969 122.844C51.2656 123.938 50.8281 124.906 50.4844 125.75C50.1406 126.594 49.8906 127.328 49.7344 127.953C49.5781 128.547 49.5 129.109 49.5 129.641C49.5 129.984 49.5156 130.25 49.5469 130.438C49.5781 130.594 49.625 130.719 49.6875 130.812V131H41.4375V130.812C41.6562 130.594 42 130.125 42.4688 129.406C42.9375 128.656 43.4688 127.75 44.0625 126.688C44.6875 125.625 45.3438 124.422 46.0312 123.078C46.75 121.734 47.4531 120.344 48.1406 118.906L67.2656 79.4375H70.7812L89.5312 118.906C90.25 120.406 90.9688 121.844 91.6875 123.219C92.4375 124.594 93.125 125.828 93.75 126.922C94.375 127.984 94.9219 128.875 95.3906 129.594C95.8594 130.281 96.1719 130.688 96.3281 130.812V131H84.3281C84.3906 130.75 84.4219 130.531 84.4219 130.344C84.4219 130.125 84.4219 129.891 84.4219 129.641C84.4219 128.953 84.2656 128.125 83.9531 127.156C83.6719 126.188 83.3125 125.203 82.875 124.203C82.4688 123.172 82.0312 122.188 81.5625 121.25C81.125 120.312 80.7656 119.531 80.4844 118.906L78.6562 115.156ZM57.2812 111.5H60.1406C61.4531 111.5 62.8438 111.5 64.3125 111.5C65.8125 111.469 67.3125 111.453 68.8125 111.453C70.3125 111.453 71.7656 111.453 73.1719 111.453C74.5781 111.422 75.8438 111.406 76.9688 111.406L67.2656 90.6875L57.2812 111.5ZM117.797 106.344C116.297 106.344 115.016 106.406 113.953 106.531C112.922 106.625 112.125 106.719 111.562 106.812V111.688C111.562 114.375 111.562 116.625 111.562 118.438C111.594 120.25 111.625 121.766 111.656 122.984C111.719 124.203 111.766 125.188 111.797 125.938C111.828 126.656 111.875 127.281 111.938 127.812C112.75 128.031 113.609 128.172 114.516 128.234C115.453 128.297 116.188 128.328 116.719 128.328C121.031 128.328 124.156 127.391 126.094 125.516C128.062 123.609 129.047 120.672 129.047 116.703C129.047 115.203 128.812 113.812 128.344 112.531C127.875 111.25 127.172 110.156 126.234 109.25C125.297 108.344 124.125 107.641 122.719 107.141C121.312 106.609 119.672 106.344 117.797 106.344ZM111.562 103.156C112.188 103.25 112.75 103.312 113.25 103.344C113.75 103.344 114.266 103.344 114.797 103.344C117.953 103.344 120.453 102.469 122.297 100.719C124.172 98.9688 125.109 96.3594 125.109 92.8906C125.109 91.4844 124.922 90.1875 124.547 89C124.172 87.8125 123.625 86.7969 122.906 85.9531C122.219 85.1094 121.344 84.4531 120.281 83.9844C119.25 83.5156 118.062 83.2812 116.719 83.2812C115.812 83.2812 115.047 83.3281 114.422 83.4219C113.797 83.4844 113.266 83.5469 112.828 83.6094C112.328 83.7344 111.906 83.8438 111.562 83.9375V103.156ZM102.047 80.5156C102.641 80.5469 103.25 80.5625 103.875 80.5625C104.406 80.5938 104.984 80.6094 105.609 80.6094C106.234 80.6094 106.844 80.6094 107.438 80.6094C108.406 80.6094 109.75 80.5469 111.469 80.4219C113.188 80.2969 115.328 80.2344 117.891 80.2344C120.172 80.2344 122.281 80.5156 124.219 81.0781C126.188 81.6094 127.875 82.3906 129.281 83.4219C130.719 84.4531 131.828 85.7188 132.609 87.2188C133.422 88.7188 133.828 90.4219 133.828 92.3281C133.828 93.9531 133.594 95.4062 133.125 96.6875C132.688 97.9375 132.047 99.0469 131.203 100.016C130.359 100.953 129.344 101.75 128.156 102.406C126.969 103.031 125.656 103.531 124.219 103.906C126.312 104.219 128.219 104.734 129.938 105.453C131.656 106.172 133.125 107.078 134.344 108.172C135.562 109.234 136.5 110.5 137.156 111.969C137.812 113.406 138.141 115.016 138.141 116.797C138.141 121.734 136.375 125.438 132.844 127.906C129.312 130.344 124.047 131.562 117.047 131.562C116.297 131.562 115.359 131.531 114.234 131.469C113.141 131.406 111.984 131.344 110.766 131.281C109.578 131.219 108.422 131.156 107.297 131.094C106.203 131.031 105.281 131 104.531 131H102.047V130.812C102.266 130.156 102.453 129.312 102.609 128.281C102.797 127.25 102.938 125.984 103.031 124.484C103.156 122.953 103.25 121.141 103.312 119.047C103.375 116.953 103.406 114.5 103.406 111.688V99.875C103.406 97.0625 103.375 94.6094 103.312 92.5156C103.25 90.4219 103.156 88.6094 103.031 87.0781C102.938 85.5469 102.797 84.2656 102.609 83.2344C102.453 82.2031 102.266 81.3594 102.047 80.7031V80.5156ZM186.375 99.6875C186.375 96.9062 186.359 94.4844 186.328 92.4219C186.297 90.3594 186.234 88.5781 186.141 87.0781C186.047 85.5781 185.938 84.3281 185.812 83.3281C185.688 82.2969 185.531 81.4531 185.344 80.7969V80.6094H192.234V80.7969C192.047 81.4531 191.891 82.2969 191.766 83.3281C191.641 84.3594 191.531 85.6406 191.438 87.1719C191.344 88.6719 191.281 90.4688 191.25 92.5625C191.219 94.625 191.203 97.0625 191.203 99.875V113.328C191.203 116.703 190.672 119.578 189.609 121.953C188.578 124.328 187.141 126.281 185.297 127.812C183.453 129.312 181.25 130.406 178.688 131.094C176.156 131.812 173.375 132.172 170.344 132.172C167.281 132.172 164.438 131.828 161.812 131.141C159.188 130.484 156.906 129.422 154.969 127.953C153.062 126.484 151.547 124.578 150.422 122.234C149.328 119.891 148.781 117.047 148.781 113.703V99.875C148.781 97.0625 148.75 94.625 148.688 92.5625C148.625 90.4688 148.531 88.6719 148.406 87.1719C148.281 85.6406 148.141 84.3594 147.984 83.3281C147.828 82.2969 147.641 81.4531 147.422 80.7969V80.6094H158.25V80.7969C158.031 81.4531 157.844 82.2969 157.688 83.3281C157.531 84.3281 157.391 85.5781 157.266 87.0781C157.172 88.5781 157.094 90.3594 157.031 92.4219C156.969 94.4844 156.938 96.9062 156.938 99.6875V113.703C156.938 116.484 157.359 118.781 158.203 120.594C159.047 122.375 160.156 123.797 161.531 124.859C162.906 125.922 164.469 126.672 166.219 127.109C167.969 127.516 169.766 127.719 171.609 127.719C173.484 127.719 175.297 127.516 177.047 127.109C178.828 126.672 180.406 125.922 181.781 124.859C183.188 123.797 184.297 122.375 185.109 120.594C185.953 118.781 186.375 116.484 186.375 113.703V99.6875ZM213.938 127.344C216.844 127.344 219.516 127.234 221.953 127.016C224.422 126.766 226.578 126.5 228.422 126.219C230.578 125.875 232.531 125.484 234.281 125.047L233.203 131.281C232.766 131.25 232.016 131.203 230.953 131.141C229.922 131.109 228.828 131.078 227.672 131.047C226.516 131.047 225.438 131.031 224.438 131C223.438 131 222.75 131 222.375 131H204.422V130.812C204.641 130.156 204.828 129.312 204.984 128.281C205.172 127.25 205.312 125.984 205.406 124.484C205.531 122.953 205.625 121.141 205.688 119.047C205.75 116.953 205.781 114.5 205.781 111.688V99.875C205.781 97.0625 205.75 94.625 205.688 92.5625C205.625 90.4688 205.531 88.6719 205.406 87.1719C205.312 85.6406 205.172 84.3594 204.984 83.3281C204.828 82.2969 204.641 81.4531 204.422 80.7969V80.6094H215.25V80.7969C215.031 81.4531 214.844 82.2969 214.688 83.3281C214.531 84.3594 214.391 85.6406 214.266 87.1719C214.172 88.6719 214.094 90.4688 214.031 92.5625C213.969 94.625 213.938 97.0625 213.938 99.875V127.344ZM239.719 105.641C239.719 101.953 240.406 98.5312 241.781 95.375C243.188 92.2188 245.094 89.4844 247.5 87.1719C249.906 84.8281 252.75 83 256.031 81.6875C259.312 80.375 262.828 79.7188 266.578 79.7188C270.266 79.7188 273.734 80.3438 276.984 81.5938C280.266 82.8125 283.109 84.5625 285.516 86.8438C287.953 89.125 289.875 91.8906 291.281 95.1406C292.688 98.3906 293.391 102.031 293.391 106.062C293.391 109.406 292.797 112.641 291.609 115.766C290.422 118.859 288.688 121.609 286.406 124.016C284.125 126.391 281.312 128.297 277.969 129.734C274.625 131.141 270.797 131.844 266.484 131.844C262.828 131.844 259.375 131.234 256.125 130.016C252.875 128.797 250.031 127.062 247.594 124.812C245.156 122.531 243.234 119.781 241.828 116.562C240.422 113.312 239.719 109.672 239.719 105.641ZM267.656 128.516C270.031 128.516 272.219 128.047 274.219 127.109C276.219 126.172 277.938 124.828 279.375 123.078C280.844 121.328 281.969 119.203 282.75 116.703C283.562 114.172 283.969 111.328 283.969 108.172C283.969 104.578 283.578 101.25 282.797 98.1875C282.047 95.125 280.891 92.4844 279.328 90.2656C277.797 88.0156 275.875 86.2656 273.562 85.0156C271.25 83.7344 268.547 83.0938 265.453 83.0938C263.078 83.0938 260.891 83.5469 258.891 84.4531C256.891 85.3594 255.156 86.6719 253.688 88.3906C252.25 90.1094 251.125 92.2188 250.312 94.7188C249.5 97.2188 249.094 100.062 249.094 103.25C249.094 106.812 249.484 110.141 250.266 113.234C251.078 116.297 252.25 118.969 253.781 121.25C255.344 123.5 257.281 125.281 259.594 126.594C261.906 127.875 264.594 128.516 267.656 128.516ZM341.531 99.6875C341.531 96.9062 341.516 94.4844 341.484 92.4219C341.453 90.3594 341.391 88.5781 341.297 87.0781C341.203 85.5781 341.094 84.3281 340.969 83.3281C340.844 82.2969 340.688 81.4531 340.5 80.7969V80.6094H347.391V80.7969C347.203 81.4531 347.047 82.2969 346.922 83.3281C346.797 84.3594 346.688 85.6406 346.594 87.1719C346.5 88.6719 346.438 90.4688 346.406 92.5625C346.375 94.625 346.359 97.0625 346.359 99.875V113.328C346.359 116.703 345.828 119.578 344.766 121.953C343.734 124.328 342.297 126.281 340.453 127.812C338.609 129.312 336.406 130.406 333.844 131.094C331.312 131.812 328.531 132.172 325.5 132.172C322.438 132.172 319.594 131.828 316.969 131.141C314.344 130.484 312.062 129.422 310.125 127.953C308.219 126.484 306.703 124.578 305.578 122.234C304.484 119.891 303.938 117.047 303.938 113.703V99.875C303.938 97.0625 303.906 94.625 303.844 92.5625C303.781 90.4688 303.688 88.6719 303.562 87.1719C303.438 85.6406 303.297 84.3594 303.141 83.3281C302.984 82.2969 302.797 81.4531 302.578 80.7969V80.6094H313.406V80.7969C313.188 81.4531 313 82.2969 312.844 83.3281C312.688 84.3281 312.547 85.5781 312.422 87.0781C312.328 88.5781 312.25 90.3594 312.188 92.4219C312.125 94.4844 312.094 96.9062 312.094 99.6875V113.703C312.094 116.484 312.516 118.781 313.359 120.594C314.203 122.375 315.312 123.797 316.688 124.859C318.062 125.922 319.625 126.672 321.375 127.109C323.125 127.516 324.922 127.719 326.766 127.719C328.641 127.719 330.453 127.516 332.203 127.109C333.984 126.672 335.562 125.922 336.938 124.859C338.344 123.797 339.453 122.375 340.266 120.594C341.109 118.781 341.531 116.484 341.531 113.703V99.6875ZM382.406 90.4062H381.469C381.281 89.875 380.969 89.2031 380.531 88.3906C380.125 87.5781 379.562 86.7812 378.844 86C378.156 85.2188 377.297 84.5625 376.266 84.0312C375.234 83.4688 374 83.1875 372.562 83.1875C371.469 83.1875 370.484 83.375 369.609 83.75C368.766 84.0938 368.047 84.5781 367.453 85.2031C366.859 85.8281 366.406 86.5781 366.094 87.4531C365.781 88.2969 365.625 89.2188 365.625 90.2188C365.625 91.8438 366.109 93.3906 367.078 94.8594C368.078 96.3281 369.312 97.7969 370.781 99.2656C372.25 100.703 373.844 102.156 375.562 103.625C377.281 105.094 378.875 106.625 380.344 108.219C381.812 109.812 383.031 111.5 384 113.281C385 115.062 385.5 116.969 385.5 119C385.5 120.5 385.219 122.047 384.656 123.641C384.125 125.234 383.25 126.672 382.031 127.953C380.812 129.234 379.25 130.281 377.344 131.094C375.438 131.938 373.125 132.359 370.406 132.359C368.906 132.359 367.469 132.234 366.094 131.984C364.75 131.734 363.5 131.422 362.344 131.047C361.219 130.703 360.203 130.328 359.297 129.922C358.422 129.484 357.688 129.078 357.094 128.703L357.938 119.844H358.922C359.234 120.938 359.688 122.031 360.281 123.125C360.906 124.219 361.656 125.219 362.531 126.125C363.438 127 364.484 127.719 365.672 128.281C366.891 128.812 368.281 129.078 369.844 129.078C370.938 129.078 371.969 128.906 372.938 128.562C373.906 128.188 374.734 127.672 375.422 127.016C376.141 126.359 376.703 125.562 377.109 124.625C377.516 123.656 377.719 122.578 377.719 121.391C377.719 119.984 377.438 118.688 376.875 117.5C376.312 116.281 375.562 115.125 374.625 114.031C373.688 112.906 372.625 111.828 371.438 110.797C370.281 109.766 369.078 108.719 367.828 107.656C366.578 106.594 365.359 105.516 364.172 104.422C363.016 103.297 361.969 102.094 361.031 100.812C360.094 99.5312 359.344 98.1719 358.781 96.7344C358.219 95.2656 357.938 93.6562 357.938 91.9062C357.938 90.0625 358.328 88.4062 359.109 86.9375C359.891 85.4688 360.922 84.2344 362.203 83.2344C363.484 82.2031 364.953 81.4219 366.609 80.8906C368.266 80.3281 369.984 80.0469 371.766 80.0469C373.078 80.0469 374.297 80.1406 375.422 80.3281C376.578 80.5156 377.609 80.75 378.516 81.0312C379.453 81.2812 380.266 81.5469 380.953 81.8281C381.641 82.0781 382.203 82.2812 382.641 82.4375L382.406 90.4062ZM434.531 112.672C434.531 115.328 434.562 117.656 434.625 119.656C434.719 121.625 434.812 123.328 434.906 124.766C435.031 126.203 435.172 127.406 435.328 128.375C435.516 129.344 435.703 130.156 435.891 130.812V131H424.641V130.812C424.828 130.156 425 129.344 425.156 128.375C425.344 127.406 425.5 126.203 425.625 124.766C425.75 123.328 425.844 121.625 425.906 119.656C425.969 117.656 426 115.328 426 112.672V82.1562C426 79.5 425.969 77.1875 425.906 75.2188C425.844 73.2188 425.75 71.5 425.625 70.0625C425.5 68.5938 425.344 67.375 425.156 66.4062C425 65.4375 424.828 64.625 424.641 63.9688V63.7812C427.234 63.7812 429.859 63.7812 432.516 63.7812C435.172 63.75 437.75 63.7344 440.25 63.7344C442.75 63.7031 445.125 63.6719 447.375 63.6406C449.625 63.5781 451.656 63.5312 453.469 63.5C455.281 63.4375 456.812 63.375 458.062 63.3125C459.312 63.2188 460.203 63.125 460.734 63.0312L458.438 69.2656C457.406 68.9844 456.203 68.7344 454.828 68.5156C453.641 68.3281 452.188 68.1562 450.469 68C448.781 67.8125 446.828 67.7188 444.609 67.7188C443.859 67.7188 442.922 67.75 441.797 67.8125C440.672 67.8438 439.562 67.8906 438.469 67.9531C437.219 68.0156 435.906 68.0781 434.531 68.1406V91.8125C437.75 91.7812 440.703 91.6875 443.391 91.5312C446.078 91.375 448.391 91.2188 450.328 91.0625C452.578 90.875 454.609 90.6562 456.422 90.4062L455.016 97.2031C452.672 96.9219 450.297 96.6562 447.891 96.4062C445.828 96.1875 443.609 96 441.234 95.8438C438.859 95.6562 436.625 95.5625 434.531 95.5625V112.672ZM470.062 99.875C470.062 97.0625 470.031 94.625 469.969 92.5625C469.906 90.4688 469.812 88.6719 469.688 87.1719C469.594 85.6406 469.453 84.3594 469.266 83.3281C469.109 82.2969 468.922 81.4531 468.703 80.7969V80.6094H479.578V80.7969C479.359 81.4531 479.156 82.2969 478.969 83.3281C478.812 84.3594 478.672 85.6406 478.547 87.1719C478.453 88.6719 478.375 90.4688 478.312 92.5625C478.25 94.625 478.219 97.0625 478.219 99.875V111.688C478.219 114.5 478.25 116.953 478.312 119.047C478.375 121.141 478.453 122.953 478.547 124.484C478.672 125.984 478.812 127.25 478.969 128.281C479.156 129.312 479.359 130.156 479.578 130.812V131H468.703V130.812C468.922 130.156 469.109 129.312 469.266 128.281C469.453 127.25 469.594 125.984 469.688 124.484C469.812 122.953 469.906 121.141 469.969 119.047C470.031 116.953 470.062 114.5 470.062 111.688V99.875ZM537.656 131.656H535.828L498.562 95V111.688C498.562 114.5 498.578 116.953 498.609 119.047C498.641 121.141 498.688 122.953 498.75 124.484C498.844 125.984 498.953 127.25 499.078 128.281C499.234 129.312 499.422 130.156 499.641 130.812V131H492.609V130.812C492.828 130.156 493.016 129.312 493.172 128.281C493.328 127.25 493.453 125.984 493.547 124.484C493.641 122.953 493.703 121.141 493.734 119.047C493.766 116.953 493.781 114.5 493.781 111.688V99.875C493.781 97.0625 493.766 94.625 493.734 92.5625C493.703 90.4688 493.641 88.6719 493.547 87.1719C493.453 85.6406 493.328 84.3594 493.172 83.3281C493.016 82.2969 492.828 81.4531 492.609 80.7969V80.6094H495.516L532.828 117.453V99.875C532.828 97.0625 532.812 94.625 532.781 92.5625C532.75 90.4688 532.688 88.6719 532.594 87.1719C532.531 85.6406 532.438 84.3594 532.312 83.3281C532.188 82.2969 532.016 81.4531 531.797 80.7969V80.6094H538.781V80.7969C538.562 81.4531 538.375 82.2969 538.219 83.3281C538.094 84.3594 537.984 85.6406 537.891 87.1719C537.797 88.6719 537.734 90.4688 537.703 92.5625C537.672 94.625 537.656 97.0625 537.656 99.875V131.656ZM560.812 83.9375C560.781 86.5 560.75 88.9844 560.719 91.3906C560.719 92.4219 560.703 93.4844 560.672 94.5781C560.672 95.6406 560.656 96.7031 560.625 97.7656C560.625 98.8281 560.625 99.8438 560.625 100.812C560.625 101.75 560.625 102.594 560.625 103.344C560.625 104.906 560.625 106.797 560.625 109.016C560.656 111.203 560.688 113.453 560.719 115.766C560.75 118.078 560.797 120.312 560.859 122.469C560.922 124.594 561 126.375 561.094 127.812C561.406 127.875 561.812 127.938 562.312 128C562.812 128.031 563.328 128.078 563.859 128.141C564.422 128.172 564.969 128.203 565.5 128.234C566.031 128.234 566.484 128.234 566.859 128.234C568.578 128.234 570.312 128.125 572.062 127.906C573.844 127.688 575.547 127.281 577.172 126.688C578.828 126.062 580.375 125.219 581.812 124.156C583.25 123.094 584.5 121.734 585.562 120.078C586.656 118.391 587.5 116.375 588.094 114.031C588.719 111.656 589.031 108.859 589.031 105.641C589.031 98.5469 587.328 93.0781 583.922 89.2344C580.547 85.3906 575.5 83.4688 568.781 83.4688C568.125 83.4688 567.422 83.4844 566.672 83.5156C565.953 83.5469 565.234 83.5938 564.516 83.6562C563.797 83.6875 563.109 83.7344 562.453 83.7969C561.828 83.8594 561.281 83.9062 560.812 83.9375ZM551.109 80.5156C551.859 80.5469 552.562 80.5625 553.219 80.5625C553.781 80.5938 554.328 80.6094 554.859 80.6094C555.391 80.6094 555.781 80.6094 556.031 80.6094C556.469 80.6094 557.25 80.5938 558.375 80.5625C559.5 80.5312 560.766 80.5 562.172 80.4688C563.609 80.4062 565.109 80.3594 566.672 80.3281C568.266 80.2656 569.734 80.2344 571.078 80.2344C574.734 80.2344 578.219 80.6562 581.531 81.5C584.844 82.3438 587.75 83.7344 590.25 85.6719C592.781 87.5781 594.781 90.0938 596.25 93.2188C597.719 96.3125 598.453 100.141 598.453 104.703C598.453 109.609 597.609 113.766 595.922 117.172C594.234 120.578 591.953 123.359 589.078 125.516C586.203 127.641 582.859 129.188 579.047 130.156C575.266 131.094 571.266 131.562 567.047 131.562C566.047 131.562 564.797 131.531 563.297 131.469C561.797 131.406 560.266 131.344 558.703 131.281C557.141 131.219 555.656 131.156 554.25 131.094C552.875 131.031 551.828 131 551.109 131V130.812C551.328 130.156 551.516 129.312 551.672 128.281C551.859 127.25 552 125.984 552.094 124.484C552.219 122.953 552.312 121.141 552.375 119.047C552.438 116.953 552.469 114.5 552.469 111.688V99.875C552.469 97.0625 552.438 94.6094 552.375 92.5156C552.312 90.4219 552.219 88.6094 552.094 87.0781C552 85.5469 551.859 84.2656 551.672 83.2344C551.516 82.2031 551.328 81.3594 551.109 80.7031V80.5156ZM631.219 90.4062H630.281C630.094 89.875 629.781 89.2031 629.344 88.3906C628.938 87.5781 628.375 86.7812 627.656 86C626.969 85.2188 626.109 84.5625 625.078 84.0312C624.047 83.4688 622.812 83.1875 621.375 83.1875C620.281 83.1875 619.297 83.375 618.422 83.75C617.578 84.0938 616.859 84.5781 616.266 85.2031C615.672 85.8281 615.219 86.5781 614.906 87.4531C614.594 88.2969 614.438 89.2188 614.438 90.2188C614.438 91.8438 614.922 93.3906 615.891 94.8594C616.891 96.3281 618.125 97.7969 619.594 99.2656C621.062 100.703 622.656 102.156 624.375 103.625C626.094 105.094 627.688 106.625 629.156 108.219C630.625 109.812 631.844 111.5 632.812 113.281C633.812 115.062 634.312 116.969 634.312 119C634.312 120.5 634.031 122.047 633.469 123.641C632.938 125.234 632.062 126.672 630.844 127.953C629.625 129.234 628.062 130.281 626.156 131.094C624.25 131.938 621.938 132.359 619.219 132.359C617.719 132.359 616.281 132.234 614.906 131.984C613.562 131.734 612.312 131.422 611.156 131.047C610.031 130.703 609.016 130.328 608.109 129.922C607.234 129.484 606.5 129.078 605.906 128.703L606.75 119.844H607.734C608.047 120.938 608.5 122.031 609.094 123.125C609.719 124.219 610.469 125.219 611.344 126.125C612.25 127 613.297 127.719 614.484 128.281C615.703 128.812 617.094 129.078 618.656 129.078C619.75 129.078 620.781 128.906 621.75 128.562C622.719 128.188 623.547 127.672 624.234 127.016C624.953 126.359 625.516 125.562 625.922 124.625C626.328 123.656 626.531 122.578 626.531 121.391C626.531 119.984 626.25 118.688 625.688 117.5C625.125 116.281 624.375 115.125 623.438 114.031C622.5 112.906 621.438 111.828 620.25 110.797C619.094 109.766 617.891 108.719 616.641 107.656C615.391 106.594 614.172 105.516 612.984 104.422C611.828 103.297 610.781 102.094 609.844 100.812C608.906 99.5312 608.156 98.1719 607.594 96.7344C607.031 95.2656 606.75 93.6562 606.75 91.9062C606.75 90.0625 607.141 88.4062 607.922 86.9375C608.703 85.4688 609.734 84.2344 611.016 83.2344C612.297 82.2031 613.766 81.4219 615.422 80.8906C617.078 80.3281 618.797 80.0469 620.578 80.0469C621.891 80.0469 623.109 80.1406 624.234 80.3281C625.391 80.5156 626.422 80.75 627.328 81.0312C628.266 81.2812 629.078 81.5469 629.766 81.8281C630.453 82.0781 631.016 82.2812 631.453 82.4375L631.219 90.4062Z" fill="black"/>
<path d="M16.5938 112.672C16.5938 115.328 16.625 117.656 16.6875 119.656C16.7812 121.625 16.875 123.328 16.9688 124.766C17.0938 126.203 17.2344 127.406 17.3906 128.375C17.5781 129.344 17.7656 130.156 17.9531 130.812V131H6.70312V130.812C6.89062 130.156 7.0625 129.344 7.21875 128.375C7.40625 127.406 7.5625 126.203 7.6875 124.766C7.8125 123.328 7.90625 121.625 7.96875 119.656C8.03125 117.656 8.0625 115.328 8.0625 112.672V82.1562C8.0625 79.5 8.03125 77.1875 7.96875 75.2188C7.90625 73.2188 7.8125 71.5 7.6875 70.0625C7.5625 68.5938 7.40625 67.375 7.21875 66.4062C7.0625 65.4375 6.89062 64.625 6.70312 63.9688V63.7812C9.29688 63.7812 11.9219 63.7812 14.5781 63.7812C17.2344 63.75 19.8125 63.7344 22.3125 63.7344C24.8125 63.7031 27.1875 63.6719 29.4375 63.6406C31.6875 63.5781 33.7188 63.5312 35.5312 63.5C37.3438 63.4375 38.875 63.375 40.125 63.3125C41.375 63.2188 42.2656 63.125 42.7969 63.0312L40.5 69.2656C39.4688 68.9844 38.2656 68.7344 36.8906 68.5156C35.7031 68.3281 34.25 68.1562 32.5312 68C30.8438 67.8125 28.8906 67.7188 26.6719 67.7188C25.9219 67.7188 24.9844 67.75 23.8594 67.8125C22.7344 67.8438 21.625 67.8906 20.5312 67.9531C19.2812 68.0156 17.9688 68.0781 16.5938 68.1406V91.8125C19.8125 91.7812 22.7656 91.6875 25.4531 91.5312C28.1406 91.375 30.4531 91.2188 32.3906 91.0625C34.6406 90.875 36.6719 90.6562 38.4844 90.4062L37.0781 97.2031C34.7344 96.9219 32.3594 96.6562 29.9531 96.4062C27.8906 96.1875 25.6719 96 23.2969 95.8438C20.9219 95.6562 18.6875 95.5625 16.5938 95.5625V112.672ZM78.6562 115.156C77.8125 115.156 76.75 115.156 75.4688 115.156C74.2188 115.156 72.8438 115.156 71.3438 115.156C69.8438 115.156 68.2969 115.156 66.7031 115.156C65.1094 115.156 63.5938 115.172 62.1562 115.203C60.7188 115.203 59.4062 115.219 58.2188 115.25C57.0312 115.25 56.1094 115.25 55.4531 115.25L53.7188 118.906C52.9688 120.406 52.3281 121.719 51.7969 122.844C51.2656 123.938 50.8281 124.906 50.4844 125.75C50.1406 126.594 49.8906 127.328 49.7344 127.953C49.5781 128.547 49.5 129.109 49.5 129.641C49.5 129.984 49.5156 130.25 49.5469 130.438C49.5781 130.594 49.625 130.719 49.6875 130.812V131H41.4375V130.812C41.6562 130.594 42 130.125 42.4688 129.406C42.9375 128.656 43.4688 127.75 44.0625 126.688C44.6875 125.625 45.3438 124.422 46.0312 123.078C46.75 121.734 47.4531 120.344 48.1406 118.906L67.2656 79.4375H70.7812L89.5312 118.906C90.25 120.406 90.9688 121.844 91.6875 123.219C92.4375 124.594 93.125 125.828 93.75 126.922C94.375 127.984 94.9219 128.875 95.3906 129.594C95.8594 130.281 96.1719 130.688 96.3281 130.812V131H84.3281C84.3906 130.75 84.4219 130.531 84.4219 130.344C84.4219 130.125 84.4219 129.891 84.4219 129.641C84.4219 128.953 84.2656 128.125 83.9531 127.156C83.6719 126.188 83.3125 125.203 82.875 124.203C82.4688 123.172 82.0312 122.188 81.5625 121.25C81.125 120.312 80.7656 119.531 80.4844 118.906L78.6562 115.156ZM57.2812 111.5H60.1406C61.4531 111.5 62.8438 111.5 64.3125 111.5C65.8125 111.469 67.3125 111.453 68.8125 111.453C70.3125 111.453 71.7656 111.453 73.1719 111.453C74.5781 111.422 75.8438 111.406 76.9688 111.406L67.2656 90.6875L57.2812 111.5ZM117.797 106.344C116.297 106.344 115.016 106.406 113.953 106.531C112.922 106.625 112.125 106.719 111.562 106.812V111.688C111.562 114.375 111.562 116.625 111.562 118.438C111.594 120.25 111.625 121.766 111.656 122.984C111.719 124.203 111.766 125.188 111.797 125.938C111.828 126.656 111.875 127.281 111.938 127.812C112.75 128.031 113.609 128.172 114.516 128.234C115.453 128.297 116.188 128.328 116.719 128.328C121.031 128.328 124.156 127.391 126.094 125.516C128.062 123.609 129.047 120.672 129.047 116.703C129.047 115.203 128.812 113.812 128.344 112.531C127.875 111.25 127.172 110.156 126.234 109.25C125.297 108.344 124.125 107.641 122.719 107.141C121.312 106.609 119.672 106.344 117.797 106.344ZM111.562 103.156C112.188 103.25 112.75 103.312 113.25 103.344C113.75 103.344 114.266 103.344 114.797 103.344C117.953 103.344 120.453 102.469 122.297 100.719C124.172 98.9688 125.109 96.3594 125.109 92.8906C125.109 91.4844 124.922 90.1875 124.547 89C124.172 87.8125 123.625 86.7969 122.906 85.9531C122.219 85.1094 121.344 84.4531 120.281 83.9844C119.25 83.5156 118.062 83.2812 116.719 83.2812C115.812 83.2812 115.047 83.3281 114.422 83.4219C113.797 83.4844 113.266 83.5469 112.828 83.6094C112.328 83.7344 111.906 83.8438 111.562 83.9375V103.156ZM102.047 80.5156C102.641 80.5469 103.25 80.5625 103.875 80.5625C104.406 80.5938 104.984 80.6094 105.609 80.6094C106.234 80.6094 106.844 80.6094 107.438 80.6094C108.406 80.6094 109.75 80.5469 111.469 80.4219C113.188 80.2969 115.328 80.2344 117.891 80.2344C120.172 80.2344 122.281 80.5156 124.219 81.0781C126.188 81.6094 127.875 82.3906 129.281 83.4219C130.719 84.4531 131.828 85.7188 132.609 87.2188C133.422 88.7188 133.828 90.4219 133.828 92.3281C133.828 93.9531 133.594 95.4062 133.125 96.6875C132.688 97.9375 132.047 99.0469 131.203 100.016C130.359 100.953 129.344 101.75 128.156 102.406C126.969 103.031 125.656 103.531 124.219 103.906C126.312 104.219 128.219 104.734 129.938 105.453C131.656 106.172 133.125 107.078 134.344 108.172C135.562 109.234 136.5 110.5 137.156 111.969C137.812 113.406 138.141 115.016 138.141 116.797C138.141 121.734 136.375 125.438 132.844 127.906C129.312 130.344 124.047 131.562 117.047 131.562C116.297 131.562 115.359 131.531 114.234 131.469C113.141 131.406 111.984 131.344 110.766 131.281C109.578 131.219 108.422 131.156 107.297 131.094C106.203 131.031 105.281 131 104.531 131H102.047V130.812C102.266 130.156 102.453 129.312 102.609 128.281C102.797 127.25 102.938 125.984 103.031 124.484C103.156 122.953 103.25 121.141 103.312 119.047C103.375 116.953 103.406 114.5 103.406 111.688V99.875C103.406 97.0625 103.375 94.6094 103.312 92.5156C103.25 90.4219 103.156 88.6094 103.031 87.0781C102.938 85.5469 102.797 84.2656 102.609 83.2344C102.453 82.2031 102.266 81.3594 102.047 80.7031V80.5156ZM186.375 99.6875C186.375 96.9062 186.359 94.4844 186.328 92.4219C186.297 90.3594 186.234 88.5781 186.141 87.0781C186.047 85.5781 185.938 84.3281 185.812 83.3281C185.688 82.2969 185.531 81.4531 185.344 80.7969V80.6094H192.234V80.7969C192.047 81.4531 191.891 82.2969 191.766 83.3281C191.641 84.3594 191.531 85.6406 191.438 87.1719C191.344 88.6719 191.281 90.4688 191.25 92.5625C191.219 94.625 191.203 97.0625 191.203 99.875V113.328C191.203 116.703 190.672 119.578 189.609 121.953C188.578 124.328 187.141 126.281 185.297 127.812C183.453 129.312 181.25 130.406 178.688 131.094C176.156 131.812 173.375 132.172 170.344 132.172C167.281 132.172 164.438 131.828 161.812 131.141C159.188 130.484 156.906 129.422 154.969 127.953C153.062 126.484 151.547 124.578 150.422 122.234C149.328 119.891 148.781 117.047 148.781 113.703V99.875C148.781 97.0625 148.75 94.625 148.688 92.5625C148.625 90.4688 148.531 88.6719 148.406 87.1719C148.281 85.6406 148.141 84.3594 147.984 83.3281C147.828 82.2969 147.641 81.4531 147.422 80.7969V80.6094H158.25V80.7969C158.031 81.4531 157.844 82.2969 157.688 83.3281C157.531 84.3281 157.391 85.5781 157.266 87.0781C157.172 88.5781 157.094 90.3594 157.031 92.4219C156.969 94.4844 156.938 96.9062 156.938 99.6875V113.703C156.938 116.484 157.359 118.781 158.203 120.594C159.047 122.375 160.156 123.797 161.531 124.859C162.906 125.922 164.469 126.672 166.219 127.109C167.969 127.516 169.766 127.719 171.609 127.719C173.484 127.719 175.297 127.516 177.047 127.109C178.828 126.672 180.406 125.922 181.781 124.859C183.188 123.797 184.297 122.375 185.109 120.594C185.953 118.781 186.375 116.484 186.375 113.703V99.6875ZM213.938 127.344C216.844 127.344 219.516 127.234 221.953 127.016C224.422 126.766 226.578 126.5 228.422 126.219C230.578 125.875 232.531 125.484 234.281 125.047L233.203 131.281C232.766 131.25 232.016 131.203 230.953 131.141C229.922 131.109 228.828 131.078 227.672 131.047C226.516 131.047 225.438 131.031 224.438 131C223.438 131 222.75 131 222.375 131H204.422V130.812C204.641 130.156 204.828 129.312 204.984 128.281C205.172 127.25 205.312 125.984 205.406 124.484C205.531 122.953 205.625 121.141 205.688 119.047C205.75 116.953 205.781 114.5 205.781 111.688V99.875C205.781 97.0625 205.75 94.625 205.688 92.5625C205.625 90.4688 205.531 88.6719 205.406 87.1719C205.312 85.6406 205.172 84.3594 204.984 83.3281C204.828 82.2969 204.641 81.4531 204.422 80.7969V80.6094H215.25V80.7969C215.031 81.4531 214.844 82.2969 214.688 83.3281C214.531 84.3594 214.391 85.6406 214.266 87.1719C214.172 88.6719 214.094 90.4688 214.031 92.5625C213.969 94.625 213.938 97.0625 213.938 99.875V127.344ZM239.719 105.641C239.719 101.953 240.406 98.5312 241.781 95.375C243.188 92.2188 245.094 89.4844 247.5 87.1719C249.906 84.8281 252.75 83 256.031 81.6875C259.312 80.375 262.828 79.7188 266.578 79.7188C270.266 79.7188 273.734 80.3438 276.984 81.5938C280.266 82.8125 283.109 84.5625 285.516 86.8438C287.953 89.125 289.875 91.8906 291.281 95.1406C292.688 98.3906 293.391 102.031 293.391 106.062C293.391 109.406 292.797 112.641 291.609 115.766C290.422 118.859 288.688 121.609 286.406 124.016C284.125 126.391 281.312 128.297 277.969 129.734C274.625 131.141 270.797 131.844 266.484 131.844C262.828 131.844 259.375 131.234 256.125 130.016C252.875 128.797 250.031 127.062 247.594 124.812C245.156 122.531 243.234 119.781 241.828 116.562C240.422 113.312 239.719 109.672 239.719 105.641ZM267.656 128.516C270.031 128.516 272.219 128.047 274.219 127.109C276.219 126.172 277.938 124.828 279.375 123.078C280.844 121.328 281.969 119.203 282.75 116.703C283.562 114.172 283.969 111.328 283.969 108.172C283.969 104.578 283.578 101.25 282.797 98.1875C282.047 95.125 280.891 92.4844 279.328 90.2656C277.797 88.0156 275.875 86.2656 273.562 85.0156C271.25 83.7344 268.547 83.0938 265.453 83.0938C263.078 83.0938 260.891 83.5469 258.891 84.4531C256.891 85.3594 255.156 86.6719 253.688 88.3906C252.25 90.1094 251.125 92.2188 250.312 94.7188C249.5 97.2188 249.094 100.062 249.094 103.25C249.094 106.812 249.484 110.141 250.266 113.234C251.078 116.297 252.25 118.969 253.781 121.25C255.344 123.5 257.281 125.281 259.594 126.594C261.906 127.875 264.594 128.516 267.656 128.516ZM341.531 99.6875C341.531 96.9062 341.516 94.4844 341.484 92.4219C341.453 90.3594 341.391 88.5781 341.297 87.0781C341.203 85.5781 341.094 84.3281 340.969 83.3281C340.844 82.2969 340.688 81.4531 340.5 80.7969V80.6094H347.391V80.7969C347.203 81.4531 347.047 82.2969 346.922 83.3281C346.797 84.3594 346.688 85.6406 346.594 87.1719C346.5 88.6719 346.438 90.4688 346.406 92.5625C346.375 94.625 346.359 97.0625 346.359 99.875V113.328C346.359 116.703 345.828 119.578 344.766 121.953C343.734 124.328 342.297 126.281 340.453 127.812C338.609 129.312 336.406 130.406 333.844 131.094C331.312 131.812 328.531 132.172 325.5 132.172C322.438 132.172 319.594 131.828 316.969 131.141C314.344 130.484 312.062 129.422 310.125 127.953C308.219 126.484 306.703 124.578 305.578 122.234C304.484 119.891 303.938 117.047 303.938 113.703V99.875C303.938 97.0625 303.906 94.625 303.844 92.5625C303.781 90.4688 303.688 88.6719 303.562 87.1719C303.438 85.6406 303.297 84.3594 303.141 83.3281C302.984 82.2969 302.797 81.4531 302.578 80.7969V80.6094H313.406V80.7969C313.188 81.4531 313 82.2969 312.844 83.3281C312.688 84.3281 312.547 85.5781 312.422 87.0781C312.328 88.5781 312.25 90.3594 312.188 92.4219C312.125 94.4844 312.094 96.9062 312.094 99.6875V113.703C312.094 116.484 312.516 118.781 313.359 120.594C314.203 122.375 315.312 123.797 316.688 124.859C318.062 125.922 319.625 126.672 321.375 127.109C323.125 127.516 324.922 127.719 326.766 127.719C328.641 127.719 330.453 127.516 332.203 127.109C333.984 126.672 335.562 125.922 336.938 124.859C338.344 123.797 339.453 122.375 340.266 120.594C341.109 118.781 341.531 116.484 341.531 113.703V99.6875ZM382.406 90.4062H381.469C381.281 89.875 380.969 89.2031 380.531 88.3906C380.125 87.5781 379.562 86.7812 378.844 86C378.156 85.2188 377.297 84.5625 376.266 84.0312C375.234 83.4688 374 83.1875 372.562 83.1875C371.469 83.1875 370.484 83.375 369.609 83.75C368.766 84.0938 368.047 84.5781 367.453 85.2031C366.859 85.8281 366.406 86.5781 366.094 87.4531C365.781 88.2969 365.625 89.2188 365.625 90.2188C365.625 91.8438 366.109 93.3906 367.078 94.8594C368.078 96.3281 369.312 97.7969 370.781 99.2656C372.25 100.703 373.844 102.156 375.562 103.625C377.281 105.094 378.875 106.625 380.344 108.219C381.812 109.812 383.031 111.5 384 113.281C385 115.062 385.5 116.969 385.5 119C385.5 120.5 385.219 122.047 384.656 123.641C384.125 125.234 383.25 126.672 382.031 127.953C380.812 129.234 379.25 130.281 377.344 131.094C375.438 131.938 373.125 132.359 370.406 132.359C368.906 132.359 367.469 132.234 366.094 131.984C364.75 131.734 363.5 131.422 362.344 131.047C361.219 130.703 360.203 130.328 359.297 129.922C358.422 129.484 357.688 129.078 357.094 128.703L357.938 119.844H358.922C359.234 120.938 359.688 122.031 360.281 123.125C360.906 124.219 361.656 125.219 362.531 126.125C363.438 127 364.484 127.719 365.672 128.281C366.891 128.812 368.281 129.078 369.844 129.078C370.938 129.078 371.969 128.906 372.938 128.562C373.906 128.188 374.734 127.672 375.422 127.016C376.141 126.359 376.703 125.562 377.109 124.625C377.516 123.656 377.719 122.578 377.719 121.391C377.719 119.984 377.438 118.688 376.875 117.5C376.312 116.281 375.562 115.125 374.625 114.031C373.688 112.906 372.625 111.828 371.438 110.797C370.281 109.766 369.078 108.719 367.828 107.656C366.578 106.594 365.359 105.516 364.172 104.422C363.016 103.297 361.969 102.094 361.031 100.812C360.094 99.5312 359.344 98.1719 358.781 96.7344C358.219 95.2656 357.938 93.6562 357.938 91.9062C357.938 90.0625 358.328 88.4062 359.109 86.9375C359.891 85.4688 360.922 84.2344 362.203 83.2344C363.484 82.2031 364.953 81.4219 366.609 80.8906C368.266 80.3281 369.984 80.0469 371.766 80.0469C373.078 80.0469 374.297 80.1406 375.422 80.3281C376.578 80.5156 377.609 80.75 378.516 81.0312C379.453 81.2812 380.266 81.5469 380.953 81.8281C381.641 82.0781 382.203 82.2812 382.641 82.4375L382.406 90.4062ZM434.531 112.672C434.531 115.328 434.562 117.656 434.625 119.656C434.719 121.625 434.812 123.328 434.906 124.766C435.031 126.203 435.172 127.406 435.328 128.375C435.516 129.344 435.703 130.156 435.891 130.812V131H424.641V130.812C424.828 130.156 425 129.344 425.156 128.375C425.344 127.406 425.5 126.203 425.625 124.766C425.75 123.328 425.844 121.625 425.906 119.656C425.969 117.656 426 115.328 426 112.672V82.1562C426 79.5 425.969 77.1875 425.906 75.2188C425.844 73.2188 425.75 71.5 425.625 70.0625C425.5 68.5938 425.344 67.375 425.156 66.4062C425 65.4375 424.828 64.625 424.641 63.9688V63.7812C427.234 63.7812 429.859 63.7812 432.516 63.7812C435.172 63.75 437.75 63.7344 440.25 63.7344C442.75 63.7031 445.125 63.6719 447.375 63.6406C449.625 63.5781 451.656 63.5312 453.469 63.5C455.281 63.4375 456.812 63.375 458.062 63.3125C459.312 63.2188 460.203 63.125 460.734 63.0312L458.438 69.2656C457.406 68.9844 456.203 68.7344 454.828 68.5156C453.641 68.3281 452.188 68.1562 450.469 68C448.781 67.8125 446.828 67.7188 444.609 67.7188C443.859 67.7188 442.922 67.75 441.797 67.8125C440.672 67.8438 439.562 67.8906 438.469 67.9531C437.219 68.0156 435.906 68.0781 434.531 68.1406V91.8125C437.75 91.7812 440.703 91.6875 443.391 91.5312C446.078 91.375 448.391 91.2188 450.328 91.0625C452.578 90.875 454.609 90.6562 456.422 90.4062L455.016 97.2031C452.672 96.9219 450.297 96.6562 447.891 96.4062C445.828 96.1875 443.609 96 441.234 95.8438C438.859 95.6562 436.625 95.5625 434.531 95.5625V112.672ZM470.062 99.875C470.062 97.0625 470.031 94.625 469.969 92.5625C469.906 90.4688 469.812 88.6719 469.688 87.1719C469.594 85.6406 469.453 84.3594 469.266 83.3281C469.109 82.2969 468.922 81.4531 468.703 80.7969V80.6094H479.578V80.7969C479.359 81.4531 479.156 82.2969 478.969 83.3281C478.812 84.3594 478.672 85.6406 478.547 87.1719C478.453 88.6719 478.375 90.4688 478.312 92.5625C478.25 94.625 478.219 97.0625 478.219 99.875V111.688C478.219 114.5 478.25 116.953 478.312 119.047C478.375 121.141 478.453 122.953 478.547 124.484C478.672 125.984 478.812 127.25 478.969 128.281C479.156 129.312 479.359 130.156 479.578 130.812V131H468.703V130.812C468.922 130.156 469.109 129.312 469.266 128.281C469.453 127.25 469.594 125.984 469.688 124.484C469.812 122.953 469.906 121.141 469.969 119.047C470.031 116.953 470.062 114.5 470.062 111.688V99.875ZM537.656 131.656H535.828L498.562 95V111.688C498.562 114.5 498.578 116.953 498.609 119.047C498.641 121.141 498.688 122.953 498.75 124.484C498.844 125.984 498.953 127.25 499.078 128.281C499.234 129.312 499.422 130.156 499.641 130.812V131H492.609V130.812C492.828 130.156 493.016 129.312 493.172 128.281C493.328 127.25 493.453 125.984 493.547 124.484C493.641 122.953 493.703 121.141 493.734 119.047C493.766 116.953 493.781 114.5 493.781 111.688V99.875C493.781 97.0625 493.766 94.625 493.734 92.5625C493.703 90.4688 493.641 88.6719 493.547 87.1719C493.453 85.6406 493.328 84.3594 493.172 83.3281C493.016 82.2969 492.828 81.4531 492.609 80.7969V80.6094H495.516L532.828 117.453V99.875C532.828 97.0625 532.812 94.625 532.781 92.5625C532.75 90.4688 532.688 88.6719 532.594 87.1719C532.531 85.6406 532.438 84.3594 532.312 83.3281C532.188 82.2969 532.016 81.4531 531.797 80.7969V80.6094H538.781V80.7969C538.562 81.4531 538.375 82.2969 538.219 83.3281C538.094 84.3594 537.984 85.6406 537.891 87.1719C537.797 88.6719 537.734 90.4688 537.703 92.5625C537.672 94.625 537.656 97.0625 537.656 99.875V131.656ZM560.812 83.9375C560.781 86.5 560.75 88.9844 560.719 91.3906C560.719 92.4219 560.703 93.4844 560.672 94.5781C560.672 95.6406 560.656 96.7031 560.625 97.7656C560.625 98.8281 560.625 99.8438 560.625 100.812C560.625 101.75 560.625 102.594 560.625 103.344C560.625 104.906 560.625 106.797 560.625 109.016C560.656 111.203 560.688 113.453 560.719 115.766C560.75 118.078 560.797 120.312 560.859 122.469C560.922 124.594 561 126.375 561.094 127.812C561.406 127.875 561.812 127.938 562.312 128C562.812 128.031 563.328 128.078 563.859 128.141C564.422 128.172 564.969 128.203 565.5 128.234C566.031 128.234 566.484 128.234 566.859 128.234C568.578 128.234 570.312 128.125 572.062 127.906C573.844 127.688 575.547 127.281 577.172 126.688C578.828 126.062 580.375 125.219 581.812 124.156C583.25 123.094 584.5 121.734 585.562 120.078C586.656 118.391 587.5 116.375 588.094 114.031C588.719 111.656 589.031 108.859 589.031 105.641C589.031 98.5469 587.328 93.0781 583.922 89.2344C580.547 85.3906 575.5 83.4688 568.781 83.4688C568.125 83.4688 567.422 83.4844 566.672 83.5156C565.953 83.5469 565.234 83.5938 564.516 83.6562C563.797 83.6875 563.109 83.7344 562.453 83.7969C561.828 83.8594 561.281 83.9062 560.812 83.9375ZM551.109 80.5156C551.859 80.5469 552.562 80.5625 553.219 80.5625C553.781 80.5938 554.328 80.6094 554.859 80.6094C555.391 80.6094 555.781 80.6094 556.031 80.6094C556.469 80.6094 557.25 80.5938 558.375 80.5625C559.5 80.5312 560.766 80.5 562.172 80.4688C563.609 80.4062 565.109 80.3594 566.672 80.3281C568.266 80.2656 569.734 80.2344 571.078 80.2344C574.734 80.2344 578.219 80.6562 581.531 81.5C584.844 82.3438 587.75 83.7344 590.25 85.6719C592.781 87.5781 594.781 90.0938 596.25 93.2188C597.719 96.3125 598.453 100.141 598.453 104.703C598.453 109.609 597.609 113.766 595.922 117.172C594.234 120.578 591.953 123.359 589.078 125.516C586.203 127.641 582.859 129.188 579.047 130.156C575.266 131.094 571.266 131.562 567.047 131.562C566.047 131.562 564.797 131.531 563.297 131.469C561.797 131.406 560.266 131.344 558.703 131.281C557.141 131.219 555.656 131.156 554.25 131.094C552.875 131.031 551.828 131 551.109 131V130.812C551.328 130.156 551.516 129.312 551.672 128.281C551.859 127.25 552 125.984 552.094 124.484C552.219 122.953 552.312 121.141 552.375 119.047C552.438 116.953 552.469 114.5 552.469 111.688V99.875C552.469 97.0625 552.438 94.6094 552.375 92.5156C552.312 90.4219 552.219 88.6094 552.094 87.0781C552 85.5469 551.859 84.2656 551.672 83.2344C551.516 82.2031 551.328 81.3594 551.109 80.7031V80.5156ZM631.219 90.4062H630.281C630.094 89.875 629.781 89.2031 629.344 88.3906C628.938 87.5781 628.375 86.7812 627.656 86C626.969 85.2188 626.109 84.5625 625.078 84.0312C624.047 83.4688 622.812 83.1875 621.375 83.1875C620.281 83.1875 619.297 83.375 618.422 83.75C617.578 84.0938 616.859 84.5781 616.266 85.2031C615.672 85.8281 615.219 86.5781 614.906 87.4531C614.594 88.2969 614.438 89.2188 614.438 90.2188C614.438 91.8438 614.922 93.3906 615.891 94.8594C616.891 96.3281 618.125 97.7969 619.594 99.2656C621.062 100.703 622.656 102.156 624.375 103.625C626.094 105.094 627.688 106.625 629.156 108.219C630.625 109.812 631.844 111.5 632.812 113.281C633.812 115.062 634.312 116.969 634.312 119C634.312 120.5 634.031 122.047 633.469 123.641C632.938 125.234 632.062 126.672 630.844 127.953C629.625 129.234 628.062 130.281 626.156 131.094C624.25 131.938 621.938 132.359 619.219 132.359C617.719 132.359 616.281 132.234 614.906 131.984C613.562 131.734 612.312 131.422 611.156 131.047C610.031 130.703 609.016 130.328 608.109 129.922C607.234 129.484 606.5 129.078 605.906 128.703L606.75 119.844H607.734C608.047 120.938 608.5 122.031 609.094 123.125C609.719 124.219 610.469 125.219 611.344 126.125C612.25 127 613.297 127.719 614.484 128.281C615.703 128.812 617.094 129.078 618.656 129.078C619.75 129.078 620.781 128.906 621.75 128.562C622.719 128.188 623.547 127.672 624.234 127.016C624.953 126.359 625.516 125.562 625.922 124.625C626.328 123.656 626.531 122.578 626.531 121.391C626.531 119.984 626.25 118.688 625.688 117.5C625.125 116.281 624.375 115.125 623.438 114.031C622.5 112.906 621.438 111.828 620.25 110.797C619.094 109.766 617.891 108.719 616.641 107.656C615.391 106.594 614.172 105.516 612.984 104.422C611.828 103.297 610.781 102.094 609.844 100.812C608.906 99.5312 608.156 98.1719 607.594 96.7344C607.031 95.2656 606.75 93.6562 606.75 91.9062C606.75 90.0625 607.141 88.4062 607.922 86.9375C608.703 85.4688 609.734 84.2344 611.016 83.2344C612.297 82.2031 613.766 81.4219 615.422 80.8906C617.078 80.3281 618.797 80.0469 620.578 80.0469C621.891 80.0469 623.109 80.1406 624.234 80.3281C625.391 80.5156 626.422 80.75 627.328 81.0312C628.266 81.2812 629.078 81.5469 629.766 81.8281C630.453 82.0781 631.016 82.2812 631.453 82.4375L631.219 90.4062Z" fill="black"/>
<path d="M647.019 7.15964C633.067 7.15964 625.594 9.07005 621.848 11.7556C618.103 14.4406 617.424 17.9432 617.223 22.9099C617.043 27.3412 619.096 30.0254 622.67 32.0183C626.244 34.0117 631.368 34.9685 636.426 34.9685H642.551L637.591 38.5633C637.063 38.9462 635.021 40.8974 632.957 43.2616C630.892 45.6258 628.634 48.5115 627.047 51.0948C626.253 52.3864 625.629 53.606 625.277 54.5819C624.924 55.5581 624.907 56.2663 624.946 56.4221C624.985 56.5779 624.74 56.4424 625.247 56.5596C625.754 56.6766 627.001 56.6751 628.891 56.2131L628.951 56.1983L629.01 56.1873C647.548 52.8465 656.96 54.5349 661.996 58.1441C667.032 61.753 666.783 67.269 666.656 68.8908L666.645 69.032L666.614 69.1699C663.834 81.5874 661.182 90.8684 660.145 97.0286C659.627 100.109 659.557 102.401 659.87 103.703C660.183 105.006 660.476 105.336 661.671 105.665C663.191 106.082 664.429 105.752 665.935 104.692C667.442 103.633 669.036 101.789 670.555 99.5661C673.566 95.1586 676.26 89.3972 678.95 85.3925C679.355 84.498 680.092 83.69 680.991 83.3589C682.018 82.9807 682.966 83.1051 683.811 83.3122C685.503 83.7257 687.097 84.596 688.693 85.3305C690.288 86.0648 691.847 86.63 692.82 86.6724C693.793 86.7143 694.077 86.7099 694.68 85.5033C702.445 69.9113 702.085 61.1827 701.534 47.6284C701.515 47.1597 701.448 46.6474 701.34 46.1027C701.376 46.5799 701.395 47.0619 701.395 47.5479C701.395 58.1134 692.759 66.749 682.194 66.749C671.628 66.749 662.993 58.1134 662.993 47.5479C662.993 36.9828 671.628 28.3467 682.194 28.3467C686.504 28.3467 690.492 29.785 693.705 32.2042C691.104 29.032 687.945 25.8104 684.374 22.7912C674.108 14.112 660.47 7.15942 647.02 7.15942L647.019 7.15964ZM682.194 34.9682C675.207 34.9682 669.613 40.5615 669.613 47.5483C669.613 54.5358 675.207 60.1284 682.194 60.1284C689.18 60.1284 694.774 54.5358 694.774 47.5483C694.774 40.5615 689.18 34.9682 682.194 34.9682ZM682.332 40.4858C684.205 40.4858 686.001 41.2299 687.326 42.5544C688.65 43.8788 689.394 45.6752 689.394 47.5483C689.394 49.4214 688.65 51.2178 687.326 52.5423C686.001 53.8667 684.205 54.6108 682.332 54.6108C680.459 54.6108 678.662 53.8667 677.338 52.5423C676.013 51.2178 675.269 49.4214 675.269 47.5483C675.269 45.6752 676.013 43.8788 677.338 42.5544C678.662 41.2299 680.459 40.4858 682.332 40.4858ZM640.686 58.6307C637.5 58.8812 633.866 59.3491 629.715 60.0973C628.666 60.3489 627.727 60.5153 626.864 60.5815C631.331 61.3092 637.078 61.8399 641.693 62.9029C644.494 63.5477 646.835 64.4374 647.978 65.3284C648.549 65.7738 648.8 66.1551 648.902 66.4937C649.005 66.8318 649.024 67.2322 648.716 67.9742C646.207 73.9965 644.034 77.9107 642.211 81.5258C640.387 85.1416 638.907 88.5022 638.008 93.0714C637.532 95.4881 637.569 97.5733 638.174 99.3257C638.779 101.078 640.09 102.499 641.765 103.041C645.115 104.123 648.812 102.152 652.073 98.2619C653.829 96.1674 655.496 94.1745 657.07 92.09C657.878 88.3837 658.983 84.0171 660.215 78.9868C657.233 86.0008 653.604 90.2519 649.028 95.7099C646.327 98.9322 643.872 99.5462 642.987 99.2602C642.544 99.1171 642.219 98.866 641.93 98.0291C641.64 97.1922 641.526 95.7717 641.906 93.8384C642.719 89.7068 643.987 86.8249 645.758 83.3152C647.529 79.8054 649.797 75.7114 652.384 69.4997L652.385 69.4988V69.4975C652.96 68.1137 653.1 66.6486 652.705 65.3421C652.309 64.0355 651.443 62.9927 650.421 62.1957C648.378 60.6022 645.631 59.7327 642.585 59.0313C641.964 58.8885 641.329 58.7561 640.686 58.6305L640.686 58.6307Z" fill="#703A9A"/>
<path d="M647.019 7.15964C633.067 7.15964 625.594 9.07005 621.848 11.7556C618.103 14.4406 617.424 17.9432 617.223 22.9099C617.043 27.3412 619.096 30.0254 622.67 32.0183C626.244 34.0117 631.368 34.9685 636.426 34.9685H642.551L637.591 38.5633C637.063 38.9462 635.021 40.8974 632.957 43.2616C630.892 45.6258 628.634 48.5115 627.047 51.0948C626.253 52.3864 625.629 53.606 625.277 54.5819C624.924 55.5581 624.907 56.2663 624.946 56.4221C624.985 56.5779 624.74 56.4424 625.247 56.5596C625.754 56.6766 627.001 56.6751 628.891 56.2131L628.951 56.1983L629.01 56.1873C647.548 52.8465 656.96 54.5349 661.996 58.1441C667.032 61.753 666.783 67.269 666.656 68.8908L666.645 69.032L666.614 69.1699C663.834 81.5874 661.182 90.8684 660.145 97.0286C659.627 100.109 659.557 102.401 659.87 103.703C660.183 105.006 660.476 105.336 661.671 105.665C663.191 106.082 664.429 105.752 665.935 104.692C667.442 103.633 669.036 101.789 670.555 99.5661C673.566 95.1586 676.26 89.3972 678.95 85.3925C679.355 84.498 680.092 83.69 680.991 83.3589C682.018 82.9807 682.966 83.1051 683.811 83.3122C685.503 83.7257 687.097 84.596 688.693 85.3305C690.288 86.0648 691.847 86.63 692.82 86.6724C693.793 86.7143 694.077 86.7099 694.68 85.5033C702.445 69.9113 702.085 61.1827 701.534 47.6284C701.515 47.1597 701.448 46.6474 701.34 46.1027C701.376 46.5799 701.395 47.0619 701.395 47.5479C701.395 58.1134 692.759 66.749 682.194 66.749C671.628 66.749 662.993 58.1134 662.993 47.5479C662.993 36.9828 671.628 28.3467 682.194 28.3467C686.504 28.3467 690.492 29.785 693.705 32.2042C691.104 29.032 687.945 25.8104 684.374 22.7912C674.108 14.112 660.47 7.15942 647.02 7.15942L647.019 7.15964ZM682.194 34.9682C675.207 34.9682 669.613 40.5615 669.613 47.5483C669.613 54.5358 675.207 60.1284 682.194 60.1284C689.18 60.1284 694.774 54.5358 694.774 47.5483C694.774 40.5615 689.18 34.9682 682.194 34.9682ZM682.332 40.4858C684.205 40.4858 686.001 41.2299 687.326 42.5544C688.65 43.8788 689.394 45.6752 689.394 47.5483C689.394 49.4214 688.65 51.2178 687.326 52.5423C686.001 53.8667 684.205 54.6108 682.332 54.6108C680.459 54.6108 678.662 53.8667 677.338 52.5423C676.013 51.2178 675.269 49.4214 675.269 47.5483C675.269 45.6752 676.013 43.8788 677.338 42.5544C678.662 41.2299 680.459 40.4858 682.332 40.4858ZM640.686 58.6307C637.5 58.8812 633.866 59.3491 629.715 60.0973C628.666 60.3489 627.727 60.5153 626.864 60.5815C631.331 61.3092 637.078 61.8399 641.693 62.9029C644.494 63.5477 646.835 64.4374 647.978 65.3284C648.549 65.7738 648.8 66.1551 648.902 66.4937C649.005 66.8318 649.024 67.2322 648.716 67.9742C646.207 73.9965 644.034 77.9107 642.211 81.5258C640.387 85.1416 638.907 88.5022 638.008 93.0714C637.532 95.4881 637.569 97.5733 638.174 99.3257C638.779 101.078 640.09 102.499 641.765 103.041C645.115 104.123 648.812 102.152 652.073 98.2619C653.829 96.1674 655.496 94.1745 657.07 92.09C657.878 88.3837 658.983 84.0171 660.215 78.9868C657.233 86.0008 653.604 90.2519 649.028 95.7099C646.327 98.9322 643.872 99.5462 642.987 99.2602C642.544 99.1171 642.219 98.866 641.93 98.0291C641.64 97.1922 641.526 95.7717 641.906 93.8384C642.719 89.7068 643.987 86.8249 645.758 83.3152C647.529 79.8054 649.797 75.7114 652.384 69.4997L652.385 69.4988V69.4975C652.96 68.1137 653.1 66.6486 652.705 65.3421C652.309 64.0355 651.443 62.9927 650.421 62.1957C648.378 60.6022 645.631 59.7327 642.585 59.0313C641.964 58.8885 641.329 58.7561 640.686 58.6305L640.686 58.6307Z" fill="#703A9A"/>
</svg>
