<!DOCTYPE svg PUBLIC "-//W3C//DTD SVG 1.1//EN" "http://www.w3.org/Graphics/SVG/1.1/DTD/svg11.dtd">
<!-- Uploaded to: SVG Repo, www.svgrepo.com, Transformed by: SVG Repo Mixer Tools -->
<svg height="64px" width="64px" version="1.1" id="Capa_1" xmlns="http://www.w3.org/2000/svg" xmlns:xlink="http://www.w3.org/1999/xlink" viewBox="0 0 55.494 55.494" xml:space="preserve" fill="#000000">
<g id="SVGRepo_bgCarrier" stroke-width="0"/>
<g id="SVGRepo_tracerCarrier" stroke-linecap="round" stroke-linejoin="round"/>
<g id="SVGRepo_iconCarrier"> <g> <g> <path style="fill:#010002;" d="M28.474,23.088c-0.986,0-1.845-0.729-1.979-1.734c-0.147-1.095,0.622-2.102,1.717-2.248 c1.494-0.2,2.756-1.667,2.756-3.203c0-2.817-1.646-4.433-4.515-4.433c-2.048,0-3.765,1.374-4.274,3.418 c-0.266,1.072-1.354,1.727-2.423,1.458c-1.072-0.266-1.725-1.352-1.458-2.423c0.959-3.86,4.236-6.453,8.154-6.453 c5.093,0,8.515,3.389,8.515,8.433c0,3.552-2.734,6.7-6.225,7.168C28.652,23.082,28.562,23.088,28.474,23.088z"/> </g> <g> <path style="fill:#010002;" d="M53.493,48.025H2c-0.871,0-1.642-0.565-1.906-1.395c-0.264-0.831,0.041-1.736,0.753-2.239 l26.491-18.71c0.706-0.5,1.657-0.487,2.352,0.032l25.002,18.71c0.69,0.517,0.972,1.416,0.699,2.233 C55.119,47.474,54.354,48.025,53.493,48.025z M11.299,44.025h33.183c1.657,0,1.925-0.805,0.598-1.798L30.859,31.586 c-1.327-0.993-3.499-1.023-4.853-0.067L10.749,42.295C9.395,43.251,9.641,44.025,11.299,44.025z"/> </g> </g> </g>
</svg>