<svg width="49" height="49" viewBox="0 0 49 49" fill="none" xmlns="http://www.w3.org/2000/svg">
<path d="M35.4375 0C30.9203 0 26.9653 2.26678 24.5 6.09836C22.0347 2.26678 18.0797 0 13.5625 0C9.96675 0.00472946 6.51942 1.67369 3.97684 4.64074C1.43426 7.60779 0.00405286 11.6306 0 15.8266C0 33.6954 22.7041 48.159 23.6709 48.7563C23.9258 48.9163 24.2106 49 24.5 49C24.7894 49 25.0742 48.9163 25.3291 48.7563C26.2959 48.159 49 33.6954 49 15.8266C48.9959 11.6306 47.5657 7.60779 45.0232 4.64074C42.4806 1.67369 39.0333 0.00472946 35.4375 0ZM24.5 44.6209C20.5056 41.9049 3.5 29.532 3.5 15.8266C3.50347 12.7136 4.56474 9.72927 6.45107 7.52803C8.33741 5.32679 10.8948 4.08835 13.5625 4.0843C17.8172 4.0843 21.3894 6.72888 22.8812 10.9765C23.0131 11.3511 23.2374 11.6715 23.5256 11.8969C23.8138 12.1224 24.153 12.2427 24.5 12.2427C24.847 12.2427 25.1862 12.1224 25.4744 11.8969C25.7626 11.6715 25.9869 11.3511 26.1187 10.9765C27.6106 6.72122 31.1828 4.0843 35.4375 4.0843C38.1052 4.08835 40.6626 5.32679 42.5489 7.52803C44.4353 9.72927 45.4965 12.7136 45.5 15.8266C45.5 29.5116 28.49 41.9023 24.5 44.6209Z" fill="#AE0909"/>
</svg>
