<?xml version="1.0" standalone="no"?>
<!DOCTYPE svg PUBLIC "-//W3C//DTD SVG 20010904//EN"
 "http://www.w3.org/TR/2001/REC-SVG-20010904/DTD/svg10.dtd">
<svg version="1.0" xmlns="http://www.w3.org/2000/svg"
 width="512.000000pt" height="512.000000pt" viewBox="0 0 512.000000 512.000000"
 preserveAspectRatio="xMidYMid meet">

<g transform="translate(0.000000,512.000000) scale(0.100000,-0.100000)"
fill="#000000" stroke="none">
<path d="M2265 4615 l-25 -24 0 -680 0 -680 23 -27 c17 -20 33 -27 57 -27 24
0 40 7 57 27 l23 27 0 625 0 624 1100 0 1100 0 0 -1920 0 -1920 -1100 0 -1100
0 0 904 c0 899 0 903 -21 930 -29 37 -89 37 -118 0 -21 -27 -21 -31 -21 -986
l0 -959 25 -24 24 -25 1211 0 1211 0 24 25 25 24 0 2031 0 2031 -25 24 -24 25
-1211 0 -1211 0 -24 -25z"/>
<path d="M1301 4299 c-58 -18 -120 -67 -151 -121 -53 -95 -49 -174 12 -199 41
-17 95 8 104 48 18 86 44 114 111 120 87 8 149 -61 129 -142 -4 -15 -45 -67
-90 -114 -82 -86 -127 -155 -141 -218 l-7 -33 -109 0 c-84 0 -115 4 -134 16
-20 13 -48 15 -152 12 -119 -3 -132 -6 -193 -35 -36 -17 -79 -47 -97 -65 -48
-51 -366 -624 -366 -661 0 -44 31 -66 167 -117 65 -24 120 -50 123 -57 3 -7
-14 -178 -37 -379 -45 -391 -45 -404 2 -424 30 -13 1228 -152 1275 -148 66 6
68 12 114 418 23 201 45 368 48 372 4 4 60 15 126 23 66 9 130 18 143 21 33 7
62 40 62 72 0 35 -165 663 -184 700 -18 35 -103 115 -146 137 -41 21 -187 65
-218 65 -13 0 -32 -5 -43 -11 -27 -14 -219 29 -219 49 0 32 35 83 109 159 106
108 125 146 125 248 1 64 -4 88 -21 121 -30 57 -79 103 -133 127 -52 23 -159
31 -209 16z m-393 -841 c65 -276 369 -421 620 -297 79 38 161 119 197 193 15
31 31 56 35 56 47 0 135 -58 156 -103 7 -18 41 -140 75 -272 33 -132 62 -247
65 -257 4 -13 -5 -18 -38 -23 -24 -3 -55 -8 -70 -11 -21 -4 -28 -2 -28 9 0 21
-48 57 -76 57 -12 0 -35 -10 -49 -23 -26 -22 -28 -29 -75 -427 -27 -223 -49
-407 -49 -409 -1 -2 -34 0 -73 4 -144 14 -991 114 -994 118 -2 1 17 174 41
383 25 208 45 394 45 413 0 71 -82 109 -131 60 -23 -23 -39 -21 -107 8 l-40
18 132 237 c72 131 143 249 156 264 35 37 76 53 140 54 l55 0 13 -52z m559
-13 l113 -27 -18 -30 c-35 -61 -145 -118 -227 -118 -58 0 -131 29 -179 71 -43
38 -86 103 -86 130 0 22 271 5 397 -26z"/>
<path d="M3154 4292 c-115 -41 -184 -138 -184 -260 0 -96 16 -128 118 -234 88
-93 133 -162 115 -178 -4 -4 -49 -17 -100 -30 -79 -19 -96 -20 -127 -9 -31 11
-45 9 -128 -15 -137 -42 -234 -112 -274 -200 -25 -55 -175 -679 -169 -703 9
-38 44 -51 190 -70 l140 -18 47 -378 c28 -225 52 -385 59 -394 7 -8 23 -19 35
-23 19 -8 1196 127 1274 146 43 10 60 33 60 83 0 25 -18 194 -40 374 -22 180
-40 336 -40 346 0 13 25 27 103 56 144 54 176 72 188 103 8 21 7 35 -6 62 -46
97 -332 589 -359 618 -17 18 -59 47 -94 64 -54 27 -81 33 -178 41 -122 9 -153
6 -178 -18 -12 -13 -37 -15 -127 -13 l-112 3 -12 40 c-21 70 -46 108 -135 200
-96 99 -111 131 -87 186 20 48 50 71 99 76 60 6 101 -21 124 -84 30 -83 68
-107 124 -78 91 47 15 238 -118 297 -64 29 -146 33 -208 10z m750 -806 c36
-21 57 -52 184 -276 79 -139 142 -253 140 -254 -2 -1 -30 -12 -62 -24 l-59
-23 -22 21 c-33 31 -83 29 -112 -4 -12 -15 -23 -35 -23 -44 0 -9 20 -183 45
-385 25 -203 45 -381 45 -397 0 -28 0 -28 -97 -39 -54 -7 -291 -36 -528 -65
-236 -29 -433 -50 -436 -47 -4 3 -28 184 -54 401 -25 217 -50 405 -55 417 -26
63 -112 67 -140 5 l-15 -32 -60 6 c-33 4 -63 9 -67 13 -12 11 131 540 154 571
21 29 77 64 119 74 23 5 28 1 40 -25 24 -58 96 -145 151 -181 76 -51 162 -78
247 -78 211 0 386 141 433 349 l12 53 60 -6 c35 -3 76 -16 100 -30z m-339 -28
c-12 -42 -55 -98 -97 -128 -117 -85 -264 -72 -367 33 -23 22 -41 44 -41 48 0
6 78 26 235 62 11 3 78 5 148 6 l128 1 -6 -22z"/>
<path d="M663 1654 c-25 -25 -26 -28 -20 -115 19 -255 169 -474 402 -585 102
-49 184 -67 300 -67 164 0 300 47 440 153 36 27 67 50 69 50 2 0 6 -26 10 -58
10 -90 66 -134 122 -98 46 31 48 49 20 229 -14 91 -29 173 -33 182 -3 10 -19
23 -35 30 -25 10 -56 8 -186 -12 -176 -26 -194 -31 -218 -67 -19 -31 -13 -67
18 -98 18 -18 28 -20 91 -14 61 6 68 4 58 -8 -24 -29 -112 -78 -183 -104 -148
-52 -339 -26 -474 64 -145 96 -244 277 -244 445 0 40 -5 55 -25 74 -33 34 -78
33 -112 -1z"/>
<path d="M3663 1398 l-243 -242 -138 137 c-120 119 -143 137 -171 137 -43 0
-81 -38 -81 -82 0 -29 20 -52 178 -210 161 -161 181 -178 212 -178 31 0 57 23
317 283 256 255 283 285 283 315 0 44 -38 82 -82 82 -29 0 -58 -25 -275 -242z"/>
</g>
</svg>
