<?xml version="1.0" encoding="iso-8859-1"?>
<!-- Uploaded to: SVG Repo, www.svgrepo.com, Generator: SVG Repo Mixer Tools -->
<!DOCTYPE svg PUBLIC "-//W3C//DTD SVG 1.1//EN" "http://www.w3.org/Graphics/SVG/1.1/DTD/svg11.dtd">
<svg fill="#000000" version="1.1" id="Capa_1" xmlns="http://www.w3.org/2000/svg" xmlns:xlink="http://www.w3.org/1999/xlink" 
	 width="800px" height="800px" viewBox="0 0 56.751 56.75"
	 xml:space="preserve">
<g>
	<g>
		<path d="M56.072,43.004l-27.25-18.5c-0.032-0.021-0.074-0.04-0.124-0.058c-0.07-0.025-0.13-0.44-0.13-0.934
			s0.42-1.056,0.884-1.356c1.551-1.002,2.591-2.767,2.591-4.685c0-3.873-2.628-6.476-6.54-6.476c-3.01,0-5.525,1.992-6.262,4.956
			c-0.199,0.804,0.291,1.617,1.095,1.817c0.806,0.202,1.617-0.291,1.817-1.095c0.398-1.603,1.743-2.679,3.35-2.679
			c2.25,0,3.54,1.267,3.54,3.476c0,1.211-0.995,2.366-2.173,2.524c-0.745,0.099-1.302,0.734-1.302,1.486v1.908
			c0,0.553-0.105,1.021-0.232,1.059c-0.092,0.028-0.167,0.06-0.217,0.096l-24.5,18.5c-0.526,0.381-0.746,1.059-0.546,1.676
			c0.2,0.619,0.776,1.037,1.427,1.037h53.751c0.663,0,1.248-0.436,1.438-1.07S56.628,43.367,56.072,43.004z M49.224,42.758H7.123
			c-0.553,0-0.619-0.234-0.149-0.524l17.642-10.892c1.342-0.974,3.553-1.026,4.938-0.119L49.35,42.272
			C49.832,42.542,49.775,42.758,49.224,42.758z"/>
	</g>
</g>
</svg>