<svg width="836" height="288" viewBox="0 0 836 288" fill="none" xmlns="http://www.w3.org/2000/svg">
<path d="M16.5938 198.672C16.5938 201.328 16.625 203.656 16.6875 205.656C16.7812 207.625 16.875 209.328 16.9688 210.766C17.0938 212.203 17.2344 213.406 17.3906 214.375C17.5781 215.344 17.7656 216.156 17.9531 216.812V217H6.70312V216.812C6.89062 216.156 7.0625 215.344 7.21875 214.375C7.40625 213.406 7.5625 212.203 7.6875 210.766C7.8125 209.328 7.90625 207.625 7.96875 205.656C8.03125 203.656 8.0625 201.328 8.0625 198.672V168.156C8.0625 165.5 8.03125 163.188 7.96875 161.219C7.90625 159.219 7.8125 157.5 7.6875 156.062C7.5625 154.594 7.40625 153.375 7.21875 152.406C7.0625 151.438 6.89062 150.625 6.70312 149.969V149.781C9.29688 149.781 11.9219 149.781 14.5781 149.781C17.2344 149.75 19.8125 149.734 22.3125 149.734C24.8125 149.703 27.1875 149.672 29.4375 149.641C31.6875 149.578 33.7188 149.531 35.5312 149.5C37.3438 149.438 38.875 149.375 40.125 149.312C41.375 149.219 42.2656 149.125 42.7969 149.031L40.5 155.266C39.4688 154.984 38.2656 154.734 36.8906 154.516C35.7031 154.328 34.25 154.156 32.5312 154C30.8438 153.812 28.8906 153.719 26.6719 153.719C25.9219 153.719 24.9844 153.75 23.8594 153.812C22.7344 153.844 21.625 153.891 20.5312 153.953C19.2812 154.016 17.9688 154.078 16.5938 154.141V177.812C19.8125 177.781 22.7656 177.688 25.4531 177.531C28.1406 177.375 30.4531 177.219 32.3906 177.062C34.6406 176.875 36.6719 176.656 38.4844 176.406L37.0781 183.203C34.7344 182.922 32.3594 182.656 29.9531 182.406C27.8906 182.188 25.6719 182 23.2969 181.844C20.9219 181.656 18.6875 181.562 16.5938 181.562V198.672ZM78.6562 201.156C77.8125 201.156 76.75 201.156 75.4688 201.156C74.2188 201.156 72.8438 201.156 71.3438 201.156C69.8438 201.156 68.2969 201.156 66.7031 201.156C65.1094 201.156 63.5938 201.172 62.1562 201.203C60.7188 201.203 59.4062 201.219 58.2188 201.25C57.0312 201.25 56.1094 201.25 55.4531 201.25L53.7188 204.906C52.9688 206.406 52.3281 207.719 51.7969 208.844C51.2656 209.938 50.8281 210.906 50.4844 211.75C50.1406 212.594 49.8906 213.328 49.7344 213.953C49.5781 214.547 49.5 215.109 49.5 215.641C49.5 215.984 49.5156 216.25 49.5469 216.438C49.5781 216.594 49.625 216.719 49.6875 216.812V217H41.4375V216.812C41.6562 216.594 42 216.125 42.4688 215.406C42.9375 214.656 43.4688 213.75 44.0625 212.688C44.6875 211.625 45.3438 210.422 46.0312 209.078C46.75 207.734 47.4531 206.344 48.1406 204.906L67.2656 165.438H70.7812L89.5312 204.906C90.25 206.406 90.9688 207.844 91.6875 209.219C92.4375 210.594 93.125 211.828 93.75 212.922C94.375 213.984 94.9219 214.875 95.3906 215.594C95.8594 216.281 96.1719 216.688 96.3281 216.812V217H84.3281C84.3906 216.75 84.4219 216.531 84.4219 216.344C84.4219 216.125 84.4219 215.891 84.4219 215.641C84.4219 214.953 84.2656 214.125 83.9531 213.156C83.6719 212.188 83.3125 211.203 82.875 210.203C82.4688 209.172 82.0312 208.188 81.5625 207.25C81.125 206.312 80.7656 205.531 80.4844 204.906L78.6562 201.156ZM57.2812 197.5H60.1406C61.4531 197.5 62.8438 197.5 64.3125 197.5C65.8125 197.469 67.3125 197.453 68.8125 197.453C70.3125 197.453 71.7656 197.453 73.1719 197.453C74.5781 197.422 75.8438 197.406 76.9688 197.406L67.2656 176.688L57.2812 197.5ZM117.797 192.344C116.297 192.344 115.016 192.406 113.953 192.531C112.922 192.625 112.125 192.719 111.562 192.812V197.688C111.562 200.375 111.562 202.625 111.562 204.438C111.594 206.25 111.625 207.766 111.656 208.984C111.719 210.203 111.766 211.188 111.797 211.938C111.828 212.656 111.875 213.281 111.938 213.812C112.75 214.031 113.609 214.172 114.516 214.234C115.453 214.297 116.188 214.328 116.719 214.328C121.031 214.328 124.156 213.391 126.094 211.516C128.062 209.609 129.047 206.672 129.047 202.703C129.047 201.203 128.812 199.812 128.344 198.531C127.875 197.25 127.172 196.156 126.234 195.25C125.297 194.344 124.125 193.641 122.719 193.141C121.312 192.609 119.672 192.344 117.797 192.344ZM111.562 189.156C112.188 189.25 112.75 189.312 113.25 189.344C113.75 189.344 114.266 189.344 114.797 189.344C117.953 189.344 120.453 188.469 122.297 186.719C124.172 184.969 125.109 182.359 125.109 178.891C125.109 177.484 124.922 176.188 124.547 175C124.172 173.812 123.625 172.797 122.906 171.953C122.219 171.109 121.344 170.453 120.281 169.984C119.25 169.516 118.062 169.281 116.719 169.281C115.812 169.281 115.047 169.328 114.422 169.422C113.797 169.484 113.266 169.547 112.828 169.609C112.328 169.734 111.906 169.844 111.562 169.938V189.156ZM102.047 166.516C102.641 166.547 103.25 166.562 103.875 166.562C104.406 166.594 104.984 166.609 105.609 166.609C106.234 166.609 106.844 166.609 107.438 166.609C108.406 166.609 109.75 166.547 111.469 166.422C113.188 166.297 115.328 166.234 117.891 166.234C120.172 166.234 122.281 166.516 124.219 167.078C126.188 167.609 127.875 168.391 129.281 169.422C130.719 170.453 131.828 171.719 132.609 173.219C133.422 174.719 133.828 176.422 133.828 178.328C133.828 179.953 133.594 181.406 133.125 182.688C132.688 183.938 132.047 185.047 131.203 186.016C130.359 186.953 129.344 187.75 128.156 188.406C126.969 189.031 125.656 189.531 124.219 189.906C126.312 190.219 128.219 190.734 129.938 191.453C131.656 192.172 133.125 193.078 134.344 194.172C135.562 195.234 136.5 196.5 137.156 197.969C137.812 199.406 138.141 201.016 138.141 202.797C138.141 207.734 136.375 211.438 132.844 213.906C129.312 216.344 124.047 217.562 117.047 217.562C116.297 217.562 115.359 217.531 114.234 217.469C113.141 217.406 111.984 217.344 110.766 217.281C109.578 217.219 108.422 217.156 107.297 217.094C106.203 217.031 105.281 217 104.531 217H102.047V216.812C102.266 216.156 102.453 215.312 102.609 214.281C102.797 213.25 102.938 211.984 103.031 210.484C103.156 208.953 103.25 207.141 103.312 205.047C103.375 202.953 103.406 200.5 103.406 197.688V185.875C103.406 183.062 103.375 180.609 103.312 178.516C103.25 176.422 103.156 174.609 103.031 173.078C102.938 171.547 102.797 170.266 102.609 169.234C102.453 168.203 102.266 167.359 102.047 166.703V166.516ZM186.375 185.688C186.375 182.906 186.359 180.484 186.328 178.422C186.297 176.359 186.234 174.578 186.141 173.078C186.047 171.578 185.938 170.328 185.812 169.328C185.688 168.297 185.531 167.453 185.344 166.797V166.609H192.234V166.797C192.047 167.453 191.891 168.297 191.766 169.328C191.641 170.359 191.531 171.641 191.438 173.172C191.344 174.672 191.281 176.469 191.25 178.562C191.219 180.625 191.203 183.062 191.203 185.875V199.328C191.203 202.703 190.672 205.578 189.609 207.953C188.578 210.328 187.141 212.281 185.297 213.812C183.453 215.312 181.25 216.406 178.688 217.094C176.156 217.812 173.375 218.172 170.344 218.172C167.281 218.172 164.438 217.828 161.812 217.141C159.188 216.484 156.906 215.422 154.969 213.953C153.062 212.484 151.547 210.578 150.422 208.234C149.328 205.891 148.781 203.047 148.781 199.703V185.875C148.781 183.062 148.75 180.625 148.688 178.562C148.625 176.469 148.531 174.672 148.406 173.172C148.281 171.641 148.141 170.359 147.984 169.328C147.828 168.297 147.641 167.453 147.422 166.797V166.609H158.25V166.797C158.031 167.453 157.844 168.297 157.688 169.328C157.531 170.328 157.391 171.578 157.266 173.078C157.172 174.578 157.094 176.359 157.031 178.422C156.969 180.484 156.938 182.906 156.938 185.688V199.703C156.938 202.484 157.359 204.781 158.203 206.594C159.047 208.375 160.156 209.797 161.531 210.859C162.906 211.922 164.469 212.672 166.219 213.109C167.969 213.516 169.766 213.719 171.609 213.719C173.484 213.719 175.297 213.516 177.047 213.109C178.828 212.672 180.406 211.922 181.781 210.859C183.188 209.797 184.297 208.375 185.109 206.594C185.953 204.781 186.375 202.484 186.375 199.703V185.688ZM213.938 213.344C216.844 213.344 219.516 213.234 221.953 213.016C224.422 212.766 226.578 212.5 228.422 212.219C230.578 211.875 232.531 211.484 234.281 211.047L233.203 217.281C232.766 217.25 232.016 217.203 230.953 217.141C229.922 217.109 228.828 217.078 227.672 217.047C226.516 217.047 225.438 217.031 224.438 217C223.438 217 222.75 217 222.375 217H204.422V216.812C204.641 216.156 204.828 215.312 204.984 214.281C205.172 213.25 205.312 211.984 205.406 210.484C205.531 208.953 205.625 207.141 205.688 205.047C205.75 202.953 205.781 200.5 205.781 197.688V185.875C205.781 183.062 205.75 180.625 205.688 178.562C205.625 176.469 205.531 174.672 205.406 173.172C205.312 171.641 205.172 170.359 204.984 169.328C204.828 168.297 204.641 167.453 204.422 166.797V166.609H215.25V166.797C215.031 167.453 214.844 168.297 214.688 169.328C214.531 170.359 214.391 171.641 214.266 173.172C214.172 174.672 214.094 176.469 214.031 178.562C213.969 180.625 213.938 183.062 213.938 185.875V213.344ZM239.719 191.641C239.719 187.953 240.406 184.531 241.781 181.375C243.188 178.219 245.094 175.484 247.5 173.172C249.906 170.828 252.75 169 256.031 167.688C259.312 166.375 262.828 165.719 266.578 165.719C270.266 165.719 273.734 166.344 276.984 167.594C280.266 168.812 283.109 170.562 285.516 172.844C287.953 175.125 289.875 177.891 291.281 181.141C292.688 184.391 293.391 188.031 293.391 192.062C293.391 195.406 292.797 198.641 291.609 201.766C290.422 204.859 288.688 207.609 286.406 210.016C284.125 212.391 281.312 214.297 277.969 215.734C274.625 217.141 270.797 217.844 266.484 217.844C262.828 217.844 259.375 217.234 256.125 216.016C252.875 214.797 250.031 213.062 247.594 210.812C245.156 208.531 243.234 205.781 241.828 202.562C240.422 199.312 239.719 195.672 239.719 191.641ZM267.656 214.516C270.031 214.516 272.219 214.047 274.219 213.109C276.219 212.172 277.938 210.828 279.375 209.078C280.844 207.328 281.969 205.203 282.75 202.703C283.562 200.172 283.969 197.328 283.969 194.172C283.969 190.578 283.578 187.25 282.797 184.188C282.047 181.125 280.891 178.484 279.328 176.266C277.797 174.016 275.875 172.266 273.562 171.016C271.25 169.734 268.547 169.094 265.453 169.094C263.078 169.094 260.891 169.547 258.891 170.453C256.891 171.359 255.156 172.672 253.688 174.391C252.25 176.109 251.125 178.219 250.312 180.719C249.5 183.219 249.094 186.062 249.094 189.25C249.094 192.812 249.484 196.141 250.266 199.234C251.078 202.297 252.25 204.969 253.781 207.25C255.344 209.5 257.281 211.281 259.594 212.594C261.906 213.875 264.594 214.516 267.656 214.516ZM341.531 185.688C341.531 182.906 341.516 180.484 341.484 178.422C341.453 176.359 341.391 174.578 341.297 173.078C341.203 171.578 341.094 170.328 340.969 169.328C340.844 168.297 340.688 167.453 340.5 166.797V166.609H347.391V166.797C347.203 167.453 347.047 168.297 346.922 169.328C346.797 170.359 346.688 171.641 346.594 173.172C346.5 174.672 346.438 176.469 346.406 178.562C346.375 180.625 346.359 183.062 346.359 185.875V199.328C346.359 202.703 345.828 205.578 344.766 207.953C343.734 210.328 342.297 212.281 340.453 213.812C338.609 215.312 336.406 216.406 333.844 217.094C331.312 217.812 328.531 218.172 325.5 218.172C322.438 218.172 319.594 217.828 316.969 217.141C314.344 216.484 312.062 215.422 310.125 213.953C308.219 212.484 306.703 210.578 305.578 208.234C304.484 205.891 303.938 203.047 303.938 199.703V185.875C303.938 183.062 303.906 180.625 303.844 178.562C303.781 176.469 303.688 174.672 303.562 173.172C303.438 171.641 303.297 170.359 303.141 169.328C302.984 168.297 302.797 167.453 302.578 166.797V166.609H313.406V166.797C313.188 167.453 313 168.297 312.844 169.328C312.688 170.328 312.547 171.578 312.422 173.078C312.328 174.578 312.25 176.359 312.188 178.422C312.125 180.484 312.094 182.906 312.094 185.688V199.703C312.094 202.484 312.516 204.781 313.359 206.594C314.203 208.375 315.312 209.797 316.688 210.859C318.062 211.922 319.625 212.672 321.375 213.109C323.125 213.516 324.922 213.719 326.766 213.719C328.641 213.719 330.453 213.516 332.203 213.109C333.984 212.672 335.562 211.922 336.938 210.859C338.344 209.797 339.453 208.375 340.266 206.594C341.109 204.781 341.531 202.484 341.531 199.703V185.688ZM382.406 176.406H381.469C381.281 175.875 380.969 175.203 380.531 174.391C380.125 173.578 379.562 172.781 378.844 172C378.156 171.219 377.297 170.562 376.266 170.031C375.234 169.469 374 169.188 372.562 169.188C371.469 169.188 370.484 169.375 369.609 169.75C368.766 170.094 368.047 170.578 367.453 171.203C366.859 171.828 366.406 172.578 366.094 173.453C365.781 174.297 365.625 175.219 365.625 176.219C365.625 177.844 366.109 179.391 367.078 180.859C368.078 182.328 369.312 183.797 370.781 185.266C372.25 186.703 373.844 188.156 375.562 189.625C377.281 191.094 378.875 192.625 380.344 194.219C381.812 195.812 383.031 197.5 384 199.281C385 201.062 385.5 202.969 385.5 205C385.5 206.5 385.219 208.047 384.656 209.641C384.125 211.234 383.25 212.672 382.031 213.953C380.812 215.234 379.25 216.281 377.344 217.094C375.438 217.938 373.125 218.359 370.406 218.359C368.906 218.359 367.469 218.234 366.094 217.984C364.75 217.734 363.5 217.422 362.344 217.047C361.219 216.703 360.203 216.328 359.297 215.922C358.422 215.484 357.688 215.078 357.094 214.703L357.938 205.844H358.922C359.234 206.938 359.688 208.031 360.281 209.125C360.906 210.219 361.656 211.219 362.531 212.125C363.438 213 364.484 213.719 365.672 214.281C366.891 214.812 368.281 215.078 369.844 215.078C370.938 215.078 371.969 214.906 372.938 214.562C373.906 214.188 374.734 213.672 375.422 213.016C376.141 212.359 376.703 211.562 377.109 210.625C377.516 209.656 377.719 208.578 377.719 207.391C377.719 205.984 377.438 204.688 376.875 203.5C376.312 202.281 375.562 201.125 374.625 200.031C373.688 198.906 372.625 197.828 371.438 196.797C370.281 195.766 369.078 194.719 367.828 193.656C366.578 192.594 365.359 191.516 364.172 190.422C363.016 189.297 361.969 188.094 361.031 186.812C360.094 185.531 359.344 184.172 358.781 182.734C358.219 181.266 357.938 179.656 357.938 177.906C357.938 176.062 358.328 174.406 359.109 172.938C359.891 171.469 360.922 170.234 362.203 169.234C363.484 168.203 364.953 167.422 366.609 166.891C368.266 166.328 369.984 166.047 371.766 166.047C373.078 166.047 374.297 166.141 375.422 166.328C376.578 166.516 377.609 166.75 378.516 167.031C379.453 167.281 380.266 167.547 380.953 167.828C381.641 168.078 382.203 168.281 382.641 168.438L382.406 176.406ZM434.531 198.672C434.531 201.328 434.562 203.656 434.625 205.656C434.719 207.625 434.812 209.328 434.906 210.766C435.031 212.203 435.172 213.406 435.328 214.375C435.516 215.344 435.703 216.156 435.891 216.812V217H424.641V216.812C424.828 216.156 425 215.344 425.156 214.375C425.344 213.406 425.5 212.203 425.625 210.766C425.75 209.328 425.844 207.625 425.906 205.656C425.969 203.656 426 201.328 426 198.672V168.156C426 165.5 425.969 163.188 425.906 161.219C425.844 159.219 425.75 157.5 425.625 156.062C425.5 154.594 425.344 153.375 425.156 152.406C425 151.438 424.828 150.625 424.641 149.969V149.781C427.234 149.781 429.859 149.781 432.516 149.781C435.172 149.75 437.75 149.734 440.25 149.734C442.75 149.703 445.125 149.672 447.375 149.641C449.625 149.578 451.656 149.531 453.469 149.5C455.281 149.438 456.812 149.375 458.062 149.312C459.312 149.219 460.203 149.125 460.734 149.031L458.438 155.266C457.406 154.984 456.203 154.734 454.828 154.516C453.641 154.328 452.188 154.156 450.469 154C448.781 153.812 446.828 153.719 444.609 153.719C443.859 153.719 442.922 153.75 441.797 153.812C440.672 153.844 439.562 153.891 438.469 153.953C437.219 154.016 435.906 154.078 434.531 154.141V177.812C437.75 177.781 440.703 177.688 443.391 177.531C446.078 177.375 448.391 177.219 450.328 177.062C452.578 176.875 454.609 176.656 456.422 176.406L455.016 183.203C452.672 182.922 450.297 182.656 447.891 182.406C445.828 182.188 443.609 182 441.234 181.844C438.859 181.656 436.625 181.562 434.531 181.562V198.672ZM470.062 185.875C470.062 183.062 470.031 180.625 469.969 178.562C469.906 176.469 469.812 174.672 469.688 173.172C469.594 171.641 469.453 170.359 469.266 169.328C469.109 168.297 468.922 167.453 468.703 166.797V166.609H479.578V166.797C479.359 167.453 479.156 168.297 478.969 169.328C478.812 170.359 478.672 171.641 478.547 173.172C478.453 174.672 478.375 176.469 478.312 178.562C478.25 180.625 478.219 183.062 478.219 185.875V197.688C478.219 200.5 478.25 202.953 478.312 205.047C478.375 207.141 478.453 208.953 478.547 210.484C478.672 211.984 478.812 213.25 478.969 214.281C479.156 215.312 479.359 216.156 479.578 216.812V217H468.703V216.812C468.922 216.156 469.109 215.312 469.266 214.281C469.453 213.25 469.594 211.984 469.688 210.484C469.812 208.953 469.906 207.141 469.969 205.047C470.031 202.953 470.062 200.5 470.062 197.688V185.875ZM537.656 217.656H535.828L498.562 181V197.688C498.562 200.5 498.578 202.953 498.609 205.047C498.641 207.141 498.688 208.953 498.75 210.484C498.844 211.984 498.953 213.25 499.078 214.281C499.234 215.312 499.422 216.156 499.641 216.812V217H492.609V216.812C492.828 216.156 493.016 215.312 493.172 214.281C493.328 213.25 493.453 211.984 493.547 210.484C493.641 208.953 493.703 207.141 493.734 205.047C493.766 202.953 493.781 200.5 493.781 197.688V185.875C493.781 183.062 493.766 180.625 493.734 178.562C493.703 176.469 493.641 174.672 493.547 173.172C493.453 171.641 493.328 170.359 493.172 169.328C493.016 168.297 492.828 167.453 492.609 166.797V166.609H495.516L532.828 203.453V185.875C532.828 183.062 532.812 180.625 532.781 178.562C532.75 176.469 532.688 174.672 532.594 173.172C532.531 171.641 532.438 170.359 532.312 169.328C532.188 168.297 532.016 167.453 531.797 166.797V166.609H538.781V166.797C538.562 167.453 538.375 168.297 538.219 169.328C538.094 170.359 537.984 171.641 537.891 173.172C537.797 174.672 537.734 176.469 537.703 178.562C537.672 180.625 537.656 183.062 537.656 185.875V217.656ZM560.812 169.938C560.781 172.5 560.75 174.984 560.719 177.391C560.719 178.422 560.703 179.484 560.672 180.578C560.672 181.641 560.656 182.703 560.625 183.766C560.625 184.828 560.625 185.844 560.625 186.812C560.625 187.75 560.625 188.594 560.625 189.344C560.625 190.906 560.625 192.797 560.625 195.016C560.656 197.203 560.688 199.453 560.719 201.766C560.75 204.078 560.797 206.312 560.859 208.469C560.922 210.594 561 212.375 561.094 213.812C561.406 213.875 561.812 213.938 562.312 214C562.812 214.031 563.328 214.078 563.859 214.141C564.422 214.172 564.969 214.203 565.5 214.234C566.031 214.234 566.484 214.234 566.859 214.234C568.578 214.234 570.312 214.125 572.062 213.906C573.844 213.688 575.547 213.281 577.172 212.688C578.828 212.062 580.375 211.219 581.812 210.156C583.25 209.094 584.5 207.734 585.562 206.078C586.656 204.391 587.5 202.375 588.094 200.031C588.719 197.656 589.031 194.859 589.031 191.641C589.031 184.547 587.328 179.078 583.922 175.234C580.547 171.391 575.5 169.469 568.781 169.469C568.125 169.469 567.422 169.484 566.672 169.516C565.953 169.547 565.234 169.594 564.516 169.656C563.797 169.688 563.109 169.734 562.453 169.797C561.828 169.859 561.281 169.906 560.812 169.938ZM551.109 166.516C551.859 166.547 552.562 166.562 553.219 166.562C553.781 166.594 554.328 166.609 554.859 166.609C555.391 166.609 555.781 166.609 556.031 166.609C556.469 166.609 557.25 166.594 558.375 166.562C559.5 166.531 560.766 166.5 562.172 166.469C563.609 166.406 565.109 166.359 566.672 166.328C568.266 166.266 569.734 166.234 571.078 166.234C574.734 166.234 578.219 166.656 581.531 167.5C584.844 168.344 587.75 169.734 590.25 171.672C592.781 173.578 594.781 176.094 596.25 179.219C597.719 182.312 598.453 186.141 598.453 190.703C598.453 195.609 597.609 199.766 595.922 203.172C594.234 206.578 591.953 209.359 589.078 211.516C586.203 213.641 582.859 215.188 579.047 216.156C575.266 217.094 571.266 217.562 567.047 217.562C566.047 217.562 564.797 217.531 563.297 217.469C561.797 217.406 560.266 217.344 558.703 217.281C557.141 217.219 555.656 217.156 554.25 217.094C552.875 217.031 551.828 217 551.109 217V216.812C551.328 216.156 551.516 215.312 551.672 214.281C551.859 213.25 552 211.984 552.094 210.484C552.219 208.953 552.312 207.141 552.375 205.047C552.438 202.953 552.469 200.5 552.469 197.688V185.875C552.469 183.062 552.438 180.609 552.375 178.516C552.312 176.422 552.219 174.609 552.094 173.078C552 171.547 551.859 170.266 551.672 169.234C551.516 168.203 551.328 167.359 551.109 166.703V166.516ZM631.219 176.406H630.281C630.094 175.875 629.781 175.203 629.344 174.391C628.938 173.578 628.375 172.781 627.656 172C626.969 171.219 626.109 170.562 625.078 170.031C624.047 169.469 622.812 169.188 621.375 169.188C620.281 169.188 619.297 169.375 618.422 169.75C617.578 170.094 616.859 170.578 616.266 171.203C615.672 171.828 615.219 172.578 614.906 173.453C614.594 174.297 614.438 175.219 614.438 176.219C614.438 177.844 614.922 179.391 615.891 180.859C616.891 182.328 618.125 183.797 619.594 185.266C621.062 186.703 622.656 188.156 624.375 189.625C626.094 191.094 627.688 192.625 629.156 194.219C630.625 195.812 631.844 197.5 632.812 199.281C633.812 201.062 634.312 202.969 634.312 205C634.312 206.5 634.031 208.047 633.469 209.641C632.938 211.234 632.062 212.672 630.844 213.953C629.625 215.234 628.062 216.281 626.156 217.094C624.25 217.938 621.938 218.359 619.219 218.359C617.719 218.359 616.281 218.234 614.906 217.984C613.562 217.734 612.312 217.422 611.156 217.047C610.031 216.703 609.016 216.328 608.109 215.922C607.234 215.484 606.5 215.078 605.906 214.703L606.75 205.844H607.734C608.047 206.938 608.5 208.031 609.094 209.125C609.719 210.219 610.469 211.219 611.344 212.125C612.25 213 613.297 213.719 614.484 214.281C615.703 214.812 617.094 215.078 618.656 215.078C619.75 215.078 620.781 214.906 621.75 214.562C622.719 214.188 623.547 213.672 624.234 213.016C624.953 212.359 625.516 211.562 625.922 210.625C626.328 209.656 626.531 208.578 626.531 207.391C626.531 205.984 626.25 204.688 625.688 203.5C625.125 202.281 624.375 201.125 623.438 200.031C622.5 198.906 621.438 197.828 620.25 196.797C619.094 195.766 617.891 194.719 616.641 193.656C615.391 192.594 614.172 191.516 612.984 190.422C611.828 189.297 610.781 188.094 609.844 186.812C608.906 185.531 608.156 184.172 607.594 182.734C607.031 181.266 606.75 179.656 606.75 177.906C606.75 176.062 607.141 174.406 607.922 172.938C608.703 171.469 609.734 170.234 611.016 169.234C612.297 168.203 613.766 167.422 615.422 166.891C617.078 166.328 618.797 166.047 620.578 166.047C621.891 166.047 623.109 166.141 624.234 166.328C625.391 166.516 626.422 166.75 627.328 167.031C628.266 167.281 629.078 167.547 629.766 167.828C630.453 168.078 631.016 168.281 631.453 168.438L631.219 176.406Z" fill="black"/>
<g clip-path="url(#clip0_63_75)">
<path d="M686.188 217.447C687.402 236.457 688.382 252.729 688.549 254.474C683.524 259.409 663.785 257.957 659.957 256.99C659.085 229.801 658.578 210.353 657.997 197.581C657.89 195.233 655.754 167.901 655.367 159.773L674.398 123.707H684.847L712.699 163.984C713.907 169.497 716.715 182.879 718.407 190.919C720.21 197.006 733.278 244.996 734.728 251.573C730.62 255.492 713.927 258.829 705.142 256.282C698.369 228.042 682.669 166.858 682.667 166.858C683.732 179.794 685.06 199.8 686.188 217.447Z" fill="white"/>
<path d="M681.354 123.707H656.23C656.145 138.365 655.367 159.773 655.367 159.773C655.754 167.901 657.89 195.233 657.997 197.581C658.578 210.353 659.085 229.801 659.957 256.99C663.785 257.957 683.524 259.407 688.549 254.474C688.228 251.109 684.879 193.726 682.666 166.855C690.452 195.247 698.368 228.036 705.142 256.279C713.925 258.826 730.62 255.491 734.728 251.572C733.279 244.994 720.214 197 718.412 190.915C716.72 182.873 713.905 169.493 712.697 163.982C712.697 163.982 706.025 136.714 702.843 123.707H681.354Z" fill="white"/>
<path d="M705.631 32.6954C705.946 32.4223 706.316 32.2204 706.716 32.1034C707.116 31.9864 707.537 31.9571 707.949 32.0175C708.354 32.0745 708.741 32.2214 709.081 32.4475C709.421 32.6735 709.707 32.9729 709.916 33.3237C710.159 33.8082 710.297 34.3382 710.321 34.8794C710.498 36.9968 710.089 39.1219 709.139 41.0226C708.692 41.9835 708.042 42.8363 707.235 43.5227C706.579 44.0546 705.796 44.4073 704.963 44.5462L704.571 44.6076C704.385 45.3044 704.176 45.8916 704.073 46.2038C703.402 48.0253 699.601 54.3945 694.847 56.5733C694.894 57.8374 695.029 59.0968 695.25 60.3424C695.487 61.6989 695.412 62.9111 697.287 63.5923C697.411 63.6373 702.728 66.1825 702.917 66.2609L695.698 71.9103C691.978 72.671 688.188 73.0301 684.392 72.9814C681.164 73.033 677.948 72.5745 674.863 71.6229C674.857 71.6229 668.654 66.0519 668.654 66.0519C669.015 65.9278 674.944 63.1377 675.068 63.0926C676.943 62.4114 676.869 61.1986 677.105 59.8421C677.308 58.745 677.437 57.6358 677.493 56.5217C675.333 55.4262 673.43 53.882 671.914 51.9923C670.16 49.8405 668.88 47.3419 668.159 44.6605L667.418 44.5462C666.586 44.4074 665.804 44.0553 665.149 43.5241C664.341 42.8376 663.691 41.9848 663.244 41.0239C662.294 39.1233 661.885 36.9981 662.062 34.8808C662.087 34.3396 662.225 33.8096 662.467 33.325C662.677 32.9743 662.962 32.6749 663.302 32.4489C663.643 32.2229 664.029 32.0759 664.434 32.0188C664.846 31.9584 665.267 31.9876 665.667 32.1046C666.067 32.2216 666.437 32.4236 666.752 32.6967C666.752 32.6967 666.667 15.8353 685.971 15.8353C705.274 15.8353 705.631 32.6954 705.631 32.6954Z" fill="white"/>
<path d="M699.226 58.0618C703.543 58.0254 707.822 57.2523 711.878 55.7759C711.983 55.7375 712.076 55.6735 712.15 55.5897C712.223 55.506 712.274 55.4052 712.299 55.2966C712.323 55.1879 712.32 55.0749 712.29 54.9677C712.259 54.8606 712.203 54.7628 712.125 54.6832C709.577 52.0139 707.586 47.6296 706.859 43.7913C706.184 44.2564 705.397 44.5324 704.58 44.5907C704.39 45.3091 704.173 45.9198 704.068 46.2391C703.344 48.1998 698.98 55.4598 693.701 57.0377C695.456 57.7433 697.334 58.0915 699.226 58.0618Z" fill="#B5886A"/>
<path d="M663.245 41.024C663.692 41.9848 664.342 42.8376 665.149 43.5242C665.804 44.0561 666.587 44.4088 667.42 44.5476L668.142 44.6593C668.862 47.3534 670.146 49.8641 671.908 52.0257C674.119 54.6721 676.667 56.5133 679.48 57.316C677.86 57.5694 676.754 57.7444 676.754 57.7444C673.997 58.1794 667.019 57.875 664.611 56.8731C662.636 56.0509 660.537 55.0261 658.868 54.1679C658.821 54.1433 658.78 54.1071 658.751 54.0628C658.721 54.0184 658.703 53.9673 658.698 53.9142C658.693 53.861 658.702 53.8076 658.723 53.7587C658.745 53.7098 658.778 53.667 658.82 53.6344C660.379 52.3219 661.578 50.6351 662.307 48.7321C663.035 46.8292 663.267 44.7724 662.983 42.7548L663.245 41.024Z" fill="#B5886A"/>
<path d="M666.549 32.444C670.333 29.3554 677.872 24.5453 681.494 21.4306C681.196 23.2795 680.137 26.4243 681.471 26.101C687.041 24.8111 692.378 22.2097 695.597 18.1428C696.246 20.5741 697.129 22.9373 698.231 25.1997C699.433 27.257 702.928 32.0221 705.978 32.4336C706.565 32.0666 707.264 31.9193 707.949 32.0175C708.071 32.0351 708.191 32.0624 708.308 32.0992C709.941 28.2876 709.119 21.8401 708.467 18.6248C706.452 8.66939 696.503 0.766719 686.069 1.34407C675.634 0.766719 665.684 8.66939 663.667 18.6248C663.149 21.7447 663.155 24.929 663.683 28.0473L664.432 32.0175C664.845 31.9571 665.265 31.9863 665.665 32.1033C666.065 32.2203 666.435 32.4223 666.75 32.6955" fill="#B5886A"/>
<path d="M664.945 27.6998C664.474 25.1827 664.41 22.6062 664.757 20.0689C665.079 17.5764 665.921 15.1793 667.228 13.0329C669.946 8.48414 674.239 5.09193 679.293 3.5007C681.881 2.79707 684.563 2.50027 687.243 2.62096C689.846 2.64319 692.418 3.18452 694.809 4.21325C699.704 6.30986 703.658 10.1335 705.918 14.9563C706.962 17.4266 707.589 20.0528 707.775 22.7283C708.07 25.685 708.209 28.9133 707.066 31.7178C706.976 32.052 707.022 32.4082 707.193 32.709C707.364 33.0097 707.647 33.2309 707.98 33.3245C708.314 33.408 708.668 33.3596 708.967 33.1893C709.266 33.019 709.488 32.74 709.587 32.4101C710.708 29.6605 710.693 26.4602 710.464 23.5467C710.32 20.8586 709.826 18.2007 708.996 15.6401C706.959 10.0782 702.931 5.47041 697.69 2.70978C695.06 1.31151 692.186 0.431501 689.223 0.117577C687.783 0.00220539 686.338 -0.0342058 684.894 0.00850725C683.378 0.0205524 681.868 0.189522 680.387 0.512711C674.593 1.83678 669.486 5.24316 666.038 10.0847C664.157 12.6586 662.885 15.6271 662.322 18.7653C661.758 21.9537 661.794 25.2193 662.426 28.3948C662.789 30.0354 665.308 29.3411 664.945 27.6998Z" fill="#211715"/>
<path d="M694.425 18.7933C695.325 21.863 696.342 24.9424 698.221 27.5633C699.96 29.9903 702.32 32.9443 705.384 33.6536C707.017 34.0318 707.718 31.514 706.078 31.1346C704.887 30.7644 703.815 30.083 702.975 29.1608C701.977 28.186 701.075 27.1174 700.282 25.9697C698.629 23.6015 697.75 20.85 696.944 18.0991C696.472 16.4891 693.95 17.1743 694.425 18.7933Z" fill="#211715"/>
<path d="M694.735 17.1612C692.408 19.9412 689.398 22.0678 686 23.3318C685.127 23.6801 684.239 23.9875 683.339 24.254C682.865 24.3955 682.389 24.5277 681.91 24.6504C681.688 24.6832 681.469 24.7368 681.257 24.8105C680.924 24.8714 681.085 24.915 681.739 24.9411L682.13 25.4205C682.085 25.4126 682.119 25.3271 682.121 25.2526C682.121 25.1168 682.132 24.9816 682.146 24.8464C682.178 24.5453 682.245 24.2468 682.305 23.9503C682.454 23.226 682.632 22.5076 682.754 21.7781C682.821 21.5021 682.797 21.2119 682.685 20.9506C682.574 20.6894 682.381 20.4712 682.136 20.3284C681.89 20.1856 681.605 20.126 681.323 20.1583C681.041 20.1906 680.777 20.3132 680.57 20.5077C675.863 24.5296 670.431 27.6201 665.626 31.5212C665.383 31.7672 665.247 32.099 665.247 32.4447C665.247 32.7904 665.383 33.1222 665.626 33.3682C665.874 33.606 666.205 33.7387 666.549 33.7387C666.893 33.7387 667.224 33.606 667.473 33.3682C672.278 29.4672 677.707 26.3799 682.418 22.3554L680.236 21.0838C679.968 22.6598 679.125 24.6256 679.648 26.2127C679.794 26.6454 680.101 27.0055 680.505 27.2191C680.909 27.4326 681.379 27.4834 681.819 27.3609C682.963 27.121 684.088 26.8015 685.187 26.4047C689.497 24.9391 693.702 22.6166 696.582 19.0082C696.818 18.7585 696.949 18.4281 696.949 18.0847C696.949 17.7413 696.818 17.4109 696.582 17.1612C696.336 16.9184 696.005 16.7822 695.659 16.7822C695.313 16.7822 694.981 16.9184 694.735 17.1612Z" fill="#211715"/>
<path d="M706.556 33.619C706.718 33.492 706.903 33.3986 707.101 33.3443C707.299 33.2899 707.506 33.2758 707.71 33.3026C707.914 33.3295 708.11 33.3968 708.287 33.5006C708.465 33.6044 708.619 33.7426 708.742 33.9071C708.989 34.4198 709.096 34.9882 709.055 35.5555C709.078 36.2279 709.032 36.9009 708.917 37.5638C708.481 39.951 707.27 42.8129 704.618 43.2884C704.285 43.3825 704.003 43.6038 703.832 43.9044C703.661 44.205 703.615 44.5608 703.704 44.895C703.802 45.2253 704.024 45.5049 704.323 45.6753C704.622 45.8457 704.976 45.8938 705.31 45.8094C709.38 45.0799 711.323 40.4852 711.629 36.7964C711.786 34.8965 711.629 32.7341 709.987 31.5062C709.207 30.9441 708.259 30.6645 707.299 30.7137C706.34 30.7628 705.425 31.1378 704.707 31.7766C704.465 32.0228 704.329 32.3545 704.329 32.7001C704.329 33.0457 704.465 33.3774 704.707 33.6236C704.956 33.862 705.287 33.9951 705.631 33.9951C705.975 33.9951 706.306 33.862 706.554 33.6236L706.556 33.619Z" fill="#211715"/>
<path d="M703.628 42.391C703.553 43.397 703.339 44.3879 702.992 45.3352C702.951 45.4606 702.669 46.2104 702.836 45.825C702.746 46.0321 702.649 46.2358 702.548 46.437C701.929 47.6407 701.213 48.7919 700.407 49.8789C698.545 52.4332 696.016 55.1397 692.827 55.8875C691.194 56.2716 691.884 58.7913 693.521 58.4072C697.344 57.5099 700.309 54.3854 702.558 51.3406C704.5 48.7118 706.105 45.7323 706.24 42.3929C706.306 40.7118 703.693 40.7151 703.628 42.3929V42.391Z" fill="#211715"/>
<path d="M667.676 31.772C666.958 31.1335 666.044 30.7588 665.084 30.7096C664.125 30.6605 663.177 30.9398 662.397 31.5016C660.753 32.7275 660.597 34.8978 660.755 36.7919C661.062 40.4806 663.003 45.0759 667.074 45.8048C667.408 45.8872 667.76 45.8383 668.059 45.6681C668.358 45.498 668.581 45.2196 668.68 44.8905C668.769 44.5562 668.723 44.2004 668.552 43.8998C668.381 43.5992 668.099 43.3779 667.766 43.2838C665.113 42.8083 663.902 39.9457 663.466 37.5593C663.358 36.934 663.311 36.2996 663.327 35.6652C663.286 35.0908 663.377 34.5144 663.594 33.9809C663.71 33.8023 663.862 33.65 664.04 33.5336C664.219 33.4173 664.42 33.3394 664.63 33.305C664.84 33.2707 665.055 33.2806 665.261 33.3341C665.467 33.3876 665.66 33.4835 665.827 33.6158C666.076 33.8525 666.407 33.9845 666.75 33.9845C667.094 33.9845 667.425 33.8525 667.674 33.6158C667.916 33.3696 668.052 33.0378 668.052 32.6923C668.052 32.3467 667.916 32.015 667.674 31.7688L667.676 31.772Z" fill="#211715"/>
<path d="M666.278 42.2283C666.891 46.189 668.55 49.9145 671.082 53.021C673.786 56.2213 677.367 58.5346 681.583 58.9898C681.929 58.9878 682.26 58.8495 682.505 58.605C682.749 58.3605 682.887 58.0294 682.889 57.6836C682.882 57.3395 682.742 57.0116 682.499 56.7683C682.255 56.5249 681.927 56.3849 681.583 56.3774C677.987 55.9888 674.983 53.6807 672.752 50.9611C670.549 48.2762 669.388 44.9153 668.797 41.5341C668.703 41.2012 668.482 40.9186 668.181 40.7475C667.881 40.5764 667.525 40.5305 667.191 40.6197C666.86 40.7178 666.581 40.9397 666.41 41.2392C666.24 41.5386 666.192 41.8923 666.276 42.2264L666.278 42.2283Z" fill="#211715"/>
<path d="M661.725 43.1054C661.93 44.7953 661.732 46.5096 661.148 48.1085C660.564 49.7074 659.61 51.1454 658.364 52.3052C658.117 52.4688 657.905 52.6809 657.743 52.9286C657.58 53.1764 657.469 53.4547 657.417 53.7466C657.394 54.0966 657.48 54.4451 657.663 54.7443C657.847 55.0434 658.118 55.2785 658.44 55.4173C659.602 56.0665 660.838 56.6164 662.048 57.1696C663.012 57.6562 664.013 58.0663 665.042 58.3961C666.92 58.8562 668.841 59.1163 670.773 59.172C672.883 59.3344 675.004 59.2795 677.103 59.0081C677.436 58.9144 677.719 58.6932 677.89 58.3925C678.061 58.0917 678.107 57.7357 678.017 57.4014C677.918 57.0717 677.696 56.7929 677.396 56.6226C677.097 56.4524 676.744 56.4039 676.41 56.4871C676.152 56.5263 675.423 56.5811 674.945 56.6027C674.247 56.6334 673.547 56.6392 672.848 56.6301C671.324 56.6142 669.803 56.5194 668.289 56.346C667.173 56.2483 666.074 56.0104 665.018 55.638C664.089 55.2775 663.185 54.8347 662.286 54.4076C661.851 54.1994 661.415 53.988 660.98 53.7734C660.522 53.6108 660.084 53.3977 659.674 53.1379L660.009 53.7146L659.96 53.5709V54.2652C659.91 54.5846 660.287 54.0823 660.393 53.9798C660.602 53.7786 660.802 53.5701 660.994 53.3541C661.342 52.9602 661.669 52.5484 661.974 52.1204C662.633 51.1787 663.17 50.1569 663.57 49.0795C664.363 46.9504 664.596 44.6535 664.247 42.4086C664.154 42.0753 663.933 41.7923 663.632 41.6211C663.331 41.4499 662.975 41.4043 662.641 41.4942C662.311 41.5934 662.032 41.8155 661.862 42.1147C661.692 42.4138 661.643 42.7669 661.726 43.1009L661.725 43.1054Z" fill="#211715"/>
<path d="M705.271 41.4904C705.451 44.0975 706.074 46.6548 707.115 49.0521C707.638 50.327 708.266 51.556 708.993 52.7265C709.354 53.2986 709.745 53.8479 710.16 54.3815C710.351 54.6258 710.544 54.8687 710.748 55.1032C710.846 55.2173 710.947 55.3303 711.05 55.4422C711.531 54.702 711.547 54.4444 711.099 54.6695C710.47 54.8138 709.854 55.0104 709.258 55.2573C708.605 55.4476 707.947 55.6218 707.283 55.7798C705.938 56.1058 704.575 56.3562 703.202 56.5296C700.645 56.9297 698.036 56.8497 695.508 56.2938C693.88 55.8713 693.185 58.3903 694.814 58.8129C699.353 59.9885 704.391 59.2446 708.856 58.0801C710.514 57.6477 714.877 56.8477 713.371 54.1862C713.073 53.7608 712.739 53.3616 712.373 52.993C712.017 52.5535 711.686 52.094 711.383 51.6169C710.77 50.6634 710.228 49.666 709.762 48.6328C708.705 46.3872 708.069 43.9668 707.885 41.4917C707.791 39.8197 705.179 39.8092 705.273 41.4917L705.271 41.4904Z" fill="#211715"/>
<path d="M665.528 40.3271C666.103 40.4792 666.628 40.7794 667.051 41.1977C667.524 41.7065 667.844 42.3384 667.974 43.0207C668.104 43.703 668.038 44.4081 667.785 45.055C667.473 45.9049 666.854 46.6071 666.05 47.0231C665.246 47.439 664.315 47.5386 663.441 47.3021C662.567 47.0656 661.813 46.5102 661.328 45.7455C660.844 44.9807 660.663 44.0621 660.822 43.1708C660.967 42.2576 661.45 41.4321 662.174 40.8574C662.656 40.5191 663.208 40.2954 663.79 40.2035C664.371 40.1116 664.966 40.1538 665.528 40.3271Z" fill="white"/>
<path d="M705.085 40.6426C704.412 40.8441 703.816 41.2454 703.377 41.7934C703.006 42.2655 702.761 42.8235 702.663 43.4157C702.566 44.0078 702.619 44.615 702.818 45.1811C703.064 46.0022 703.61 46.7007 704.347 47.1376C705.084 47.5745 705.959 47.7177 706.797 47.5388C707.635 47.3599 708.375 46.8719 708.87 46.172C709.365 45.4721 709.578 44.6117 709.466 43.7619C709.447 43.2427 709.308 42.7351 709.061 42.278C708.814 41.8209 708.466 41.4265 708.042 41.1252C707.619 40.8239 707.132 40.6237 706.62 40.54C706.107 40.4564 705.582 40.4915 705.085 40.6426Z" fill="white"/>
<path d="M665.181 41.5863C665.259 41.6092 665.489 41.7313 665.556 41.7124C665.459 41.7404 665.326 41.5987 665.486 41.6843C665.574 41.7319 665.663 41.7737 665.748 41.824C665.844 41.8783 665.936 41.9392 666.023 42.0063C665.842 41.8613 666.009 42.0063 666.035 42.0324C666.108 42.1134 666.188 42.1911 666.263 42.2708C666.355 42.3824 666.35 42.374 666.246 42.2459C666.285 42.3015 666.323 42.3583 666.359 42.4158C666.407 42.4928 666.625 42.9533 666.504 42.6515C666.568 42.8117 666.621 42.976 666.663 43.1433C666.699 43.2416 666.721 43.3442 666.729 43.4483C666.752 43.1263 666.723 43.4392 666.729 43.5136C666.751 43.7223 666.745 43.933 666.71 44.14C666.791 43.799 666.657 44.3235 666.632 44.4078C666.608 44.5104 666.573 44.6101 666.528 44.7056C666.697 44.4006 666.528 44.6775 666.499 44.7356C666.442 44.8844 666.357 45.0208 666.248 45.1373L666.337 45.0249C666.297 45.0746 666.256 45.1236 666.214 45.1712C666.15 45.2431 666.085 45.3123 666.018 45.3789C665.949 45.4442 665.876 45.5095 665.805 45.5749C665.569 45.7884 666.034 45.439 665.762 45.6042C665.624 45.6878 665.492 45.7786 665.348 45.8537C665.288 45.8851 665.021 46.0569 665.308 45.8844C665.25 45.9116 665.189 45.9335 665.127 45.9497C665.035 45.9818 664.942 46.0098 664.848 46.034C664.811 46.0438 664.434 46.1424 664.639 46.0869C664.844 46.0314 664.554 46.0941 664.522 46.096C664.423 46.1019 664.326 46.1045 664.227 46.1026C664.144 46.1026 664.062 46.0908 663.979 46.0876C663.783 46.0804 664.289 46.1672 663.979 46.0836C663.797 46.034 663.619 45.985 663.438 45.9262C663.258 45.8675 663.7 46.0771 663.438 45.9191C663.328 45.8537 663.214 45.7976 663.106 45.7231C663.087 45.7107 662.856 45.5207 663.009 45.6578C663.162 45.795 662.94 45.5925 662.928 45.5788C662.862 45.5135 662.797 45.4482 662.732 45.3828C662.719 45.3691 662.51 45.1484 662.656 45.3038C662.802 45.4593 662.61 45.2385 662.595 45.2143C662.544 45.1386 662.496 45.0609 662.45 44.9812C662.412 44.9159 662.38 44.8466 662.343 44.7807C662.18 44.49 662.393 44.9622 662.312 44.7186C662.264 44.5756 662.214 44.4352 662.177 44.2889C662.155 44.202 662.14 44.1145 662.12 44.0276C662.05 43.7279 662.134 44.33 662.12 44.0244C662.112 43.8794 662.101 43.7357 662.104 43.5894C662.104 43.5032 662.113 43.4183 662.119 43.3321C662.137 43.0512 662.041 43.6279 662.13 43.2935C662.158 43.191 662.178 43.0878 662.21 42.9866L662.241 42.8893C662.293 42.7508 662.286 42.7628 662.218 42.9252C662.214 42.9252 662.419 42.5333 662.429 42.5176C662.473 42.4451 662.523 42.3766 662.568 42.3047C662.683 42.1212 662.527 42.3602 662.502 42.3805C662.615 42.2832 662.702 42.1428 662.809 42.0369C662.875 41.9716 662.944 41.9129 663.012 41.8508C663.03 41.8338 663.051 41.8208 663.069 41.8038C662.729 42.1173 662.847 41.9651 663.039 41.8397C663.135 41.7744 663.235 41.7235 663.336 41.6653C663.628 41.4968 663.115 41.7254 663.425 41.6235C663.523 41.5909 663.621 41.5582 663.722 41.5314C663.76 41.5216 664.144 41.4204 663.936 41.4779C663.728 41.5354 664.007 41.472 664.043 41.4694C664.16 41.4609 664.278 41.4576 664.395 41.4596C664.552 41.4596 664.707 41.487 664.863 41.4916C664.421 41.4785 664.807 41.4916 664.939 41.5177C665.023 41.5367 665.107 41.5582 665.191 41.583C665.356 41.6286 665.529 41.6412 665.699 41.62C665.869 41.5988 666.034 41.5443 666.183 41.4596C666.332 41.3749 666.463 41.2616 666.569 41.1262C666.674 40.9908 666.752 40.836 666.797 40.6706C666.843 40.5052 666.855 40.3325 666.834 40.1622C666.813 39.992 666.759 39.8275 666.674 39.6783C666.589 39.5291 666.476 39.3981 666.34 39.2927C666.205 39.1873 666.05 39.1096 665.885 39.064C665.068 38.8142 664.201 38.7743 663.365 38.948C662.528 39.1218 661.749 39.5035 661.1 40.058C660.41 40.6906 659.912 41.5051 659.665 42.4078C659.417 43.3105 659.429 44.2647 659.7 45.1608C659.988 46.1893 660.606 47.0945 661.46 47.7369C662.313 48.3792 663.354 48.7229 664.422 48.715C665.287 48.7001 666.133 48.4617 666.878 48.023C667.623 47.5843 668.242 46.9602 668.675 46.2114C669.107 45.4626 669.339 44.6147 669.346 43.75C669.354 42.8853 669.138 42.0332 668.719 41.2767C668.414 40.7397 668.006 40.2683 667.518 39.8897C667.03 39.5111 666.472 39.2327 665.876 39.0705C665.542 38.9784 665.185 39.0228 664.883 39.194C664.582 39.3651 664.361 39.6489 664.269 39.9829C664.177 40.317 664.221 40.6739 664.393 40.9752C664.564 41.2765 664.847 41.4975 665.181 41.5896V41.5863Z" fill="#211715"/>
<path d="M704.737 39.3827C703.74 39.6884 702.867 40.3076 702.249 41.1483C701.632 41.989 701.301 43.0065 701.307 44.0499C701.344 45.107 701.715 46.1252 702.367 46.9583C703.019 47.7914 703.917 48.3966 704.935 48.687C705.934 48.9802 707.004 48.9157 707.96 48.5046C708.917 48.0936 709.7 47.3616 710.175 46.435C710.566 45.6859 710.768 44.8532 710.765 44.0084C710.763 43.1637 710.555 42.3322 710.16 41.5857C709.632 40.6659 708.811 39.9492 707.829 39.5496C706.846 39.15 705.759 39.0906 704.739 39.3808C704.573 39.4264 704.418 39.5041 704.283 39.6096C704.148 39.715 704.035 39.8461 703.95 39.9954C703.865 40.1446 703.811 40.309 703.79 40.4793C703.768 40.6496 703.781 40.8223 703.827 40.9877C703.872 41.1531 703.95 41.3079 704.055 41.4433C704.161 41.5786 704.292 41.6919 704.441 41.7766C704.59 41.8613 704.755 41.9158 704.925 41.9369C705.095 41.958 705.268 41.9454 705.434 41.8998C705.559 41.8639 705.695 41.8547 705.817 41.8182C705.39 41.9488 705.701 41.8325 705.859 41.8247C706.048 41.817 706.238 41.8207 706.426 41.8358C706.682 41.8534 706.353 41.8234 706.349 41.8254C706.383 41.8032 706.591 41.8763 706.63 41.8861C706.728 41.9116 706.826 41.9442 706.919 41.9756C707.145 42.05 706.942 41.988 706.899 41.9658C706.998 42.0174 707.095 42.0657 707.192 42.1238C707.224 42.1434 707.519 42.3674 707.305 42.1891C707.479 42.3053 707.629 42.4547 707.745 42.6287C707.627 42.357 707.719 42.5986 707.767 42.6724C707.8 42.7234 707.832 42.7756 707.862 42.8285C707.906 42.9043 707.942 42.9833 707.984 43.0604C708.123 43.3216 707.893 42.7815 707.979 43.0493C708.055 43.282 708.117 43.5188 708.166 43.7586C708.212 43.98 708.131 43.3948 708.146 43.5999C708.146 43.6358 708.153 43.6717 708.156 43.7076C708.164 43.8082 708.168 43.9094 708.168 44.01C708.145 44.1501 708.137 44.2921 708.142 44.4339L708.165 44.2575C708.156 44.315 708.145 44.3718 708.134 44.4287C708.113 44.5292 708.088 44.6285 708.061 44.7271C708.041 44.7983 708.019 44.8682 707.996 44.9381L707.966 45.0217C707.914 45.1523 707.924 45.1327 707.996 44.9564C708.004 45.0459 707.836 45.2777 707.791 45.3528C707.746 45.4279 707.693 45.503 707.644 45.5788C707.485 45.8257 707.786 45.4299 707.655 45.5625C707.54 45.68 707.394 45.9151 707.236 45.9739C707.475 45.8851 707.34 45.8936 707.24 45.9583C707.175 46.0007 707.109 46.0405 707.041 46.0778L706.957 46.1215C706.827 46.1821 706.844 46.1768 707.008 46.1059C706.938 46.143 706.863 46.1688 706.785 46.1823C706.71 46.2051 706.635 46.2247 706.56 46.2417L706.469 46.26C706.323 46.2842 706.348 46.2809 706.543 46.2515C706.501 46.3129 706.06 46.2567 705.997 46.2554C705.686 46.2489 706.288 46.3207 705.984 46.2554C705.924 46.243 705.865 46.2319 705.806 46.2175C705.624 46.1888 705.448 46.1322 705.283 46.0497C705.523 46.2058 705.414 46.1085 705.345 46.0686C705.266 46.0236 705.183 45.985 705.103 45.938C705.023 45.891 704.946 45.8427 704.871 45.7911C704.833 45.7656 704.795 45.7395 704.759 45.712C704.681 45.6546 704.709 45.6763 704.843 45.7773C704.718 45.7486 704.53 45.4926 704.446 45.4005C704.439 45.392 704.33 45.2888 704.327 45.2633L704.419 45.3855C704.383 45.3371 704.348 45.2882 704.314 45.2385C704.23 45.1131 704.163 44.9773 704.088 44.8506C703.935 44.5893 704.164 45.121 704.076 44.8349C704.035 44.7004 703.988 44.5697 703.957 44.4326C703.934 44.3658 703.921 44.2965 703.916 44.2262C703.938 44.4006 703.942 44.4117 703.927 44.2608C703.922 44.1909 703.919 44.121 703.918 44.0512C703.918 43.963 703.918 43.8755 703.926 43.7899C703.926 43.7377 703.933 43.6848 703.939 43.6325C703.914 43.8067 703.914 43.8182 703.939 43.6671C703.992 43.4614 704.043 43.2609 704.114 43.0597C704.011 43.3536 704.129 43.0395 704.156 42.9872C704.214 42.8782 704.277 42.7723 704.346 42.6698C704.386 42.6111 704.542 42.4458 704.372 42.63C704.472 42.5196 704.58 42.419 704.682 42.3119C704.905 42.0755 704.539 42.3975 704.694 42.293C704.782 42.2329 704.87 42.1709 704.962 42.116C705.033 42.0742 705.105 42.0344 705.178 41.9978C705.332 41.9201 705.392 41.9717 705.121 42.0135C705.226 41.984 705.329 41.9477 705.43 41.905C705.595 41.8594 705.75 41.7816 705.885 41.6762C706.021 41.5707 706.134 41.4397 706.219 41.2904C706.303 41.1412 706.358 40.9768 706.379 40.8065C706.4 40.6362 706.387 40.4635 706.342 40.2981C706.296 40.1326 706.218 39.9779 706.113 39.8425C706.007 39.7071 705.876 39.5939 705.727 39.5092C705.578 39.4245 705.413 39.37 705.243 39.3489C705.073 39.3277 704.9 39.3404 704.735 39.386L704.737 39.3827Z" fill="#211715"/>
<path d="M669.759 258.829C665.206 263.662 661.637 267.319 657.304 272.352C656.134 273.575 655.172 274.982 654.456 276.516C654.105 277.287 653.941 278.131 653.978 278.977C654.015 279.823 654.252 280.649 654.668 281.387C656.372 283.999 660.285 283.726 663.238 282.706C667.498 281.234 671.393 278.879 675.163 276.41C678.472 274.242 681.824 271.851 683.75 268.394C685.675 264.937 684.341 262.152 684.122 257.861" fill="white"/>
<path d="M732.452 253.749C733.758 256.506 735.602 261.868 738.021 265.509C740.485 269.218 742.588 273.154 744.302 277.265C745.192 279.402 745.962 281.902 744.883 283.951C743.838 285.937 741.361 286.76 739.117 286.69C735.879 286.587 732.414 283.661 729.974 281.53C726.651 278.627 721.398 271.911 720.818 269.768C720.51 268.341 720.325 266.889 720.264 265.43C719.901 261.615 719.734 259.588 719.441 257.247" fill="white"/>
<path d="M676.17 56.8998C676.111 57.7405 676.009 58.5776 675.864 59.4078C675.799 59.9476 675.703 60.4832 675.575 61.0118C675.556 61.0772 675.435 61.3678 675.51 61.2182C675.591 61.0517 675.418 61.3586 675.392 61.4037C675.279 61.5996 675.377 61.4129 675.413 61.3782C675.363 61.4266 675.311 61.4795 675.265 61.5291C675.228 61.569 675.079 61.6643 675.265 61.5376C675.2 61.584 675.128 61.629 675.057 61.6682C674.817 61.808 674.552 61.8994 674.222 62.0503C672.743 62.7295 671.272 63.4271 669.794 64.1109C669.412 64.2885 669.028 64.4649 668.644 64.6399L668.233 64.8247C667.907 64.9723 668.538 64.7098 668.311 64.7914C667.982 64.8907 667.703 65.113 667.533 65.4122C667.362 65.7114 667.314 66.0647 667.397 66.3987C667.491 66.7316 667.712 67.0142 668.013 67.1853C668.313 67.3564 668.669 67.4023 669.003 67.3131C669.619 67.0917 670.214 66.7841 670.807 66.5098C671.705 66.0957 672.602 65.679 673.498 65.2597C674.173 64.9442 674.846 64.6268 675.522 64.3159C675.582 64.2879 675.646 64.263 675.705 64.2323C675.764 64.2017 675.402 64.3538 675.416 64.3538C675.514 64.3287 675.608 64.2912 675.697 64.2421C675.948 64.1453 676.192 64.0289 676.426 63.894C677.125 63.4718 677.665 62.8305 677.962 62.0699C678.156 61.4955 678.285 60.9012 678.348 60.298C678.532 59.1701 678.703 58.0421 678.78 56.9018C678.777 56.5563 678.638 56.2259 678.394 55.9816C678.15 55.7373 677.819 55.5986 677.474 55.5956C677.129 55.6019 676.801 55.7416 676.557 55.9852C676.313 56.2288 676.174 56.5574 676.167 56.9018L676.17 56.8998Z" fill="#211715"/>
<path d="M693.559 56.8998C693.65 58.5367 693.853 60.1653 694.169 61.774C694.3 62.466 694.613 63.1107 695.076 63.6421C695.538 64.1735 696.134 64.5726 696.801 64.7986C697.219 64.9658 696.443 64.6248 696.741 64.7705C696.839 64.8188 696.937 64.8639 697.04 64.9102L697.979 65.3557C698.827 65.7589 699.675 66.1625 700.522 66.5665C701.101 66.8422 701.674 67.1374 702.263 67.3901C702.565 67.5538 702.918 67.5964 703.249 67.5095C703.581 67.4225 703.868 67.2124 704.05 66.9218C704.223 66.6221 704.271 66.2665 704.183 65.932C704.095 65.5974 703.879 65.3108 703.582 65.1343C702.333 64.5987 701.118 63.9665 699.891 63.3826C699.296 63.0992 698.703 62.8092 698.102 62.5336C697.722 62.3592 697.523 62.2867 697.2 62.1038C697.187 62.096 697.027 61.9791 697.141 62.0686C697.255 62.158 697.088 62.015 697.061 61.9902C697.023 61.9543 696.989 61.9138 696.952 61.8765C696.988 61.9118 697.086 62.0992 696.972 61.902C696.925 61.8204 696.881 61.7263 696.828 61.6486C696.958 61.8367 696.878 61.7936 696.848 61.6943C696.829 61.6329 696.807 61.5722 696.788 61.5101C696.647 60.9218 696.54 60.3255 696.469 59.7245C696.317 58.7888 696.218 57.8453 696.172 56.8985C696.164 56.5544 696.024 56.2264 695.781 55.983C695.538 55.7396 695.21 55.5996 694.866 55.5923C694.52 55.5955 694.19 55.7342 693.945 55.9784C693.701 56.2227 693.563 56.5531 693.559 56.8985V56.8998Z" fill="#211715"/>
<path d="M685.487 109.743C686.692 105.057 689.691 93.2645 690.217 90.688C692.454 79.7405 695.817 73.7724 698.055 62.8223C702.962 64.8972 708.821 66.737 713.39 69.4762C715.034 70.4856 716.255 72.0583 716.825 73.901C718.53 80.2941 719.823 86.79 720.695 93.3488C721.259 97.2191 723.889 108.54 722.873 114.346C720.587 114.051 717.593 113.758 714.86 113.576C714.729 120.899 714.505 132.788 714.505 132.788C714.853 136.699 715.201 141.632 715.471 145.549C715.885 151.553 717.025 157.784 717.369 163.332C717.374 163.414 717.361 163.495 717.331 163.571C717.301 163.647 717.255 163.715 717.196 163.771C717.137 163.827 717.066 163.87 716.988 163.895C716.911 163.921 716.829 163.93 716.748 163.92C714.765 163.626 712.765 163.453 710.76 163.402C704.345 164.125 697.788 164.242 694.48 164.505C694.301 164.52 694.123 164.467 693.981 164.357C693.838 164.247 693.743 164.088 693.712 163.91C691.986 154.252 687.681 135.823 685.427 123.054C684.663 118.72 683.916 115.747 685.036 111.491C685.111 111.204 685.27 110.59 685.487 109.743Z" fill="white"/>
<path d="M674.435 64.2748C674.421 63.8869 674.408 63.4994 674.398 63.1123C670.544 64.621 667.073 65.5223 663.222 67.031C661.436 67.7305 658.786 69.3907 657.652 70.9372C656.471 72.9295 655.546 75.0632 654.901 77.2875C653.283 84.6095 651.755 88.8822 650.257 95.478C649.12 100.479 646.192 107.088 646.676 113.765C649.681 113.765 655.928 113.482 659.75 113.153L659.739 113.33C659.132 122.809 658.824 132.094 658.927 138.17C663.862 137.896 668.39 137.674 670.796 137.593C670.854 137.151 670.896 136.842 670.896 136.842C672.747 122.734 675.419 108.34 675.589 106.733C676.259 100.412 676.083 94.0346 675.907 87.6805C675.694 80.0103 674.721 71.9803 674.435 64.2748Z" fill="white"/>
<path d="M673.004 122.449C674.314 114.206 675.478 107.776 675.589 106.734C676.259 100.412 676.083 94.0352 675.907 87.6811C675.761 82.4241 675.258 76.9981 674.866 71.6243C677.951 72.5758 681.167 73.0343 684.395 72.9827C688.192 73.0314 691.982 72.6723 695.701 71.9116C693.83 77.9764 691.757 83.1537 690.215 90.688C689.594 93.7302 685.525 109.621 685.033 111.49C683.914 115.747 684.661 118.72 685.425 123.054C685.464 123.271 685.502 123.489 685.542 123.707H672.806C672.873 123.283 672.939 122.864 673.004 122.449Z" fill="#752293"/>
<path d="M668.835 257.905C665.023 261.954 661.162 265.956 657.498 270.14C655.711 272.182 653.613 274.311 652.919 277.017C652.3 279.434 652.904 282.039 654.978 283.548C656.765 284.855 659.144 284.889 661.241 284.554C663.728 284.044 666.125 283.163 668.351 281.942C670.883 280.644 673.336 279.2 675.699 277.616C677.864 276.274 679.898 274.731 681.772 273.006C683.764 271.081 685.574 268.648 685.968 265.843C686.342 263.18 685.58 260.513 685.428 257.858C685.332 256.187 682.719 256.176 682.816 257.858C682.94 260.023 683.464 262.169 683.469 264.337C683.403 266.339 682.62 268.25 681.264 269.724C679.77 271.431 678.051 272.927 676.155 274.173C674.118 275.579 672.023 276.916 669.878 278.153C667.742 279.418 665.496 280.487 663.168 281.347C661.493 281.942 659.569 282.41 657.798 281.985C657.377 281.898 656.977 281.727 656.624 281.482C656.27 281.236 655.97 280.922 655.742 280.557C655.513 280.192 655.361 279.785 655.294 279.36C655.227 278.935 655.247 278.501 655.353 278.084C655.775 275.759 657.652 273.925 659.145 272.215C662.867 267.948 666.8 263.871 670.682 259.75C671.835 258.526 669.991 256.675 668.835 257.902V257.905Z" fill="#211715"/>
<path d="M731.324 254.408C732.287 256.46 733.081 258.588 734.002 260.661C735.125 263.097 736.422 265.448 737.883 267.697C739.522 270.312 740.986 273.031 742.267 275.839C743.221 277.934 745.036 281.221 743.649 283.487C742.547 285.287 739.842 285.704 737.952 285.192C735.47 284.52 733.347 282.72 731.439 281.074C728.246 278.283 725.466 275.052 723.181 271.479C722.92 271.076 722.672 270.668 722.446 270.246C722.363 270.093 722.285 269.937 722.209 269.78C722.186 269.732 722.11 269.54 722.204 269.78C722.18 269.718 722.153 269.656 722.134 269.592C721.778 268.073 721.575 266.522 721.53 264.963C721.287 262.389 721.072 259.812 720.751 257.246C720.741 256.903 720.6 256.577 720.357 256.334C720.114 256.091 719.788 255.95 719.445 255.94C719.099 255.942 718.768 256.08 718.524 256.325C718.279 256.569 718.141 256.9 718.139 257.246C718.444 259.712 718.656 262.188 718.889 264.661C719.122 267.134 719.101 269.67 720.368 271.884C721.544 273.839 722.88 275.694 724.361 277.43C725.786 279.229 727.356 280.909 729.054 282.453C731.251 284.388 733.569 286.318 736.321 287.399C737.563 287.89 738.902 288.087 740.233 287.974C741.564 287.86 742.85 287.44 743.991 286.746C746.677 284.988 747.126 281.887 746.301 278.969C745.422 275.872 743.819 272.856 742.285 270.042C740.631 267.01 738.572 264.221 737.072 261.106C735.806 258.477 734.821 255.727 733.583 253.087C732.869 251.567 730.616 252.891 731.327 254.406L731.324 254.408Z" fill="#211715"/>
<path d="M695.354 70.6525C691.946 71.376 688.468 71.7186 684.984 71.674C683.302 71.7142 681.619 71.6306 679.949 71.4238C679.109 71.3069 678.276 71.1371 677.45 70.9445C676.611 70.6447 675.743 70.4348 674.86 70.3181C673.179 70.3181 673.176 72.9306 674.86 72.9306C674.995 72.9306 675.672 73.197 675.954 73.2682C676.392 73.3793 676.83 73.4844 677.272 73.5804C678.121 73.7659 678.982 73.9109 679.846 74.0239C681.631 74.2382 683.429 74.3255 685.226 74.2851C688.863 74.3106 692.492 73.9383 696.048 73.1748C697.681 72.7895 696.991 70.2698 695.354 70.6558V70.6525Z" fill="#211715"/>
<path d="M714.687 131.14C715.144 130.203 715.727 129.149 716.487 127.771C717.254 126.381 716.944 124.957 717.212 124.069C718.041 121.326 718.805 117.44 719.389 114.636C719.389 114.636 719.442 114.386 719.53 113.967C716.632 113.677 713.416 113.444 711.045 113.403C710.952 113.775 710.899 113.983 710.899 113.983C710.22 116.614 709.992 120.213 709.312 122.844C709.283 123.035 709.196 123.213 709.063 123.353C708.891 123.5 708.638 123.453 708.417 123.503C705.002 124.163 701.858 125.814 699.376 128.251C704.43 129.81 709.061 131.133 714.032 132.645C714.215 132.156 714.431 131.668 714.687 131.14Z" fill="white"/>
<path d="M674.05 61.8531C671.687 62.7707 669.273 63.5349 666.87 64.3388C664.705 64.9687 662.609 65.8142 660.613 66.8625C658.906 67.7444 657.434 69.0206 656.318 70.5852C655.511 71.9675 654.838 73.4236 654.307 74.9336C653.717 76.6669 653.24 78.4364 652.878 80.231C652.369 82.3066 651.81 84.3692 651.245 86.4297C650.147 90.4255 649.275 94.4898 648.101 98.462C646.629 103.445 645.032 108.5 645.374 113.765C645.482 115.434 648.095 115.446 647.986 113.765C647.693 109.231 648.914 104.863 650.2 100.562C651.362 96.6836 652.229 92.7329 653.296 88.8273C653.819 86.9202 654.35 85.0157 654.847 83.1021C655.36 81.1278 655.716 79.0914 656.297 77.1386C656.73 75.7452 657.279 74.3907 657.938 73.0892C658.565 71.781 659.535 70.6678 660.746 69.8687C662.73 68.6208 664.878 67.6574 667.129 67.0068C669.676 66.146 672.24 65.3479 674.745 64.3741C675.074 64.2738 675.352 64.0514 675.522 63.7524C675.692 63.4535 675.741 63.1008 675.659 62.7668C675.566 62.4337 675.345 62.1509 675.044 61.9798C674.743 61.8086 674.387 61.7629 674.053 61.8524L674.05 61.8531Z" fill="#211715"/>
<path d="M697.707 64.0815C702.076 65.92 706.62 67.3719 710.84 69.5539C712.528 70.4265 714.101 71.3337 715.067 73.0363C715.539 74.0393 715.877 75.1005 716.07 76.1922C716.331 77.2167 716.581 78.2434 716.82 79.2723C717.831 83.6259 718.594 88.0285 719.252 92.4475C719.735 95.6843 720.39 98.8905 720.908 102.121C721.245 104.219 721.531 106.327 721.687 108.447C721.881 110.294 721.856 112.158 721.613 113.999C721.531 114.333 721.581 114.685 721.751 114.984C721.921 115.283 722.199 115.505 722.527 115.606C722.862 115.695 723.217 115.649 723.518 115.478C723.819 115.307 724.04 115.024 724.134 114.691C724.768 110.91 724.247 106.985 723.704 103.227C723.221 99.8773 722.505 96.5654 721.991 93.2254C721.279 88.6 720.565 83.9858 719.534 79.4186C719.138 77.179 718.572 74.9728 717.841 72.8189C717.068 70.9213 715.697 69.3275 713.937 68.2791C709.098 65.3655 703.583 63.7406 698.404 61.5611C698.07 61.471 697.713 61.5165 697.412 61.6878C697.111 61.859 696.89 62.1421 696.797 62.4755C696.714 62.8095 696.762 63.1626 696.932 63.4617C697.103 63.7608 697.381 63.983 697.711 64.0822L697.707 64.0815Z" fill="#211715"/>
<path d="M706.618 105.543C706.618 108.197 706.65 110.852 706.652 113.506C706.655 113.852 706.794 114.182 707.038 114.426C707.282 114.671 707.612 114.809 707.958 114.813C712.945 114.638 717.937 114.92 722.873 115.655C723.219 115.653 723.55 115.514 723.794 115.27C724.039 115.025 724.177 114.694 724.179 114.348C724.171 114.005 724.031 113.677 723.787 113.434C723.544 113.191 723.217 113.05 722.873 113.042C717.937 112.308 712.945 112.026 707.958 112.2L709.264 113.506C709.264 110.852 709.231 108.197 709.23 105.543C709.23 103.862 706.618 103.859 706.618 105.543Z" fill="#211715"/>
<path d="M696.795 62.4748C695.558 68.4704 693.545 74.2067 691.694 80.0273C690.301 84.407 689.343 88.8652 688.268 93.3253C687.328 97.2198 686.342 101.104 685.354 104.987C684.538 108.199 683.363 111.563 683.184 114.886C683.017 117.97 683.746 121.05 684.286 124.066C684.772 126.775 685.297 129.477 685.839 132.175C686.986 137.887 688.209 143.583 689.418 149.281C690.452 154.152 691.505 159.021 692.392 163.921C692.43 164.25 692.541 164.566 692.717 164.847C692.893 165.127 693.129 165.365 693.408 165.542C693.99 165.802 694.639 165.876 695.264 165.754C696.522 165.672 697.782 165.615 699.041 165.554C702.319 165.393 705.598 165.216 708.867 164.901C709.748 164.784 710.636 164.726 711.525 164.729C712.243 164.758 712.962 164.799 713.676 164.86C714.618 164.942 715.551 165.107 716.493 165.191C716.799 165.236 717.113 165.208 717.407 165.108C717.7 165.009 717.966 164.841 718.183 164.619C718.812 163.939 718.662 163.033 718.595 162.191C718.464 160.518 718.276 158.85 718.073 157.185C717.658 153.766 717.176 150.354 716.883 146.922C716.613 143.764 716.434 140.596 716.192 137.436C716.072 135.884 715.945 134.333 715.81 132.783C715.801 132.439 715.661 132.112 715.418 131.869C715.175 131.626 714.848 131.486 714.504 131.477C714.158 131.479 713.827 131.618 713.583 131.862C713.339 132.107 713.2 132.437 713.198 132.783C713.636 137.747 713.875 142.729 714.339 147.69C714.588 150.358 714.94 153.015 715.273 155.673C715.436 156.971 715.595 158.27 715.734 159.571C715.975 160.875 716.077 162.2 716.039 163.526L716.217 162.867L716.286 162.775L716.945 162.596C716.353 162.587 715.763 162.524 715.182 162.408C714.453 162.318 713.721 162.246 712.987 162.194C710.618 162.137 708.247 162.252 705.895 162.536C703.696 162.699 701.495 162.816 699.293 162.924C698.383 162.969 697.473 163.012 696.563 163.061C695.975 163.092 694.948 163.356 694.408 163.15L694.984 163.486L694.965 163.558L694.904 163.222C694.873 163.048 694.841 162.875 694.809 162.704C694.749 162.375 694.687 162.046 694.625 161.717C694.485 160.976 694.342 160.239 694.195 159.503C693.869 157.852 693.533 156.202 693.188 154.554C692.404 150.791 691.6 147.032 690.802 143.271C689.17 135.561 687.553 127.844 686.209 120.077C685.808 118.101 685.688 116.078 685.854 114.068C686.004 112.992 686.231 111.928 686.534 110.884C687.085 108.748 687.631 106.61 688.172 104.471C689.357 99.7983 690.599 95.1318 691.597 90.4131C693.557 81.1532 697.394 72.4361 699.304 63.1613C699.642 61.5206 697.125 60.8185 696.785 62.467L696.795 62.4748Z" fill="#211715"/>
<path d="M674.398 125.013H684.847C686.528 125.013 686.531 122.401 684.847 122.401H674.398C672.716 122.401 672.714 125.013 674.398 125.013Z" fill="#211715"/>
<path d="M709.64 113.635C709.215 115.321 708.998 117.049 708.744 118.766C708.614 119.634 708.483 120.501 708.31 121.362C708.273 121.547 707.973 122.369 708.053 122.497C708.665 122.223 708.785 122.123 708.414 122.197C708.299 122.212 708.185 122.228 708.07 122.244C707.906 122.274 707.744 122.318 707.58 122.358C704.272 123.136 701.222 124.757 698.727 127.065C697.487 128.208 699.341 130.052 700.574 128.912C701.934 127.638 703.5 126.605 705.206 125.856C705.873 125.575 706.557 125.338 707.254 125.144C707.925 124.952 708.625 124.878 709.268 124.691C710.318 124.385 710.563 123.31 710.764 122.375C710.953 121.488 711.094 120.59 711.229 119.693C711.497 117.899 711.715 116.092 712.159 114.33C712.57 112.697 710.05 112.003 709.64 113.635Z" fill="#211715"/>
<path d="M697.707 129.103C703.174 130.805 708.679 132.378 714.158 134.047C715.77 134.539 716.459 132.018 714.852 131.528C709.375 129.859 703.869 128.286 698.402 126.584C696.793 126.082 696.104 128.604 697.707 129.103Z" fill="#211715"/>
<path d="M718.13 114.288C717.471 117.456 716.751 120.589 715.953 123.722C715.829 124.429 715.751 125.143 715.719 125.86C715.56 126.686 715.239 127.471 714.774 128.172C714.046 129.453 713.397 130.779 712.833 132.14C712.743 132.475 712.789 132.831 712.96 133.132C713.131 133.432 713.414 133.654 713.747 133.747C714.081 133.831 714.434 133.782 714.734 133.612C715.033 133.442 715.255 133.163 715.354 132.833C715.905 131.552 716.536 130.307 717.243 129.105C717.718 128.335 718.055 127.488 718.238 126.602C718.355 125.88 718.303 125.122 718.474 124.415C719.234 121.273 719.993 118.148 720.651 114.981C720.992 113.341 718.475 112.639 718.132 114.286L718.13 114.288Z" fill="#211715"/>
<path d="M676.663 137.145C670.8 136.1 649.534 132.896 643.275 132.038C642.894 131.985 642.508 132.08 642.195 132.302C641.881 132.525 641.665 132.858 641.589 133.235C640.788 137.175 639.177 147.16 638.595 151.241C638.539 151.635 638.639 152.035 638.876 152.355C639.112 152.675 639.465 152.888 639.858 152.949C645.885 153.892 667.824 157.178 673.826 157.918C674.214 157.966 674.606 157.863 674.919 157.628C675.232 157.394 675.442 157.047 675.505 156.66C676.168 152.579 677.445 142.765 677.902 138.809C677.946 138.426 677.843 138.04 677.613 137.731C677.382 137.421 677.043 137.212 676.663 137.145Z" fill="white"/>
<path d="M677.01 135.885C669.549 134.562 662.037 133.49 654.543 132.37C651.126 131.858 647.708 131.348 644.289 130.868C643.221 130.719 642.232 130.613 641.325 131.335C640.438 132.041 640.291 133.064 640.093 134.108C639.693 136.228 639.332 138.353 638.977 140.484C638.594 142.774 638.224 145.066 637.866 147.36C637.72 148.3 637.577 149.24 637.439 150.182C637.261 151.39 637.168 152.599 638.163 153.506C639.232 154.481 641.153 154.46 642.525 154.67C644.275 154.936 646.026 155.202 647.778 155.465C655.671 156.652 663.565 157.847 671.476 158.913C673.239 159.15 675.363 159.71 676.452 157.818C676.915 157.013 676.934 155.93 677.068 155.027C677.225 153.965 677.378 152.902 677.525 151.838C677.858 149.443 678.178 147.046 678.486 144.648C678.735 142.718 679.106 140.749 679.21 138.805C679.242 138.138 679.04 137.48 678.639 136.947C678.237 136.413 677.662 136.037 677.012 135.883C675.379 135.473 674.685 137.992 676.317 138.402C676.599 138.472 676.621 138.519 676.582 138.937C676.544 139.339 676.487 139.739 676.439 140.14C676.33 141.041 676.218 141.942 676.104 142.842C675.833 144.985 675.553 147.127 675.264 149.267C674.992 151.27 674.716 153.273 674.41 155.27C674.357 155.615 674.319 155.968 674.247 156.309C674.171 156.667 674.112 156.635 673.692 156.59C673.151 156.535 672.613 156.453 672.074 156.381L672.108 156.385L671.847 156.35L671.376 156.285L670.295 156.136C669.488 156.023 668.683 155.91 667.878 155.796C666.044 155.535 664.211 155.271 662.379 155.005C658.403 154.426 654.428 153.838 650.455 153.241C647.353 152.776 644.251 152.306 641.15 151.83C640.766 151.771 639.956 151.765 639.882 151.452C639.88 151.125 639.925 150.8 640.017 150.486C640.081 150.056 640.146 149.626 640.213 149.197C640.535 147.084 640.87 144.973 641.217 142.865C641.563 140.759 641.917 138.653 642.292 136.552C642.438 135.74 642.586 134.928 642.744 134.117C642.885 133.399 642.857 133.282 643.541 133.377C646.654 133.811 649.763 134.274 652.872 134.737C660.186 135.828 667.501 136.913 674.795 138.138C675.303 138.223 675.811 138.31 676.319 138.399C676.653 138.481 677.006 138.432 677.305 138.262C677.604 138.092 677.826 137.814 677.926 137.485C678.013 137.151 677.966 136.797 677.794 136.498C677.623 136.199 677.341 135.979 677.01 135.885Z" fill="#211715"/>
<path d="M673.091 63.1123C673.244 68.3666 673.722 73.6026 674.11 78.8432C674.502 84.1536 674.705 89.47 674.754 94.7948C674.778 97.4869 674.747 100.182 674.594 102.871C674.519 104.177 674.398 105.472 674.279 106.773C674.248 107.114 674.326 106.479 674.279 106.795C674.253 106.959 674.23 107.122 674.204 107.288C673.786 109.988 673.313 112.681 672.876 115.379C672.019 120.667 671.224 125.963 670.49 131.269C670.41 131.603 670.46 131.955 670.629 132.254C670.799 132.552 671.076 132.775 671.404 132.877C671.739 132.966 672.095 132.92 672.395 132.749C672.696 132.578 672.917 132.295 673.011 131.962C674.084 124.12 675.388 116.318 676.642 108.504C677.175 104.766 677.421 100.993 677.376 97.2178C677.407 91.8218 677.245 86.4114 676.883 81.0285C676.478 75.0564 675.882 69.0961 675.707 63.1103C675.658 61.4331 673.046 61.4259 673.095 63.1103L673.091 63.1123Z" fill="#211715"/>
<path d="M644.184 146.069C643.872 146.004 644.352 145.992 644.66 146.378V148.225L644.083 148.562C643.406 148.692 644.164 148.643 644.438 148.675C644.971 148.741 645.503 148.806 646.036 148.876C647.81 149.106 649.333 149.316 651.227 149.579C655.84 150.219 660.452 150.88 665.056 151.588C666.995 151.887 668.936 152.187 670.868 152.543C672.512 152.846 673.22 150.329 671.563 150.024C663.19 148.477 654.699 147.393 646.254 146.29C645.243 146.159 643.688 145.65 642.816 146.378C642.578 146.627 642.445 146.958 642.445 147.302C642.445 147.646 642.578 147.977 642.816 148.225C642.997 148.416 643.234 148.543 643.492 148.588C645.132 148.934 645.834 146.416 644.187 146.069H644.184Z" fill="#211715"/>
<path d="M649.513 112.482C649.551 115.199 650.868 134.884 650.287 139.962C650.432 143.3 646.448 147.473 646.499 150.186C646.653 151.889 646.499 154.269 647.348 155.784C647.981 156.911 649.316 157.439 650.585 157.686C651.854 157.932 653.185 157.992 654.353 158.546C655.137 158.916 655.836 159.505 656.691 159.629C657.546 159.752 658.594 159.06 658.366 158.226C658.828 158.703 659.378 159.085 659.985 159.353C660.291 159.482 660.628 159.521 660.955 159.466C661.283 159.412 661.588 159.265 661.835 159.043C662.039 158.749 662.181 158.416 662.251 158.065C662.322 157.714 662.319 157.352 662.243 157.002L661.688 150.091C662.384 150.134 663.154 151.642 663.544 152.22C663.849 152.725 664.293 153.132 664.823 153.391C665.089 153.516 665.386 153.562 665.678 153.522C665.969 153.483 666.243 153.36 666.467 153.169C666.845 152.784 667.116 152.307 667.256 151.786C667.396 151.265 667.399 150.717 667.265 150.194C666.104 147.291 664.213 146.037 662.621 144.461C661.49 143.343 660.204 142.952 659.39 141.587C659.259 141.409 659.165 141.206 659.114 140.991C659.063 140.775 659.055 140.552 659.093 140.334C658.682 135.079 658.967 123.381 659.735 111.372" fill="white"/>
<path d="M646.499 150.186C646.653 151.889 646.499 154.269 647.348 155.784C647.981 156.911 649.316 157.439 650.585 157.686C651.854 157.933 653.185 157.992 654.353 158.546C655.137 158.916 655.836 159.505 656.691 159.629C657.546 159.752 658.594 159.06 658.366 158.226C658.828 158.703 659.378 159.085 659.985 159.353C660.291 159.482 660.628 159.521 660.955 159.466C661.283 159.412 661.588 159.265 661.835 159.043C662.039 158.749 662.181 158.416 662.251 158.065C662.322 157.714 662.319 157.352 662.243 157.002L661.688 150.091" fill="white"/>
<path d="M645.193 150.186C645.339 151.961 645.205 153.852 645.826 155.551C646.514 157.43 648.112 158.473 650.017 158.899C650.997 159.118 652.003 159.177 652.973 159.436C654.014 159.714 654.831 160.435 655.85 160.764C657.817 161.399 659.981 160.057 659.629 157.88L657.445 159.151C658.402 160.013 659.501 160.865 660.866 160.783C661.491 160.76 662.09 160.527 662.566 160.122C663.041 159.717 663.367 159.163 663.489 158.55C663.751 157.283 663.462 155.872 663.359 154.6L662.997 150.093C662.866 148.429 660.249 148.415 660.384 150.093L660.879 156.253C660.909 156.617 661.136 158.006 660.874 158.147C660.381 158.417 659.597 157.579 659.292 157.304C659.085 157.11 658.82 156.988 658.538 156.956C658.257 156.924 657.972 156.984 657.727 157.127C657.482 157.27 657.289 157.488 657.178 157.749C657.067 158.01 657.042 158.3 657.109 158.576C657.036 158.123 657.345 158.307 656.952 158.334C656.753 158.327 656.559 158.273 656.386 158.175C655.677 157.855 655.056 157.404 654.322 157.13C652.942 156.613 651.437 156.649 650.039 156.205C649.532 156.074 649.076 155.793 648.731 155.4C648.386 155.006 648.167 154.518 648.103 153.998C647.925 152.736 647.825 151.464 647.805 150.19C647.67 148.526 645.056 148.511 645.193 150.19V150.186Z" fill="#211715"/>
<path d="M647.805 150.186C647.805 150.089 647.817 149.99 647.815 149.893C647.811 149.645 647.78 150.044 647.815 149.886C647.858 149.69 647.898 149.494 647.956 149.302C648.014 149.111 648.077 148.93 648.148 148.747C648.158 148.721 648.278 148.428 648.222 148.56C648.166 148.692 648.299 148.392 648.311 148.364C648.728 147.457 649.225 146.589 649.694 145.71C650.636 143.952 651.653 142.011 651.594 139.962C651.594 139.616 651.456 139.283 651.212 139.038C650.967 138.794 650.634 138.656 650.288 138.656C649.941 138.656 649.609 138.794 649.364 139.038C649.119 139.283 648.982 139.616 648.982 139.962C648.988 140.182 648.98 140.401 648.959 140.62C648.946 140.765 648.999 140.458 648.945 140.7C648.918 140.824 648.895 140.948 648.866 141.072C648.758 141.502 648.62 141.924 648.453 142.334C648.355 142.58 648.079 143.159 647.875 143.561C647.645 144.012 647.404 144.457 647.164 144.902C646.291 146.514 645.191 148.291 645.194 150.186C645.197 151.866 647.809 151.87 647.805 150.186Z" fill="#211715"/>
<path d="M659.083 140.37C659.028 140.8 659.139 141.234 659.394 141.585C660.207 142.952 661.493 143.343 662.624 144.459C664.216 146.035 666.107 147.289 667.268 150.192C667.402 150.715 667.399 151.263 667.259 151.784C667.119 152.306 666.848 152.782 666.47 153.167C666.246 153.359 665.972 153.481 665.681 153.521C665.389 153.56 665.093 153.514 664.826 153.39C664.296 153.13 663.853 152.723 663.547 152.218C663.155 151.64 662.387 150.132 661.691 150.089" fill="white"/>
<path d="M657.777 140.37C657.633 141.524 658.422 142.684 659.228 143.444C659.942 144.117 660.825 144.573 661.545 145.237C662.835 146.291 664.006 147.483 665.038 148.792C665.452 149.389 666.149 150.322 666.09 151.051C666.059 151.443 665.816 152.344 665.34 152.193C664.745 152.005 664.368 151.047 664.054 150.574C663.579 149.861 662.944 148.98 662.038 148.831C661.704 148.75 661.352 148.799 661.053 148.969C660.754 149.139 660.532 149.417 660.431 149.746C660.342 150.08 660.388 150.436 660.559 150.737C660.73 151.037 661.013 151.258 661.346 151.352C661.527 151.382 661.373 151.352 661.299 151.287C661.413 151.388 661.518 151.499 661.612 151.619C661.804 151.883 661.982 152.157 662.145 152.44C662.546 153.158 663.092 153.784 663.748 154.278C664.149 154.56 664.612 154.74 665.098 154.802C665.584 154.864 666.077 154.807 666.536 154.636C666.956 154.439 667.331 154.16 667.641 153.814C667.95 153.469 668.186 153.065 668.335 152.627C669.751 149.221 666.34 146.148 664.095 144.06C663.394 143.393 662.647 142.774 661.861 142.209C661.299 141.812 660.294 141.159 660.39 140.37C660.389 140.024 660.25 139.693 660.006 139.449C659.761 139.204 659.43 139.066 659.084 139.064C658.74 139.072 658.413 139.212 658.169 139.456C657.926 139.699 657.785 140.026 657.777 140.37Z" fill="#211715"/>
<path d="M648.304 115.458C648.347 118.136 648.571 120.813 648.71 123.491C648.912 127.383 649.102 131.278 649.134 135.175C649.177 136.773 649.125 138.372 648.981 139.964C648.983 140.31 649.121 140.641 649.366 140.885C649.61 141.13 649.941 141.268 650.287 141.27C650.631 141.262 650.959 141.122 651.202 140.879C651.445 140.636 651.586 140.308 651.593 139.964C651.84 136.73 651.851 133.482 651.628 130.246C651.493 126.505 651.284 122.768 651.082 119.029C651.017 117.841 650.935 116.651 650.916 115.46C650.889 113.781 648.276 113.776 648.304 115.46V115.458Z" fill="#211715"/>
<path d="M658.432 114.636C657.9 122.973 657.226 131.432 657.751 139.788C657.856 141.458 660.469 141.47 660.364 139.788C659.841 131.432 660.512 122.973 661.045 114.636C661.152 112.957 658.539 112.964 658.432 114.636Z" fill="#211715"/>
<path d="M646.676 115.071C650.952 115.065 655.25 114.836 659.509 114.478C660.437 114.401 661.982 114.516 662.517 113.636C662.76 113.131 662.895 112.582 662.914 112.022C663.117 110.396 663.165 108.746 663.224 107.109C663.28 105.555 663.293 103.998 663.367 102.444C663.447 100.764 660.834 100.768 660.755 102.444C660.67 104.226 660.657 106.011 660.585 107.793C660.542 108.857 660.494 109.922 660.407 110.984C660.389 111.199 660.37 111.415 660.347 111.629C660.335 111.742 660.323 111.856 660.309 111.97C660.335 111.811 660.328 111.812 660.309 111.97C660.286 112.096 660.243 112.231 660.233 112.357C660.203 112.678 660.327 112.223 660.254 112.332L661.38 111.682C656.497 112.216 651.588 112.475 646.676 112.458C644.996 112.458 644.992 115.07 646.676 115.07V115.071Z" fill="#211715"/>
<path d="M662.492 155.014C662.523 155.062 662.585 155.135 662.6 155.154C662.606 155.162 662.669 155.252 662.708 155.294L662.716 155.301C662.803 155.376 662.894 155.444 662.987 155.511C662.993 155.515 663 155.519 663.007 155.522C663.112 155.57 663.216 155.619 663.326 155.656H663.337C663.506 155.711 663.687 155.719 663.86 155.68C664.032 155.672 664.2 155.618 664.345 155.524L664.61 155.321C664.734 155.206 664.827 155.061 664.88 154.9C664.938 154.801 664.969 154.688 664.969 154.574C665.008 154.4 665 154.22 664.945 154.051L664.815 153.739C664.701 153.545 664.54 153.383 664.346 153.27L664.28 153.225C664.135 153.131 663.968 153.078 663.795 153.069C663.622 153.031 663.442 153.039 663.273 153.093C662.95 153.196 662.673 153.408 662.489 153.693L662.358 154.005C662.296 154.233 662.296 154.472 662.358 154.7L662.489 155.012C662.602 155.206 662.764 155.367 662.958 155.481L663.023 155.526L664.03 153.139L664.013 153.133L664.325 153.264C664.316 153.261 664.308 153.256 664.301 153.25L664.565 153.455C664.559 153.449 664.553 153.443 664.547 153.436L664.751 153.701L664.745 153.693C664.562 153.408 664.285 153.195 663.962 153.092C663.793 153.038 663.612 153.03 663.439 153.069C663.266 153.076 663.099 153.13 662.953 153.224L662.689 153.428C662.529 153.588 662.413 153.787 662.353 154.005L662.307 154.351C662.306 154.583 662.368 154.811 662.485 155.011L662.492 155.014Z" fill="#211715"/>
<path d="M682.596 48.6249C683.802 49.2524 685.147 49.5668 686.506 49.5393C687.942 49.5948 689.354 49.1683 690.518 48.3278C690.763 48.0828 690.901 47.7506 690.901 47.4043C690.901 47.0579 690.763 46.7257 690.518 46.4808C690.269 46.2451 689.938 46.1138 689.595 46.1138C689.252 46.1138 688.921 46.2451 688.671 46.4808C689.121 46.1301 688.641 46.4808 688.498 46.5572C688.387 46.6147 688.087 46.7074 688.493 46.5722C688.385 46.6081 688.282 46.6532 688.174 46.6885C688.038 46.7316 687.9 46.7688 687.761 46.8015C687.598 46.8148 687.437 46.8452 687.28 46.8922C687.404 46.8269 687.488 46.8674 687.284 46.8877C687.197 46.8962 687.109 46.9033 687.023 46.9092C686.812 46.9229 686.6 46.9282 686.388 46.9269C686.199 46.9269 686.009 46.9201 685.82 46.9066C685.733 46.9007 685.646 46.8935 685.559 46.8851C685.509 46.8798 685.459 46.8746 685.41 46.8681C685.308 46.8563 685.345 46.8609 685.522 46.8831C685.376 46.8823 685.231 46.8554 685.094 46.8034C684.957 46.7734 684.822 46.7381 684.687 46.6976C684.571 46.663 684.456 46.6212 684.341 46.5814C684.61 46.712 684.044 46.4795 684.341 46.5814C684.199 46.5143 684.057 46.4438 683.917 46.3697C683.618 46.1949 683.262 46.146 682.927 46.2339C682.592 46.3218 682.305 46.5392 682.13 46.8384C681.955 47.1375 681.907 47.4939 681.994 47.829C682.082 48.1642 682.3 48.4507 682.599 48.6256L682.596 48.6249Z" fill="#211715"/>
<path d="M685.69 39.6106C685.862 40.2328 686 40.864 686.103 41.5014L686.057 41.1539C686.069 41.2405 686.072 41.3281 686.064 41.4152L686.111 41.0677C686.105 41.1078 686.095 41.1471 686.082 41.1853L686.212 40.8731C686.201 40.8995 686.187 40.9248 686.171 40.9489L686.375 40.6843C686.357 40.7068 686.336 40.7272 686.313 40.7451L686.577 40.5407C686.529 40.5705 686.48 40.5972 686.428 40.6203L686.74 40.4897C686.659 40.5243 686.574 40.5491 686.487 40.5635L686.835 40.5165C686.756 40.526 686.676 40.526 686.598 40.5165L686.945 40.5629C686.856 40.5505 686.768 40.5289 686.679 40.5165C686.51 40.4621 686.329 40.4542 686.156 40.4936C685.983 40.5011 685.816 40.5545 685.67 40.6484C685.522 40.7349 685.393 40.8498 685.289 40.9864C685.185 41.1231 685.109 41.2788 685.066 41.4447C685.022 41.6107 685.012 41.7836 685.035 41.9535C685.058 42.1235 685.115 42.2872 685.201 42.4353C685.284 42.5833 685.397 42.7129 685.531 42.8161C685.666 42.9193 685.821 42.9939 685.985 43.0355C686.218 43.0675 686.442 43.1257 686.682 43.1361C687.053 43.1368 687.419 43.0471 687.747 42.8749C687.961 42.7741 688.149 42.6275 688.3 42.4455C688.45 42.2636 688.559 42.0507 688.618 41.8221C688.696 41.4604 688.693 41.0859 688.609 40.7255C688.506 40.1168 688.365 39.5133 688.209 38.9157C688.115 38.5878 687.9 38.3077 687.608 38.132C687.309 37.9571 686.953 37.9082 686.618 37.996C686.283 38.0839 685.996 38.3012 685.821 38.6003C685.651 38.9069 685.604 39.2668 685.691 39.6067L685.69 39.6106Z" fill="#211715"/>
<path d="M676.019 34.1669C675.703 35.193 675.909 37.5533 677.853 37.7545C680.421 37.7388 680.558 34.8854 679.694 33.5439C678.985 32.4453 676.905 31.9881 676.019 34.1669Z" fill="#211715"/>
<path d="M696.591 34.1676C696.907 35.1937 696.701 37.5534 694.757 37.7545C692.188 37.7389 692.052 34.8854 692.917 33.5439C693.625 32.4454 695.706 31.9889 696.591 34.1676Z" fill="#211715"/>
<path d="M654.061 159.773C654.59 170.793 655.558 181.797 656.361 192.8C657.154 203.679 657.34 214.605 657.675 225.506C657.999 235.999 658.324 246.494 658.65 256.99C658.655 257.275 658.75 257.551 658.923 257.777C659.095 258.004 659.336 258.169 659.609 258.249C661.454 258.649 663.329 258.898 665.214 258.996C668.038 259.226 670.872 259.313 673.705 259.257C676.701 259.231 679.689 258.941 682.634 258.391C684.914 257.934 687.316 257.231 689.128 255.709C690.015 254.964 689.825 254.197 689.756 253.211C689.687 252.224 689.626 251.228 689.56 250.236C689.349 246.96 689.142 243.684 688.939 240.407C688.316 230.442 687.684 220.478 687.045 210.514C686.344 199.685 685.627 188.856 684.832 178.033C684.296 170.724 683.841 163.381 682.947 156.106C682.882 155.564 682.809 155.022 682.73 154.482C682.636 154.149 682.415 153.866 682.114 153.695C681.813 153.524 681.457 153.478 681.123 153.568C680.793 153.667 680.514 153.889 680.344 154.189C680.174 154.488 680.125 154.841 680.208 155.175C680.232 155.335 680.253 155.496 680.274 155.656C680.2 155.139 680.294 155.82 680.313 155.974C680.367 156.409 680.418 156.845 680.466 157.28C680.586 158.364 680.694 159.45 680.797 160.536C681.076 163.475 681.32 166.414 681.554 169.353C682.183 177.256 682.735 185.158 683.273 193.07C683.871 201.87 684.447 210.673 685.002 219.476C685.481 227.001 685.955 234.527 686.423 242.052C686.673 246.054 686.888 250.062 687.2 254.06C687.21 254.199 687.221 254.339 687.235 254.478L687.617 253.554C687.119 254.016 686.548 254.392 685.926 254.664C685.164 255.009 684.374 255.287 683.564 255.494C681.565 256.005 679.524 256.33 677.465 256.464C673.152 256.782 668.82 256.737 664.514 256.329C664.039 256.286 663.565 256.239 663.092 256.186C662.877 256.161 662.662 256.136 662.448 256.109L662.144 256.071C662.331 256.095 662.201 256.078 662.088 256.061C661.488 255.975 660.885 255.881 660.296 255.735L661.255 256.995C660.719 240.266 660.275 223.534 659.666 206.807C659.313 197.091 658.561 187.421 657.858 177.724C657.424 171.746 656.953 165.765 656.666 159.778C656.585 158.104 653.972 158.095 654.053 159.778L654.061 159.773Z" fill="#211715"/>
<path d="M681.362 166.858C681.438 167.498 681.593 168.126 681.823 168.727C682.025 169.467 682.226 170.208 682.427 170.948C682.806 172.348 683.183 173.748 683.559 175.149C684.334 178.044 685.101 180.941 685.86 183.84C687.411 189.767 688.935 195.701 690.431 201.641C693.436 213.525 696.371 225.425 699.236 237.342C700.792 243.77 702.34 250.2 703.88 256.632C703.94 256.85 704.055 257.05 704.216 257.21C704.376 257.37 704.575 257.486 704.794 257.546C709.765 258.959 715.208 258.614 720.262 257.897C724.87 257.244 729.916 256.204 733.953 253.766C734.711 253.309 736.033 252.581 736.033 251.578C735.995 251.153 735.909 250.735 735.778 250.329C735.54 249.334 735.289 248.342 735.036 247.352C734.242 244.235 733.421 241.125 732.597 238.017C730.373 229.625 728.116 221.244 725.828 212.872C724.016 206.215 722.207 199.558 720.336 192.918C719.407 189.624 718.76 186.275 718.055 182.926C716.899 177.433 715.735 171.941 714.565 166.45C714.364 165.515 714.161 164.579 713.957 163.642C713.597 162.001 711.078 162.695 711.438 164.336C713.224 172.492 714.917 180.669 716.635 188.84C717.47 192.813 718.684 196.702 719.764 200.615C721.462 206.772 723.145 212.933 724.812 219.099C726.562 225.556 728.297 232.018 730.017 238.483C731.14 242.715 732.294 246.945 733.302 251.206C733.359 251.445 733.414 251.685 733.468 251.925L733.803 250.654C733.708 250.743 733.607 250.829 733.511 250.916C733.291 251.104 733.528 250.916 733.349 251.042C733.06 251.249 732.762 251.44 732.454 251.619C731.825 251.982 731.175 252.305 730.505 252.586C728.709 253.319 726.858 253.907 724.968 254.344C720.702 255.409 716.317 255.92 711.92 255.866C709.749 255.867 707.587 255.585 705.488 255.029L706.403 255.943C703.634 244.399 700.842 232.861 698.025 221.328C695.108 209.451 692.119 197.591 689.057 185.749C688.224 182.548 687.382 179.351 686.531 176.156C686.107 174.561 685.679 172.967 685.248 171.374C685.035 170.586 684.822 169.798 684.607 169.009C684.507 168.64 684.407 168.271 684.306 167.903L684.155 167.351C684.137 167.286 683.975 166.644 683.975 166.866C683.975 165.185 681.363 165.183 681.363 166.866L681.362 166.858Z" fill="#211715"/>
</g>
<defs>
<clipPath id="clip0_63_75">
<rect width="288" height="288" fill="white" transform="translate(548)"/>
</clipPath>
</defs>
</svg>
