<svg width="757" height="177" viewBox="0 0 757 177" fill="none" xmlns="http://www.w3.org/2000/svg">
<path d="M16.5938 109.672C16.5938 112.328 16.625 114.656 16.6875 116.656C16.7812 118.625 16.875 120.328 16.9688 121.766C17.0938 123.203 17.2344 124.406 17.3906 125.375C17.5781 126.344 17.7656 127.156 17.9531 127.812V128H6.70312V127.812C6.89062 127.156 7.0625 126.344 7.21875 125.375C7.40625 124.406 7.5625 123.203 7.6875 121.766C7.8125 120.328 7.90625 118.625 7.96875 116.656C8.03125 114.656 8.0625 112.328 8.0625 109.672V79.1562C8.0625 76.5 8.03125 74.1875 7.96875 72.2188C7.90625 70.2188 7.8125 68.5 7.6875 67.0625C7.5625 65.5938 7.40625 64.375 7.21875 63.4062C7.0625 62.4375 6.89062 61.625 6.70312 60.9688V60.7812C9.29688 60.7812 11.9219 60.7812 14.5781 60.7812C17.2344 60.75 19.8125 60.7344 22.3125 60.7344C24.8125 60.7031 27.1875 60.6719 29.4375 60.6406C31.6875 60.5781 33.7188 60.5312 35.5312 60.5C37.3438 60.4375 38.875 60.375 40.125 60.3125C41.375 60.2188 42.2656 60.125 42.7969 60.0312L40.5 66.2656C39.4688 65.9844 38.2656 65.7344 36.8906 65.5156C35.7031 65.3281 34.25 65.1562 32.5312 65C30.8438 64.8125 28.8906 64.7188 26.6719 64.7188C25.9219 64.7188 24.9844 64.75 23.8594 64.8125C22.7344 64.8438 21.625 64.8906 20.5312 64.9531C19.2812 65.0156 17.9688 65.0781 16.5938 65.1406V88.8125C19.8125 88.7812 22.7656 88.6875 25.4531 88.5312C28.1406 88.375 30.4531 88.2188 32.3906 88.0625C34.6406 87.875 36.6719 87.6562 38.4844 87.4062L37.0781 94.2031C34.7344 93.9219 32.3594 93.6562 29.9531 93.4062C27.8906 93.1875 25.6719 93 23.2969 92.8438C20.9219 92.6562 18.6875 92.5625 16.5938 92.5625V109.672ZM78.6562 112.156C77.8125 112.156 76.75 112.156 75.4688 112.156C74.2188 112.156 72.8438 112.156 71.3438 112.156C69.8438 112.156 68.2969 112.156 66.7031 112.156C65.1094 112.156 63.5938 112.172 62.1562 112.203C60.7188 112.203 59.4062 112.219 58.2188 112.25C57.0312 112.25 56.1094 112.25 55.4531 112.25L53.7188 115.906C52.9688 117.406 52.3281 118.719 51.7969 119.844C51.2656 120.938 50.8281 121.906 50.4844 122.75C50.1406 123.594 49.8906 124.328 49.7344 124.953C49.5781 125.547 49.5 126.109 49.5 126.641C49.5 126.984 49.5156 127.25 49.5469 127.438C49.5781 127.594 49.625 127.719 49.6875 127.812V128H41.4375V127.812C41.6562 127.594 42 127.125 42.4688 126.406C42.9375 125.656 43.4688 124.75 44.0625 123.688C44.6875 122.625 45.3438 121.422 46.0312 120.078C46.75 118.734 47.4531 117.344 48.1406 115.906L67.2656 76.4375H70.7812L89.5312 115.906C90.25 117.406 90.9688 118.844 91.6875 120.219C92.4375 121.594 93.125 122.828 93.75 123.922C94.375 124.984 94.9219 125.875 95.3906 126.594C95.8594 127.281 96.1719 127.688 96.3281 127.812V128H84.3281C84.3906 127.75 84.4219 127.531 84.4219 127.344C84.4219 127.125 84.4219 126.891 84.4219 126.641C84.4219 125.953 84.2656 125.125 83.9531 124.156C83.6719 123.188 83.3125 122.203 82.875 121.203C82.4688 120.172 82.0312 119.188 81.5625 118.25C81.125 117.312 80.7656 116.531 80.4844 115.906L78.6562 112.156ZM57.2812 108.5H60.1406C61.4531 108.5 62.8438 108.5 64.3125 108.5C65.8125 108.469 67.3125 108.453 68.8125 108.453C70.3125 108.453 71.7656 108.453 73.1719 108.453C74.5781 108.422 75.8438 108.406 76.9688 108.406L67.2656 87.6875L57.2812 108.5ZM117.797 103.344C116.297 103.344 115.016 103.406 113.953 103.531C112.922 103.625 112.125 103.719 111.562 103.812V108.688C111.562 111.375 111.562 113.625 111.562 115.438C111.594 117.25 111.625 118.766 111.656 119.984C111.719 121.203 111.766 122.188 111.797 122.938C111.828 123.656 111.875 124.281 111.938 124.812C112.75 125.031 113.609 125.172 114.516 125.234C115.453 125.297 116.188 125.328 116.719 125.328C121.031 125.328 124.156 124.391 126.094 122.516C128.062 120.609 129.047 117.672 129.047 113.703C129.047 112.203 128.812 110.812 128.344 109.531C127.875 108.25 127.172 107.156 126.234 106.25C125.297 105.344 124.125 104.641 122.719 104.141C121.312 103.609 119.672 103.344 117.797 103.344ZM111.562 100.156C112.188 100.25 112.75 100.312 113.25 100.344C113.75 100.344 114.266 100.344 114.797 100.344C117.953 100.344 120.453 99.4688 122.297 97.7188C124.172 95.9688 125.109 93.3594 125.109 89.8906C125.109 88.4844 124.922 87.1875 124.547 86C124.172 84.8125 123.625 83.7969 122.906 82.9531C122.219 82.1094 121.344 81.4531 120.281 80.9844C119.25 80.5156 118.062 80.2812 116.719 80.2812C115.812 80.2812 115.047 80.3281 114.422 80.4219C113.797 80.4844 113.266 80.5469 112.828 80.6094C112.328 80.7344 111.906 80.8438 111.562 80.9375V100.156ZM102.047 77.5156C102.641 77.5469 103.25 77.5625 103.875 77.5625C104.406 77.5938 104.984 77.6094 105.609 77.6094C106.234 77.6094 106.844 77.6094 107.438 77.6094C108.406 77.6094 109.75 77.5469 111.469 77.4219C113.188 77.2969 115.328 77.2344 117.891 77.2344C120.172 77.2344 122.281 77.5156 124.219 78.0781C126.188 78.6094 127.875 79.3906 129.281 80.4219C130.719 81.4531 131.828 82.7188 132.609 84.2188C133.422 85.7188 133.828 87.4219 133.828 89.3281C133.828 90.9531 133.594 92.4062 133.125 93.6875C132.688 94.9375 132.047 96.0469 131.203 97.0156C130.359 97.9531 129.344 98.75 128.156 99.4062C126.969 100.031 125.656 100.531 124.219 100.906C126.312 101.219 128.219 101.734 129.938 102.453C131.656 103.172 133.125 104.078 134.344 105.172C135.562 106.234 136.5 107.5 137.156 108.969C137.812 110.406 138.141 112.016 138.141 113.797C138.141 118.734 136.375 122.438 132.844 124.906C129.312 127.344 124.047 128.562 117.047 128.562C116.297 128.562 115.359 128.531 114.234 128.469C113.141 128.406 111.984 128.344 110.766 128.281C109.578 128.219 108.422 128.156 107.297 128.094C106.203 128.031 105.281 128 104.531 128H102.047V127.812C102.266 127.156 102.453 126.312 102.609 125.281C102.797 124.25 102.938 122.984 103.031 121.484C103.156 119.953 103.25 118.141 103.312 116.047C103.375 113.953 103.406 111.5 103.406 108.688V96.875C103.406 94.0625 103.375 91.6094 103.312 89.5156C103.25 87.4219 103.156 85.6094 103.031 84.0781C102.938 82.5469 102.797 81.2656 102.609 80.2344C102.453 79.2031 102.266 78.3594 102.047 77.7031V77.5156ZM186.375 96.6875C186.375 93.9062 186.359 91.4844 186.328 89.4219C186.297 87.3594 186.234 85.5781 186.141 84.0781C186.047 82.5781 185.938 81.3281 185.812 80.3281C185.688 79.2969 185.531 78.4531 185.344 77.7969V77.6094H192.234V77.7969C192.047 78.4531 191.891 79.2969 191.766 80.3281C191.641 81.3594 191.531 82.6406 191.438 84.1719C191.344 85.6719 191.281 87.4688 191.25 89.5625C191.219 91.625 191.203 94.0625 191.203 96.875V110.328C191.203 113.703 190.672 116.578 189.609 118.953C188.578 121.328 187.141 123.281 185.297 124.812C183.453 126.312 181.25 127.406 178.688 128.094C176.156 128.812 173.375 129.172 170.344 129.172C167.281 129.172 164.438 128.828 161.812 128.141C159.188 127.484 156.906 126.422 154.969 124.953C153.062 123.484 151.547 121.578 150.422 119.234C149.328 116.891 148.781 114.047 148.781 110.703V96.875C148.781 94.0625 148.75 91.625 148.688 89.5625C148.625 87.4688 148.531 85.6719 148.406 84.1719C148.281 82.6406 148.141 81.3594 147.984 80.3281C147.828 79.2969 147.641 78.4531 147.422 77.7969V77.6094H158.25V77.7969C158.031 78.4531 157.844 79.2969 157.688 80.3281C157.531 81.3281 157.391 82.5781 157.266 84.0781C157.172 85.5781 157.094 87.3594 157.031 89.4219C156.969 91.4844 156.938 93.9062 156.938 96.6875V110.703C156.938 113.484 157.359 115.781 158.203 117.594C159.047 119.375 160.156 120.797 161.531 121.859C162.906 122.922 164.469 123.672 166.219 124.109C167.969 124.516 169.766 124.719 171.609 124.719C173.484 124.719 175.297 124.516 177.047 124.109C178.828 123.672 180.406 122.922 181.781 121.859C183.188 120.797 184.297 119.375 185.109 117.594C185.953 115.781 186.375 113.484 186.375 110.703V96.6875ZM213.938 124.344C216.844 124.344 219.516 124.234 221.953 124.016C224.422 123.766 226.578 123.5 228.422 123.219C230.578 122.875 232.531 122.484 234.281 122.047L233.203 128.281C232.766 128.25 232.016 128.203 230.953 128.141C229.922 128.109 228.828 128.078 227.672 128.047C226.516 128.047 225.438 128.031 224.438 128C223.438 128 222.75 128 222.375 128H204.422V127.812C204.641 127.156 204.828 126.312 204.984 125.281C205.172 124.25 205.312 122.984 205.406 121.484C205.531 119.953 205.625 118.141 205.688 116.047C205.75 113.953 205.781 111.5 205.781 108.688V96.875C205.781 94.0625 205.75 91.625 205.688 89.5625C205.625 87.4688 205.531 85.6719 205.406 84.1719C205.312 82.6406 205.172 81.3594 204.984 80.3281C204.828 79.2969 204.641 78.4531 204.422 77.7969V77.6094H215.25V77.7969C215.031 78.4531 214.844 79.2969 214.688 80.3281C214.531 81.3594 214.391 82.6406 214.266 84.1719C214.172 85.6719 214.094 87.4688 214.031 89.5625C213.969 91.625 213.938 94.0625 213.938 96.875V124.344ZM239.719 102.641C239.719 98.9531 240.406 95.5312 241.781 92.375C243.188 89.2188 245.094 86.4844 247.5 84.1719C249.906 81.8281 252.75 80 256.031 78.6875C259.312 77.375 262.828 76.7188 266.578 76.7188C270.266 76.7188 273.734 77.3438 276.984 78.5938C280.266 79.8125 283.109 81.5625 285.516 83.8438C287.953 86.125 289.875 88.8906 291.281 92.1406C292.688 95.3906 293.391 99.0312 293.391 103.062C293.391 106.406 292.797 109.641 291.609 112.766C290.422 115.859 288.688 118.609 286.406 121.016C284.125 123.391 281.312 125.297 277.969 126.734C274.625 128.141 270.797 128.844 266.484 128.844C262.828 128.844 259.375 128.234 256.125 127.016C252.875 125.797 250.031 124.062 247.594 121.812C245.156 119.531 243.234 116.781 241.828 113.562C240.422 110.312 239.719 106.672 239.719 102.641ZM267.656 125.516C270.031 125.516 272.219 125.047 274.219 124.109C276.219 123.172 277.938 121.828 279.375 120.078C280.844 118.328 281.969 116.203 282.75 113.703C283.562 111.172 283.969 108.328 283.969 105.172C283.969 101.578 283.578 98.25 282.797 95.1875C282.047 92.125 280.891 89.4844 279.328 87.2656C277.797 85.0156 275.875 83.2656 273.562 82.0156C271.25 80.7344 268.547 80.0938 265.453 80.0938C263.078 80.0938 260.891 80.5469 258.891 81.4531C256.891 82.3594 255.156 83.6719 253.688 85.3906C252.25 87.1094 251.125 89.2188 250.312 91.7188C249.5 94.2188 249.094 97.0625 249.094 100.25C249.094 103.812 249.484 107.141 250.266 110.234C251.078 113.297 252.25 115.969 253.781 118.25C255.344 120.5 257.281 122.281 259.594 123.594C261.906 124.875 264.594 125.516 267.656 125.516ZM341.531 96.6875C341.531 93.9062 341.516 91.4844 341.484 89.4219C341.453 87.3594 341.391 85.5781 341.297 84.0781C341.203 82.5781 341.094 81.3281 340.969 80.3281C340.844 79.2969 340.688 78.4531 340.5 77.7969V77.6094H347.391V77.7969C347.203 78.4531 347.047 79.2969 346.922 80.3281C346.797 81.3594 346.688 82.6406 346.594 84.1719C346.5 85.6719 346.438 87.4688 346.406 89.5625C346.375 91.625 346.359 94.0625 346.359 96.875V110.328C346.359 113.703 345.828 116.578 344.766 118.953C343.734 121.328 342.297 123.281 340.453 124.812C338.609 126.312 336.406 127.406 333.844 128.094C331.312 128.812 328.531 129.172 325.5 129.172C322.438 129.172 319.594 128.828 316.969 128.141C314.344 127.484 312.062 126.422 310.125 124.953C308.219 123.484 306.703 121.578 305.578 119.234C304.484 116.891 303.938 114.047 303.938 110.703V96.875C303.938 94.0625 303.906 91.625 303.844 89.5625C303.781 87.4688 303.688 85.6719 303.562 84.1719C303.438 82.6406 303.297 81.3594 303.141 80.3281C302.984 79.2969 302.797 78.4531 302.578 77.7969V77.6094H313.406V77.7969C313.188 78.4531 313 79.2969 312.844 80.3281C312.688 81.3281 312.547 82.5781 312.422 84.0781C312.328 85.5781 312.25 87.3594 312.188 89.4219C312.125 91.4844 312.094 93.9062 312.094 96.6875V110.703C312.094 113.484 312.516 115.781 313.359 117.594C314.203 119.375 315.312 120.797 316.688 121.859C318.062 122.922 319.625 123.672 321.375 124.109C323.125 124.516 324.922 124.719 326.766 124.719C328.641 124.719 330.453 124.516 332.203 124.109C333.984 123.672 335.562 122.922 336.938 121.859C338.344 120.797 339.453 119.375 340.266 117.594C341.109 115.781 341.531 113.484 341.531 110.703V96.6875ZM382.406 87.4062H381.469C381.281 86.875 380.969 86.2031 380.531 85.3906C380.125 84.5781 379.562 83.7812 378.844 83C378.156 82.2188 377.297 81.5625 376.266 81.0312C375.234 80.4688 374 80.1875 372.562 80.1875C371.469 80.1875 370.484 80.375 369.609 80.75C368.766 81.0938 368.047 81.5781 367.453 82.2031C366.859 82.8281 366.406 83.5781 366.094 84.4531C365.781 85.2969 365.625 86.2188 365.625 87.2188C365.625 88.8438 366.109 90.3906 367.078 91.8594C368.078 93.3281 369.312 94.7969 370.781 96.2656C372.25 97.7031 373.844 99.1562 375.562 100.625C377.281 102.094 378.875 103.625 380.344 105.219C381.812 106.812 383.031 108.5 384 110.281C385 112.062 385.5 113.969 385.5 116C385.5 117.5 385.219 119.047 384.656 120.641C384.125 122.234 383.25 123.672 382.031 124.953C380.812 126.234 379.25 127.281 377.344 128.094C375.438 128.938 373.125 129.359 370.406 129.359C368.906 129.359 367.469 129.234 366.094 128.984C364.75 128.734 363.5 128.422 362.344 128.047C361.219 127.703 360.203 127.328 359.297 126.922C358.422 126.484 357.688 126.078 357.094 125.703L357.938 116.844H358.922C359.234 117.938 359.688 119.031 360.281 120.125C360.906 121.219 361.656 122.219 362.531 123.125C363.438 124 364.484 124.719 365.672 125.281C366.891 125.812 368.281 126.078 369.844 126.078C370.938 126.078 371.969 125.906 372.938 125.562C373.906 125.188 374.734 124.672 375.422 124.016C376.141 123.359 376.703 122.562 377.109 121.625C377.516 120.656 377.719 119.578 377.719 118.391C377.719 116.984 377.438 115.688 376.875 114.5C376.312 113.281 375.562 112.125 374.625 111.031C373.688 109.906 372.625 108.828 371.438 107.797C370.281 106.766 369.078 105.719 367.828 104.656C366.578 103.594 365.359 102.516 364.172 101.422C363.016 100.297 361.969 99.0938 361.031 97.8125C360.094 96.5312 359.344 95.1719 358.781 93.7344C358.219 92.2656 357.938 90.6562 357.938 88.9062C357.938 87.0625 358.328 85.4062 359.109 83.9375C359.891 82.4688 360.922 81.2344 362.203 80.2344C363.484 79.2031 364.953 78.4219 366.609 77.8906C368.266 77.3281 369.984 77.0469 371.766 77.0469C373.078 77.0469 374.297 77.1406 375.422 77.3281C376.578 77.5156 377.609 77.75 378.516 78.0312C379.453 78.2812 380.266 78.5469 380.953 78.8281C381.641 79.0781 382.203 79.2812 382.641 79.4375L382.406 87.4062ZM434.531 109.672C434.531 112.328 434.562 114.656 434.625 116.656C434.719 118.625 434.812 120.328 434.906 121.766C435.031 123.203 435.172 124.406 435.328 125.375C435.516 126.344 435.703 127.156 435.891 127.812V128H424.641V127.812C424.828 127.156 425 126.344 425.156 125.375C425.344 124.406 425.5 123.203 425.625 121.766C425.75 120.328 425.844 118.625 425.906 116.656C425.969 114.656 426 112.328 426 109.672V79.1562C426 76.5 425.969 74.1875 425.906 72.2188C425.844 70.2188 425.75 68.5 425.625 67.0625C425.5 65.5938 425.344 64.375 425.156 63.4062C425 62.4375 424.828 61.625 424.641 60.9688V60.7812C427.234 60.7812 429.859 60.7812 432.516 60.7812C435.172 60.75 437.75 60.7344 440.25 60.7344C442.75 60.7031 445.125 60.6719 447.375 60.6406C449.625 60.5781 451.656 60.5312 453.469 60.5C455.281 60.4375 456.812 60.375 458.062 60.3125C459.312 60.2188 460.203 60.125 460.734 60.0312L458.438 66.2656C457.406 65.9844 456.203 65.7344 454.828 65.5156C453.641 65.3281 452.188 65.1562 450.469 65C448.781 64.8125 446.828 64.7188 444.609 64.7188C443.859 64.7188 442.922 64.75 441.797 64.8125C440.672 64.8438 439.562 64.8906 438.469 64.9531C437.219 65.0156 435.906 65.0781 434.531 65.1406V88.8125C437.75 88.7812 440.703 88.6875 443.391 88.5312C446.078 88.375 448.391 88.2188 450.328 88.0625C452.578 87.875 454.609 87.6562 456.422 87.4062L455.016 94.2031C452.672 93.9219 450.297 93.6562 447.891 93.4062C445.828 93.1875 443.609 93 441.234 92.8438C438.859 92.6562 436.625 92.5625 434.531 92.5625V109.672ZM470.062 96.875C470.062 94.0625 470.031 91.625 469.969 89.5625C469.906 87.4688 469.812 85.6719 469.688 84.1719C469.594 82.6406 469.453 81.3594 469.266 80.3281C469.109 79.2969 468.922 78.4531 468.703 77.7969V77.6094H479.578V77.7969C479.359 78.4531 479.156 79.2969 478.969 80.3281C478.812 81.3594 478.672 82.6406 478.547 84.1719C478.453 85.6719 478.375 87.4688 478.312 89.5625C478.25 91.625 478.219 94.0625 478.219 96.875V108.688C478.219 111.5 478.25 113.953 478.312 116.047C478.375 118.141 478.453 119.953 478.547 121.484C478.672 122.984 478.812 124.25 478.969 125.281C479.156 126.312 479.359 127.156 479.578 127.812V128H468.703V127.812C468.922 127.156 469.109 126.312 469.266 125.281C469.453 124.25 469.594 122.984 469.688 121.484C469.812 119.953 469.906 118.141 469.969 116.047C470.031 113.953 470.062 111.5 470.062 108.688V96.875ZM537.656 128.656H535.828L498.562 92V108.688C498.562 111.5 498.578 113.953 498.609 116.047C498.641 118.141 498.688 119.953 498.75 121.484C498.844 122.984 498.953 124.25 499.078 125.281C499.234 126.312 499.422 127.156 499.641 127.812V128H492.609V127.812C492.828 127.156 493.016 126.312 493.172 125.281C493.328 124.25 493.453 122.984 493.547 121.484C493.641 119.953 493.703 118.141 493.734 116.047C493.766 113.953 493.781 111.5 493.781 108.688V96.875C493.781 94.0625 493.766 91.625 493.734 89.5625C493.703 87.4688 493.641 85.6719 493.547 84.1719C493.453 82.6406 493.328 81.3594 493.172 80.3281C493.016 79.2969 492.828 78.4531 492.609 77.7969V77.6094H495.516L532.828 114.453V96.875C532.828 94.0625 532.812 91.625 532.781 89.5625C532.75 87.4688 532.688 85.6719 532.594 84.1719C532.531 82.6406 532.438 81.3594 532.312 80.3281C532.188 79.2969 532.016 78.4531 531.797 77.7969V77.6094H538.781V77.7969C538.562 78.4531 538.375 79.2969 538.219 80.3281C538.094 81.3594 537.984 82.6406 537.891 84.1719C537.797 85.6719 537.734 87.4688 537.703 89.5625C537.672 91.625 537.656 94.0625 537.656 96.875V128.656ZM560.812 80.9375C560.781 83.5 560.75 85.9844 560.719 88.3906C560.719 89.4219 560.703 90.4844 560.672 91.5781C560.672 92.6406 560.656 93.7031 560.625 94.7656C560.625 95.8281 560.625 96.8438 560.625 97.8125C560.625 98.75 560.625 99.5938 560.625 100.344C560.625 101.906 560.625 103.797 560.625 106.016C560.656 108.203 560.688 110.453 560.719 112.766C560.75 115.078 560.797 117.312 560.859 119.469C560.922 121.594 561 123.375 561.094 124.812C561.406 124.875 561.812 124.938 562.312 125C562.812 125.031 563.328 125.078 563.859 125.141C564.422 125.172 564.969 125.203 565.5 125.234C566.031 125.234 566.484 125.234 566.859 125.234C568.578 125.234 570.312 125.125 572.062 124.906C573.844 124.688 575.547 124.281 577.172 123.688C578.828 123.062 580.375 122.219 581.812 121.156C583.25 120.094 584.5 118.734 585.562 117.078C586.656 115.391 587.5 113.375 588.094 111.031C588.719 108.656 589.031 105.859 589.031 102.641C589.031 95.5469 587.328 90.0781 583.922 86.2344C580.547 82.3906 575.5 80.4688 568.781 80.4688C568.125 80.4688 567.422 80.4844 566.672 80.5156C565.953 80.5469 565.234 80.5938 564.516 80.6562C563.797 80.6875 563.109 80.7344 562.453 80.7969C561.828 80.8594 561.281 80.9062 560.812 80.9375ZM551.109 77.5156C551.859 77.5469 552.562 77.5625 553.219 77.5625C553.781 77.5938 554.328 77.6094 554.859 77.6094C555.391 77.6094 555.781 77.6094 556.031 77.6094C556.469 77.6094 557.25 77.5938 558.375 77.5625C559.5 77.5312 560.766 77.5 562.172 77.4688C563.609 77.4062 565.109 77.3594 566.672 77.3281C568.266 77.2656 569.734 77.2344 571.078 77.2344C574.734 77.2344 578.219 77.6562 581.531 78.5C584.844 79.3438 587.75 80.7344 590.25 82.6719C592.781 84.5781 594.781 87.0938 596.25 90.2188C597.719 93.3125 598.453 97.1406 598.453 101.703C598.453 106.609 597.609 110.766 595.922 114.172C594.234 117.578 591.953 120.359 589.078 122.516C586.203 124.641 582.859 126.188 579.047 127.156C575.266 128.094 571.266 128.562 567.047 128.562C566.047 128.562 564.797 128.531 563.297 128.469C561.797 128.406 560.266 128.344 558.703 128.281C557.141 128.219 555.656 128.156 554.25 128.094C552.875 128.031 551.828 128 551.109 128V127.812C551.328 127.156 551.516 126.312 551.672 125.281C551.859 124.25 552 122.984 552.094 121.484C552.219 119.953 552.312 118.141 552.375 116.047C552.438 113.953 552.469 111.5 552.469 108.688V96.875C552.469 94.0625 552.438 91.6094 552.375 89.5156C552.312 87.4219 552.219 85.6094 552.094 84.0781C552 82.5469 551.859 81.2656 551.672 80.2344C551.516 79.2031 551.328 78.3594 551.109 77.7031V77.5156ZM631.219 87.4062H630.281C630.094 86.875 629.781 86.2031 629.344 85.3906C628.938 84.5781 628.375 83.7812 627.656 83C626.969 82.2188 626.109 81.5625 625.078 81.0312C624.047 80.4688 622.812 80.1875 621.375 80.1875C620.281 80.1875 619.297 80.375 618.422 80.75C617.578 81.0938 616.859 81.5781 616.266 82.2031C615.672 82.8281 615.219 83.5781 614.906 84.4531C614.594 85.2969 614.438 86.2188 614.438 87.2188C614.438 88.8438 614.922 90.3906 615.891 91.8594C616.891 93.3281 618.125 94.7969 619.594 96.2656C621.062 97.7031 622.656 99.1562 624.375 100.625C626.094 102.094 627.688 103.625 629.156 105.219C630.625 106.812 631.844 108.5 632.812 110.281C633.812 112.062 634.312 113.969 634.312 116C634.312 117.5 634.031 119.047 633.469 120.641C632.938 122.234 632.062 123.672 630.844 124.953C629.625 126.234 628.062 127.281 626.156 128.094C624.25 128.938 621.938 129.359 619.219 129.359C617.719 129.359 616.281 129.234 614.906 128.984C613.562 128.734 612.312 128.422 611.156 128.047C610.031 127.703 609.016 127.328 608.109 126.922C607.234 126.484 606.5 126.078 605.906 125.703L606.75 116.844H607.734C608.047 117.938 608.5 119.031 609.094 120.125C609.719 121.219 610.469 122.219 611.344 123.125C612.25 124 613.297 124.719 614.484 125.281C615.703 125.812 617.094 126.078 618.656 126.078C619.75 126.078 620.781 125.906 621.75 125.562C622.719 125.188 623.547 124.672 624.234 124.016C624.953 123.359 625.516 122.562 625.922 121.625C626.328 120.656 626.531 119.578 626.531 118.391C626.531 116.984 626.25 115.688 625.688 114.5C625.125 113.281 624.375 112.125 623.438 111.031C622.5 109.906 621.438 108.828 620.25 107.797C619.094 106.766 617.891 105.719 616.641 104.656C615.391 103.594 614.172 102.516 612.984 101.422C611.828 100.297 610.781 99.0938 609.844 97.8125C608.906 96.5312 608.156 95.1719 607.594 93.7344C607.031 92.2656 606.75 90.6562 606.75 88.9062C606.75 87.0625 607.141 85.4062 607.922 83.9375C608.703 82.4688 609.734 81.2344 611.016 80.2344C612.297 79.2031 613.766 78.4219 615.422 77.8906C617.078 77.3281 618.797 77.0469 620.578 77.0469C621.891 77.0469 623.109 77.1406 624.234 77.3281C625.391 77.5156 626.422 77.75 627.328 78.0312C628.266 78.2812 629.078 78.5469 629.766 78.8281C630.453 79.0781 631.016 79.2812 631.453 79.4375L631.219 87.4062Z" fill="white"/>
<g clip-path="url(#clip0_63_76)">
<path d="M664.928 133.639C665.674 145.322 666.276 155.323 666.379 156.396C663.291 159.429 651.16 158.536 648.807 157.942C648.271 141.232 647.959 129.279 647.602 121.43C647.537 119.987 646.224 103.189 645.986 98.1938L657.682 76.0281H664.104L681.221 100.782C681.964 104.17 683.69 112.394 684.729 117.335C685.837 121.076 693.869 150.571 694.76 154.613C692.235 157.021 681.976 159.072 676.577 157.507C672.415 140.151 662.765 102.548 662.764 102.548C663.419 110.498 664.235 122.794 664.928 133.639Z" fill="white"/>
<path d="M661.957 76.0281H646.516C646.464 85.0365 645.986 98.1938 645.986 98.1938C646.224 103.189 647.537 119.987 647.602 121.43C647.959 129.279 648.271 141.232 648.807 157.942C651.16 158.536 663.291 159.427 666.379 156.396C666.182 154.327 664.123 119.061 662.763 102.546C667.548 119.995 672.414 140.147 676.577 157.505C681.975 159.07 692.235 157.02 694.76 154.612C693.869 150.569 685.84 121.073 684.732 117.333C683.692 112.391 681.962 104.168 681.22 100.781C681.22 100.781 677.119 84.0218 675.164 76.0281H661.957Z" fill="white"/>
<path d="M676.878 20.0941C677.071 19.9263 677.298 19.8022 677.544 19.7303C677.79 19.6583 678.049 19.6403 678.302 19.6775C678.551 19.7125 678.788 19.8028 678.998 19.9417C679.207 20.0806 679.382 20.2647 679.511 20.4803C679.66 20.778 679.745 21.1038 679.76 21.4364C679.868 22.7377 679.617 24.0437 679.033 25.2119C678.759 25.8024 678.359 26.3265 677.863 26.7484C677.46 27.0753 676.979 27.292 676.467 27.3774L676.226 27.4151C676.112 27.8434 675.983 28.2043 675.92 28.3961C675.507 29.5156 673.171 33.43 670.249 34.769C670.279 35.546 670.362 36.3199 670.497 37.0855C670.643 37.9192 670.597 38.6641 671.749 39.0828C671.826 39.1105 675.093 40.6747 675.209 40.7229L670.772 44.1949C668.487 44.6624 666.157 44.8831 663.824 44.8532C661.84 44.8849 659.864 44.6031 657.968 44.0183C657.964 44.0183 654.152 40.5944 654.152 40.5944C654.374 40.5182 658.018 38.8034 658.094 38.7757C659.246 38.3571 659.201 37.6117 659.346 36.778C659.47 36.1037 659.55 35.422 659.584 34.7373C658.256 34.064 657.087 33.115 656.156 31.9537C655.077 30.6312 654.291 29.0956 653.848 27.4476L653.392 27.3774C652.881 27.2921 652.4 27.0757 651.998 26.7492C651.501 26.3273 651.102 25.8032 650.827 25.2127C650.243 24.0446 649.992 22.7385 650.101 21.4372C650.116 21.1046 650.201 20.7788 650.35 20.4811C650.478 20.2655 650.654 20.0815 650.863 19.9426C651.072 19.8037 651.31 19.7134 651.558 19.6783C651.812 19.6411 652.07 19.6591 652.316 19.731C652.562 19.8029 652.789 19.9271 652.983 20.0949C652.983 20.0949 652.931 9.73218 664.794 9.73218C676.658 9.73218 676.878 20.0941 676.878 20.0941Z" fill="white"/>
<path d="M672.941 35.6838C675.594 35.6614 678.224 35.1863 680.717 34.2789C680.781 34.2553 680.839 34.2159 680.884 34.1645C680.929 34.113 680.96 34.0511 680.975 33.9843C680.99 33.9175 680.989 33.848 680.97 33.7822C680.951 33.7163 680.916 33.6562 680.868 33.6073C679.303 31.9669 678.079 29.2723 677.632 26.9133C677.218 27.1992 676.734 27.3688 676.231 27.4046C676.115 27.8462 675.981 28.2215 675.917 28.4177C675.472 29.6227 672.79 34.0846 669.545 35.0544C670.624 35.488 671.778 35.702 672.941 35.6838Z" fill="#B5886A"/>
<path d="M650.828 25.2126C651.103 25.8031 651.502 26.3272 651.998 26.7492C652.401 27.0761 652.882 27.2929 653.393 27.3782L653.837 27.4468C654.28 29.1025 655.069 30.6456 656.152 31.9741C657.511 33.6005 659.077 34.7321 660.806 35.2254C659.81 35.3811 659.13 35.4887 659.13 35.4887C657.435 35.756 653.147 35.569 651.667 34.9532C650.453 34.4479 649.163 33.8181 648.138 33.2907C648.109 33.2755 648.084 33.2533 648.065 33.226C648.047 33.1988 648.036 33.1674 648.033 33.1347C648.03 33.1021 648.036 33.0692 648.049 33.0391C648.062 33.0091 648.082 32.9828 648.108 32.9627C649.066 32.1561 649.803 31.1194 650.251 29.9499C650.698 28.7804 650.842 27.5163 650.667 26.2763L650.828 25.2126Z" fill="#B5886A"/>
<path d="M652.858 19.9395C655.184 18.0413 659.817 15.0851 662.043 13.1708C661.86 14.3072 661.209 16.2399 662.029 16.0412C665.452 15.2484 668.732 13.6497 670.711 11.1502C671.11 12.6445 671.652 14.0969 672.329 15.4873C673.068 16.7517 675.216 19.6802 677.091 19.9331C677.452 19.7076 677.881 19.617 678.302 19.6774C678.377 19.6882 678.451 19.705 678.523 19.7276C679.526 17.3851 679.021 13.4225 678.62 11.4465C677.382 5.32803 671.267 0.471186 664.855 0.826017C658.442 0.471186 652.327 5.32803 651.087 11.4465C650.769 13.3639 650.772 15.3209 651.097 17.2373L651.557 19.6774C651.811 19.6403 652.069 19.6582 652.315 19.7302C652.561 19.8021 652.788 19.9262 652.982 20.0941" fill="#B5886A"/>
<path d="M651.872 17.0239C651.583 15.4769 651.544 13.8934 651.757 12.334C651.955 10.8022 652.472 9.32895 653.276 8.00983C654.946 5.21424 657.584 3.12944 660.69 2.1515C662.281 1.71906 663.93 1.53666 665.576 1.61083C667.176 1.62449 668.757 1.95718 670.226 2.58942C673.235 3.87797 675.665 6.22791 677.053 9.19193C677.695 10.7101 678.081 12.3242 678.195 13.9685C678.376 15.7856 678.462 17.7697 677.759 19.4933C677.704 19.6987 677.732 19.9176 677.837 20.1024C677.942 20.2873 678.116 20.4232 678.321 20.4807C678.526 20.532 678.744 20.5023 678.928 20.3976C679.111 20.293 679.248 20.1215 679.309 19.9187C679.998 18.2289 679.988 16.2621 679.848 14.4714C679.759 12.8194 679.456 11.1859 678.945 9.61218C677.694 6.19394 675.218 3.36205 671.997 1.66542C670.381 0.806065 668.614 0.265224 666.793 0.0722915C665.908 0.00138591 665.02 -0.0209918 664.133 0.00525893C663.201 0.0126617 662.273 0.116507 661.363 0.315134C657.802 1.12889 654.664 3.22239 652.544 6.19794C651.388 7.77977 650.607 9.60419 650.26 11.5328C649.914 13.4924 649.936 15.4994 650.324 17.451C650.547 18.4593 652.095 18.0326 651.872 17.0239Z" fill="#211715"/>
<path d="M669.99 11.5501C670.544 13.4366 671.169 15.3292 672.323 16.94C673.392 18.4316 674.843 20.2471 676.726 20.683C677.729 20.9154 678.16 19.368 677.152 19.1348C676.42 18.9073 675.762 18.4886 675.245 17.9218C674.632 17.3227 674.077 16.6659 673.59 15.9606C672.574 14.5051 672.034 12.8141 671.538 11.1234C671.248 10.134 669.698 10.555 669.99 11.5501Z" fill="#211715"/>
<path d="M670.181 10.547C668.751 12.2556 666.901 13.5625 664.813 14.3393C664.276 14.5534 663.731 14.7423 663.177 14.9061C662.886 14.9931 662.593 15.0743 662.299 15.1498C662.163 15.1699 662.028 15.2028 661.898 15.2481C661.693 15.2856 661.792 15.3123 662.194 15.3284L662.434 15.623C662.406 15.6182 662.428 15.5656 662.428 15.5198C662.428 15.4364 662.435 15.3533 662.444 15.2702C662.464 15.0851 662.505 14.9017 662.542 14.7195C662.633 14.2743 662.743 13.8328 662.818 13.3844C662.859 13.2148 662.844 13.0365 662.776 12.8759C662.707 12.7154 662.589 12.5813 662.438 12.4935C662.287 12.4058 662.112 12.3691 661.938 12.389C661.765 12.4088 661.603 12.4841 661.475 12.6037C658.583 15.0755 655.244 16.9749 652.291 19.3724C652.142 19.5236 652.058 19.7275 652.058 19.94C652.058 20.1524 652.142 20.3563 652.291 20.5075C652.444 20.6537 652.647 20.7352 652.858 20.7352C653.07 20.7352 653.273 20.6537 653.426 20.5075C656.379 18.11 659.716 16.2126 662.611 13.7393L661.27 12.9578C661.105 13.9263 660.588 15.1345 660.909 16.1099C660.999 16.3758 661.187 16.5972 661.436 16.7284C661.684 16.8596 661.973 16.8908 662.243 16.8155C662.946 16.6681 663.638 16.4718 664.313 16.2279C666.962 15.3272 669.546 13.8998 671.316 11.6821C671.461 11.5287 671.542 11.3256 671.542 11.1146C671.542 10.9035 671.461 10.7005 671.316 10.547C671.165 10.3978 670.961 10.3141 670.749 10.3141C670.536 10.3141 670.332 10.3978 670.181 10.547Z" fill="#211715"/>
<path d="M677.446 20.6617C677.545 20.5836 677.659 20.5262 677.781 20.4928C677.903 20.4594 678.03 20.4507 678.155 20.4672C678.28 20.4837 678.401 20.5251 678.51 20.5889C678.619 20.6527 678.714 20.7376 678.79 20.8387C678.941 21.1538 679.007 21.5031 678.981 21.8518C678.996 22.2651 678.967 22.6787 678.897 23.0861C678.629 24.5532 677.885 26.3121 676.255 26.6043C676.05 26.6622 675.877 26.7981 675.771 26.9829C675.666 27.1676 675.638 27.3863 675.693 27.5917C675.753 27.7947 675.889 27.9665 676.074 28.0713C676.258 28.176 676.475 28.2055 676.68 28.1537C679.182 27.7053 680.375 24.8815 680.564 22.6144C680.66 21.4468 680.564 20.1178 679.554 19.3632C679.075 19.0177 678.493 18.8459 677.903 18.8761C677.313 18.9063 676.751 19.1367 676.31 19.5293C676.161 19.6807 676.077 19.8845 676.077 20.0969C676.077 20.3093 676.161 20.5132 676.31 20.6645C676.462 20.811 676.666 20.8928 676.877 20.8928C677.089 20.8928 677.292 20.811 677.445 20.6645L677.446 20.6617Z" fill="#211715"/>
<path d="M675.646 26.0527C675.6 26.671 675.468 27.28 675.255 27.8622C675.23 27.9393 675.057 28.4001 675.16 28.1632C675.104 28.2905 675.045 28.4157 674.983 28.5393C674.602 29.2791 674.162 29.9866 673.667 30.6547C672.522 32.2245 670.968 33.8879 669.008 34.3475C668.004 34.5835 668.428 36.1321 669.435 35.8961C671.784 35.3446 673.607 33.4243 674.989 31.553C676.182 29.9374 677.169 28.1062 677.252 26.0539C677.292 25.0207 675.686 25.0227 675.646 26.0539V26.0527Z" fill="#211715"/>
<path d="M653.551 19.5266C653.11 19.1341 652.548 18.9038 651.958 18.8736C651.368 18.8434 650.786 19.0151 650.307 19.3604C649.296 20.1138 649.2 21.4476 649.297 22.6117C649.486 24.8787 650.679 27.7029 653.181 28.1509C653.386 28.2015 653.603 28.1714 653.786 28.0669C653.97 27.9623 654.107 27.7912 654.168 27.5889C654.223 27.3835 654.195 27.1648 654.089 26.9801C653.984 26.7954 653.811 26.6594 653.606 26.6015C651.976 26.3093 651.231 24.55 650.964 23.0833C650.897 22.6991 650.868 22.3092 650.878 21.9193C650.853 21.5662 650.909 21.212 651.042 20.8841C651.113 20.7744 651.207 20.6807 651.316 20.6092C651.426 20.5377 651.549 20.4898 651.679 20.4687C651.808 20.4476 651.94 20.4537 652.067 20.4866C652.193 20.5195 652.312 20.5784 652.414 20.6597C652.568 20.8052 652.771 20.8863 652.982 20.8863C653.193 20.8863 653.396 20.8052 653.55 20.6597C653.699 20.5084 653.782 20.3045 653.782 20.0921C653.782 19.8797 653.699 19.6759 653.55 19.5246L653.551 19.5266Z" fill="#211715"/>
<path d="M652.692 25.9529C653.069 28.387 654.088 30.6767 655.644 32.5859C657.306 34.5527 659.507 35.9745 662.098 36.2542C662.31 36.253 662.514 36.168 662.664 36.0177C662.814 35.8674 662.899 35.664 662.901 35.4514C662.896 35.24 662.81 35.0384 662.661 34.8889C662.511 34.7393 662.309 34.6533 662.098 34.6487C659.887 34.4098 658.041 32.9913 656.67 31.3199C655.316 29.6698 654.603 27.6042 654.24 25.5262C654.182 25.3216 654.046 25.148 653.861 25.0428C653.677 24.9377 653.458 24.9094 653.252 24.9643C653.049 25.0245 652.878 25.1609 652.773 25.345C652.668 25.529 652.639 25.7464 652.691 25.9517L652.692 25.9529Z" fill="#211715"/>
<path d="M649.894 26.492C650.02 27.5305 649.898 28.5841 649.539 29.5668C649.18 30.5494 648.594 31.4332 647.828 32.146C647.676 32.2465 647.546 32.3769 647.446 32.5291C647.346 32.6814 647.278 32.8525 647.246 33.0318C647.232 33.247 647.285 33.4611 647.397 33.645C647.51 33.8289 647.677 33.9733 647.875 34.0586C648.589 34.4576 649.349 34.7956 650.092 35.1355C650.685 35.4346 651.3 35.6867 651.932 35.8894C653.086 36.1721 654.267 36.332 655.455 36.3662C656.751 36.466 658.055 36.4322 659.344 36.2655C659.549 36.2079 659.723 36.0719 659.828 35.8871C659.933 35.7023 659.961 35.4835 659.906 35.278C659.845 35.0754 659.709 34.904 659.525 34.7994C659.341 34.6948 659.124 34.6649 658.919 34.7161C658.76 34.7402 658.312 34.7739 658.019 34.7871C657.589 34.806 657.159 34.8096 656.729 34.804C655.793 34.7942 654.858 34.7359 653.928 34.6294C653.242 34.5693 652.567 34.4231 651.918 34.1943C651.347 33.9727 650.791 33.7006 650.239 33.4381C649.971 33.3101 649.703 33.1802 649.436 33.0483C649.154 32.9484 648.885 32.8174 648.633 32.6577L648.839 33.0122L648.809 32.9239V33.3505C648.778 33.5468 649.01 33.2382 649.075 33.1751C649.203 33.0515 649.327 32.9233 649.445 32.7906C649.658 32.5485 649.859 32.2955 650.047 32.0324C650.452 31.4537 650.781 30.8256 651.028 30.1635C651.515 28.855 651.658 27.4434 651.444 26.0637C651.386 25.8588 651.251 25.6849 651.066 25.5797C650.881 25.4745 650.662 25.4465 650.456 25.5017C650.254 25.5627 650.083 25.6992 649.978 25.883C649.873 26.0669 649.843 26.2839 649.895 26.4891L649.894 26.492Z" fill="#211715"/>
<path d="M676.656 25.4992C676.767 27.1015 677.15 28.6732 677.789 30.1465C678.111 30.93 678.497 31.6854 678.944 32.4048C679.165 32.7564 679.406 33.094 679.661 33.4219C679.778 33.572 679.897 33.7213 680.022 33.8654C680.083 33.9355 680.144 34.005 680.208 34.0738C680.503 33.6188 680.513 33.4606 680.238 33.5989C679.851 33.6876 679.473 33.8084 679.107 33.9602C678.705 34.0771 678.301 34.1841 677.893 34.2813C677.066 34.4816 676.229 34.6355 675.384 34.7421C673.813 34.9879 672.21 34.9388 670.656 34.5972C669.655 34.3375 669.228 35.8856 670.229 36.1453C673.019 36.8678 676.115 36.4107 678.859 35.695C679.878 35.4293 682.56 34.9376 681.634 33.3019C681.451 33.0404 681.246 32.7951 681.021 32.5685C680.802 32.2984 680.599 32.0161 680.412 31.7228C680.036 31.1368 679.703 30.5238 679.416 29.8888C678.767 28.5087 678.376 27.0212 678.263 25.5C678.205 24.4724 676.6 24.466 676.657 25.5L676.656 25.4992Z" fill="#211715"/>
<path d="M652.231 24.7844C652.584 24.8779 652.907 25.0624 653.167 25.3195C653.458 25.6322 653.654 26.0205 653.734 26.4398C653.814 26.8592 653.774 27.2925 653.618 27.6901C653.426 28.2124 653.046 28.644 652.552 28.8996C652.057 29.1553 651.485 29.2164 650.948 29.0711C650.411 28.9257 649.948 28.5844 649.65 28.1144C649.352 27.6444 649.241 27.0799 649.339 26.5321C649.428 25.9709 649.724 25.4635 650.169 25.1103C650.465 24.9024 650.805 24.7649 651.162 24.7084C651.52 24.6519 651.885 24.6779 652.231 24.7844Z" fill="white"/>
<path d="M676.542 24.9782C676.128 25.102 675.762 25.3487 675.492 25.6855C675.264 25.9756 675.114 26.3185 675.054 26.6825C674.994 27.0464 675.026 27.4196 675.149 27.7675C675.3 28.2721 675.635 28.7014 676.088 28.9699C676.542 29.2384 677.079 29.3265 677.594 29.2165C678.109 29.1065 678.564 28.8066 678.868 28.3765C679.172 27.9464 679.303 27.4175 679.235 26.8953C679.223 26.5762 679.137 26.2642 678.986 25.9833C678.834 25.7023 678.62 25.46 678.36 25.2748C678.099 25.0896 677.8 24.9666 677.485 24.9152C677.17 24.8638 676.847 24.8853 676.542 24.9782Z" fill="white"/>
<path d="M652.018 25.5583C652.065 25.5724 652.207 25.6474 652.248 25.6358C652.189 25.653 652.107 25.5659 652.205 25.6185C652.259 25.6478 652.314 25.6735 652.366 25.7044C652.425 25.7378 652.482 25.7752 652.535 25.8164C652.424 25.7273 652.527 25.8164 652.543 25.8325C652.588 25.8822 652.636 25.93 652.683 25.979C652.739 26.0476 652.736 26.0424 652.672 25.9637C652.696 25.9978 652.72 26.0328 652.742 26.0681C652.771 26.1154 652.905 26.3984 652.831 26.213C652.87 26.3114 652.903 26.4124 652.929 26.5152C652.95 26.5756 652.964 26.6387 652.969 26.7027C652.983 26.5048 652.966 26.6971 652.969 26.7428C652.983 26.871 652.979 27.0005 652.958 27.1278C653.007 26.9182 652.925 27.2405 652.909 27.2923C652.894 27.3554 652.873 27.4167 652.845 27.4754C652.949 27.2879 652.845 27.4581 652.828 27.4938C652.793 27.5853 652.74 27.6691 652.673 27.7407L652.728 27.6716C652.704 27.7021 652.678 27.7322 652.653 27.7616C652.613 27.8057 652.573 27.8483 652.532 27.8892C652.49 27.9293 652.445 27.9695 652.401 28.0096C652.256 28.1409 652.542 27.9261 652.375 28.0277C652.29 28.0791 652.209 28.1348 652.12 28.181C652.083 28.2003 651.92 28.3058 652.096 28.1999C652.06 28.2166 652.023 28.23 651.984 28.24C651.928 28.2597 651.871 28.2769 651.813 28.2918C651.79 28.2978 651.559 28.3584 651.685 28.3243C651.811 28.2902 651.632 28.3287 651.613 28.3299C651.552 28.3335 651.492 28.3351 651.431 28.3339C651.38 28.3339 651.33 28.3267 651.279 28.3247C651.159 28.3203 651.469 28.3737 651.279 28.3223C651.167 28.2918 651.057 28.2617 650.947 28.2256C650.836 28.1894 651.107 28.3183 650.947 28.2211C650.879 28.181 650.809 28.1465 650.742 28.1007C650.731 28.0931 650.589 27.9763 650.683 28.0606C650.777 28.1449 650.64 28.0204 650.633 28.012C650.593 27.9719 650.552 27.9317 650.512 27.8916C650.504 27.8832 650.376 27.7475 650.466 27.843C650.555 27.9386 650.438 27.8029 650.428 27.788C650.397 27.7415 650.367 27.6937 650.339 27.6447C650.316 27.6046 650.296 27.5621 650.273 27.5215C650.173 27.3429 650.304 27.6331 650.254 27.4834C650.225 27.3955 650.194 27.3092 650.172 27.2193C650.158 27.1659 650.149 27.1121 650.136 27.0587C650.093 26.8745 650.145 27.2446 650.136 27.0567C650.132 26.9676 650.125 26.8793 650.127 26.7894C650.127 26.7364 650.132 26.6842 650.136 26.6312C650.147 26.4586 650.088 26.8131 650.143 26.6075C650.159 26.5445 650.172 26.4811 650.192 26.4189L650.211 26.3591C650.243 26.274 650.238 26.2813 650.196 26.3812C650.194 26.3812 650.32 26.1403 650.326 26.1307C650.353 26.0861 650.384 26.044 650.412 25.9998C650.483 25.887 650.386 26.034 650.371 26.0464C650.44 25.9866 650.494 25.9003 650.56 25.8353C650.6 25.7951 650.643 25.759 650.685 25.7209C650.696 25.7104 650.709 25.7024 650.719 25.692C650.511 25.8846 650.583 25.7911 650.701 25.714C650.76 25.6739 650.821 25.6426 650.884 25.6069C651.063 25.5033 650.748 25.6438 650.938 25.5812C650.999 25.5611 651.059 25.541 651.121 25.5246C651.144 25.5186 651.381 25.4564 651.252 25.4917C651.124 25.527 651.296 25.4881 651.318 25.4865C651.39 25.4812 651.462 25.4792 651.535 25.4804C651.631 25.4804 651.726 25.4973 651.822 25.5001C651.551 25.4921 651.788 25.5001 651.869 25.5162C651.921 25.5278 651.972 25.541 652.024 25.5563C652.125 25.5843 652.231 25.592 652.336 25.579C652.441 25.566 652.542 25.5325 652.633 25.4804C652.725 25.4284 652.806 25.3587 652.87 25.2755C652.935 25.1924 652.983 25.0972 653.011 24.9956C653.039 24.8939 653.047 24.7877 653.034 24.6831C653.021 24.5784 652.987 24.4774 652.935 24.3857C652.883 24.294 652.813 24.2135 652.73 24.1487C652.647 24.0839 652.552 24.0361 652.45 24.0081C651.948 23.8546 651.416 23.8301 650.901 23.9369C650.387 24.0436 649.909 24.2783 649.509 24.619C649.085 25.0078 648.78 25.5084 648.627 26.0632C648.475 26.618 648.483 27.2044 648.649 27.7551C648.826 28.3872 649.206 28.9436 649.73 29.3383C650.255 29.7331 650.895 29.9443 651.551 29.9395C652.082 29.9303 652.602 29.7838 653.06 29.5142C653.518 29.2446 653.899 28.861 654.165 28.4008C654.431 27.9406 654.573 27.4195 654.578 26.8881C654.583 26.3566 654.45 25.833 654.192 25.368C654.005 25.038 653.754 24.7483 653.454 24.5156C653.154 24.2829 652.811 24.1118 652.445 24.0121C652.239 23.9556 652.02 23.9829 651.835 24.088C651.65 24.1932 651.514 24.3676 651.457 24.5729C651.401 24.7782 651.428 24.9976 651.533 25.1827C651.638 25.3679 651.813 25.5037 652.018 25.5603V25.5583Z" fill="#211715"/>
<path d="M676.328 24.2039C675.715 24.3918 675.179 24.7723 674.799 25.289C674.419 25.8057 674.216 26.4311 674.22 27.0723C674.243 27.722 674.471 28.3477 674.871 28.8598C675.272 29.3718 675.824 29.7437 676.449 29.9222C677.063 30.1024 677.721 30.0628 678.309 29.8101C678.897 29.5575 679.378 29.1076 679.67 28.5382C679.91 28.0778 680.035 27.566 680.033 27.0468C680.031 26.5276 679.903 26.0167 679.66 25.5578C679.336 24.9926 678.832 24.5521 678.228 24.3065C677.624 24.0609 676.956 24.0244 676.329 24.2027C676.227 24.2308 676.132 24.2786 676.049 24.3434C675.966 24.4082 675.896 24.4887 675.844 24.5804C675.792 24.6722 675.759 24.7732 675.746 24.8779C675.733 24.9825 675.74 25.0887 675.768 25.1904C675.796 25.292 675.844 25.3871 675.909 25.4703C675.974 25.5535 676.054 25.6231 676.146 25.6752C676.238 25.7272 676.339 25.7607 676.444 25.7737C676.548 25.7867 676.654 25.7789 676.756 25.7509C676.833 25.7288 676.917 25.7232 676.992 25.7007C676.73 25.781 676.92 25.7096 677.017 25.7047C677.134 25.7 677.25 25.7023 677.366 25.7116C677.523 25.7224 677.321 25.7039 677.319 25.7051C677.339 25.6915 677.467 25.7364 677.491 25.7425C677.552 25.7581 677.612 25.7782 677.669 25.7975C677.808 25.8432 677.683 25.8051 677.657 25.7914C677.718 25.8231 677.777 25.8529 677.837 25.8886C677.857 25.9006 678.038 26.0383 677.906 25.9287C678.013 26.0001 678.105 26.0919 678.177 26.1989C678.104 26.0319 678.161 26.1804 678.19 26.2257C678.211 26.2571 678.23 26.2892 678.248 26.3217C678.275 26.3682 678.298 26.4168 678.323 26.4642C678.409 26.6247 678.267 26.2928 678.321 26.4573C678.367 26.6004 678.405 26.7459 678.435 26.8933C678.464 27.0293 678.414 26.6697 678.423 26.7957C678.423 26.8178 678.427 26.8399 678.429 26.862C678.434 26.9238 678.437 26.986 678.436 27.0478C678.423 27.1339 678.417 27.2212 678.421 27.3083L678.435 27.1999C678.429 27.2352 678.423 27.2702 678.415 27.3051C678.403 27.3669 678.388 27.4279 678.371 27.4885C678.358 27.5323 678.345 27.5752 678.331 27.6182L678.312 27.6696C678.281 27.7498 678.287 27.7378 678.331 27.6294C678.335 27.6844 678.232 27.8269 678.205 27.8731C678.177 27.9192 678.144 27.9654 678.114 28.0119C678.017 28.1637 678.202 27.9204 678.122 28.0019C678.051 28.0742 677.961 28.2187 677.863 28.2548C678.011 28.2002 677.928 28.2054 677.866 28.2451C677.826 28.2712 677.786 28.2957 677.744 28.3186L677.692 28.3455C677.612 28.3827 677.623 28.3795 677.724 28.3359C677.681 28.3587 677.634 28.3746 677.586 28.3828C677.541 28.3969 677.495 28.4089 677.448 28.4194L677.392 28.4306C677.303 28.4454 677.318 28.4434 677.438 28.4254C677.412 28.4631 677.141 28.4286 677.102 28.4278C676.911 28.4238 677.281 28.4679 677.094 28.4278C677.057 28.4202 677.021 28.4133 676.985 28.4045C676.873 28.3869 676.765 28.3521 676.664 28.3013C676.811 28.3973 676.744 28.3375 676.702 28.313C676.653 28.2853 676.602 28.2616 676.553 28.2327C676.504 28.2038 676.457 28.1741 676.41 28.1424C676.387 28.1267 676.364 28.1107 676.341 28.0938C676.294 28.0585 676.311 28.0719 676.393 28.134C676.316 28.1163 676.201 27.959 676.149 27.9024C676.145 27.8971 676.078 27.8337 676.076 27.8181L676.133 27.8931C676.11 27.8634 676.089 27.8333 676.068 27.8028C676.016 27.7257 675.975 27.6423 675.929 27.5644C675.835 27.4038 675.976 27.7306 675.922 27.5548C675.897 27.4721 675.868 27.3918 675.848 27.3075C675.835 27.2665 675.826 27.2238 675.824 27.1807C675.837 27.2878 675.839 27.2947 675.83 27.2019C675.827 27.159 675.825 27.116 675.825 27.0731C675.825 27.0189 675.825 26.9651 675.829 26.9125C675.829 26.8804 675.834 26.8479 675.837 26.8158C675.822 26.9228 675.822 26.9299 675.837 26.8371C675.87 26.7106 675.901 26.5874 675.945 26.4638C675.882 26.6444 675.954 26.4513 675.971 26.4192C676.006 26.3522 676.045 26.2871 676.088 26.2241C676.112 26.188 676.208 26.0865 676.104 26.1997C676.165 26.1318 676.231 26.07 676.294 26.0042C676.431 25.8589 676.206 26.0568 676.301 25.9925C676.356 25.9556 676.41 25.9175 676.466 25.8838C676.51 25.8581 676.554 25.8336 676.599 25.8111C676.693 25.7633 676.73 25.7951 676.564 25.8207C676.629 25.8026 676.692 25.7804 676.754 25.7541C676.855 25.7261 676.95 25.6783 677.034 25.6135C677.117 25.5487 677.186 25.4681 677.238 25.3764C677.29 25.2847 677.324 25.1836 677.337 25.079C677.35 24.9743 677.342 24.8681 677.314 24.7665C677.286 24.6648 677.238 24.5697 677.174 24.4865C677.109 24.4033 677.028 24.3337 676.936 24.2817C676.845 24.2296 676.744 24.1961 676.639 24.1831C676.534 24.1702 676.428 24.1779 676.327 24.2059L676.328 24.2039Z" fill="#211715"/>
<path d="M654.831 159.072C652.033 162.042 649.839 164.29 647.176 167.383C646.457 168.135 645.866 168.999 645.426 169.942C645.211 170.416 645.11 170.934 645.133 171.455C645.155 171.975 645.301 172.482 645.557 172.935C646.604 174.541 649.009 174.373 650.823 173.746C653.441 172.842 655.835 171.395 658.152 169.877C660.186 168.545 662.246 167.075 663.43 164.95C664.613 162.826 663.793 161.114 663.658 158.477" fill="white"/>
<path d="M693.361 155.95C694.164 157.644 695.297 160.939 696.784 163.177C698.298 165.457 699.591 167.876 700.644 170.402C701.191 171.716 701.664 173.252 701.001 174.512C700.359 175.732 698.836 176.238 697.457 176.195C695.467 176.131 693.338 174.333 691.838 173.024C689.796 171.239 686.567 167.112 686.211 165.795C686.022 164.918 685.908 164.026 685.871 163.129C685.648 160.784 685.545 159.538 685.365 158.1" fill="white"/>
<path d="M658.771 34.9697C658.735 35.4863 658.672 36.0008 658.583 36.511C658.543 36.8428 658.484 37.172 658.406 37.4968C658.394 37.537 658.32 37.7156 658.365 37.6237C658.416 37.5213 658.309 37.71 658.293 37.7377C658.223 37.8581 658.284 37.7433 658.306 37.722C658.276 37.7517 658.243 37.7842 658.215 37.8147C658.192 37.8392 658.101 37.8978 658.215 37.82C658.175 37.8485 658.131 37.8762 658.087 37.9002C657.94 37.9861 657.777 38.0423 657.574 38.1351C656.665 38.5525 655.761 38.9812 654.853 39.4014C654.618 39.5106 654.382 39.619 654.146 39.7266L653.894 39.8402C653.693 39.9309 654.081 39.7695 653.941 39.8197C653.739 39.8807 653.567 40.0173 653.463 40.2012C653.358 40.3851 653.328 40.6022 653.379 40.8075C653.437 41.0121 653.573 41.1858 653.758 41.2909C653.943 41.3961 654.161 41.4243 654.367 41.3695C654.745 41.2334 655.111 41.0443 655.475 40.8758C656.027 40.6213 656.578 40.3652 657.129 40.1075C657.544 39.9136 657.958 39.7185 658.373 39.5275C658.41 39.5102 658.449 39.495 658.485 39.4761C658.522 39.4572 658.299 39.5508 658.308 39.5508C658.368 39.5353 658.426 39.5123 658.48 39.4821C658.635 39.4226 658.785 39.3511 658.929 39.2682C659.358 39.0087 659.69 38.6146 659.872 38.1471C659.992 37.7941 660.071 37.4288 660.109 37.0581C660.223 36.3649 660.328 35.6717 660.375 34.9709C660.373 34.7585 660.288 34.5555 660.138 34.4053C659.988 34.2552 659.785 34.17 659.572 34.1681C659.361 34.172 659.159 34.2578 659.009 34.4075C658.859 34.5573 658.774 34.7592 658.77 34.9709L658.771 34.9697Z" fill="#211715"/>
<path d="M669.458 34.9697C669.514 35.9757 669.639 36.9766 669.833 37.9653C669.914 38.3906 670.106 38.7868 670.39 39.1134C670.674 39.44 671.04 39.6853 671.45 39.8242C671.707 39.9269 671.231 39.7174 671.413 39.8069C671.474 39.8366 671.534 39.8643 671.597 39.8928L672.174 40.1666C672.696 40.4143 673.217 40.6624 673.737 40.9107C674.093 41.0801 674.446 41.2615 674.808 41.4169C674.993 41.5175 675.21 41.5437 675.414 41.4902C675.618 41.4368 675.794 41.3076 675.906 41.1291C676.012 40.9449 676.041 40.7263 675.987 40.5207C675.933 40.3151 675.801 40.139 675.618 40.0305C674.85 39.7013 674.104 39.3128 673.35 38.9539C672.984 38.7797 672.619 38.6015 672.25 38.4321C672.016 38.325 671.894 38.2804 671.696 38.168C671.688 38.1632 671.589 38.0914 671.659 38.1463C671.73 38.2013 671.627 38.1134 671.611 38.0982C671.587 38.0761 671.566 38.0512 671.543 38.0283C671.565 38.05 671.626 38.1652 671.556 38.044C671.527 37.9938 671.5 37.936 671.467 37.8882C671.547 38.0038 671.498 37.9774 671.479 37.9163C671.468 37.8786 671.454 37.8413 671.443 37.8032C671.356 37.4416 671.29 37.0751 671.246 36.7057C671.153 36.1307 671.092 35.5508 671.064 34.9689C671.059 34.7574 670.973 34.5558 670.824 34.4063C670.674 34.2567 670.473 34.1706 670.261 34.1661C670.049 34.1681 669.846 34.2533 669.696 34.4035C669.545 34.5536 669.46 34.7566 669.458 34.9689V34.9697Z" fill="#211715"/>
<path d="M664.498 67.4459C665.238 64.5663 667.081 57.3188 667.404 55.7353C668.779 49.0072 670.846 45.3392 672.221 38.6095C675.237 39.8847 678.838 41.0154 681.646 42.6989C682.656 43.3193 683.407 44.2858 683.757 45.4183C684.805 49.3474 685.6 53.3397 686.136 57.3706C686.482 59.7492 688.098 66.707 687.474 70.2749C686.069 70.0939 684.229 69.9137 682.549 69.8021C682.469 74.3025 682.331 81.6091 682.331 81.6091C682.545 84.013 682.759 87.0447 682.925 89.4523C683.179 93.1419 683.88 96.9715 684.091 100.381C684.095 100.431 684.087 100.481 684.068 100.528C684.05 100.575 684.021 100.617 683.985 100.651C683.949 100.686 683.905 100.712 683.858 100.727C683.81 100.743 683.76 100.748 683.71 100.743C682.491 100.561 681.262 100.455 680.03 100.424C676.087 100.868 672.057 100.94 670.024 101.102C669.914 101.111 669.805 101.079 669.717 101.011C669.63 100.943 669.571 100.846 669.552 100.737C668.491 94.8004 665.845 83.4743 664.461 75.6271C663.991 72.9635 663.532 71.1363 664.22 68.5205C664.266 68.3442 664.364 67.9665 664.498 67.4459Z" fill="white"/>
<path d="M657.705 39.5022C657.696 39.2638 657.688 39.0256 657.682 38.7877C655.314 39.7149 653.18 40.2689 650.813 41.1961C649.716 41.626 648.087 42.6463 647.39 43.5968C646.664 44.8212 646.096 46.1325 645.699 47.4995C644.705 51.9995 643.766 54.6255 642.845 58.6791C642.147 61.7526 640.347 65.8147 640.645 69.9181C642.491 69.9181 646.33 69.7443 648.679 69.5416L648.673 69.6504C648.3 75.4762 648.111 81.1828 648.174 84.9169C651.207 84.7488 653.989 84.6123 655.469 84.5625C655.504 84.2904 655.53 84.1005 655.53 84.1005C656.667 75.4304 658.31 66.5837 658.414 65.5963C658.826 61.7112 658.718 57.792 658.609 53.8869C658.479 49.1729 657.88 44.2378 657.705 39.5022Z" fill="white"/>
<path d="M656.826 75.255C657.63 70.189 658.346 66.2373 658.414 65.5967C658.826 61.7116 658.718 57.7924 658.609 53.8873C658.52 50.6565 658.211 47.3217 657.97 44.019C659.866 44.6039 661.842 44.8856 663.826 44.8539C666.159 44.8838 668.489 44.6631 670.775 44.1957C669.624 47.923 668.35 51.1048 667.403 55.7353C667.021 57.605 664.521 67.3712 664.218 68.52C663.53 71.1359 663.99 72.963 664.459 75.6267C664.483 75.7605 664.507 75.8943 664.531 76.0281H656.704C656.745 75.7677 656.785 75.51 656.826 75.255Z" fill="#752293"/>
<path d="M654.263 158.504C651.92 160.992 649.548 163.452 647.296 166.024C646.198 167.278 644.908 168.587 644.482 170.25C644.101 171.735 644.472 173.336 645.747 174.264C646.845 175.067 648.307 175.088 649.596 174.882C651.125 174.568 652.598 174.027 653.966 173.277C655.522 172.479 657.029 171.591 658.482 170.618C659.812 169.793 661.062 168.845 662.214 167.785C663.438 166.602 664.551 165.107 664.793 163.382C665.023 161.746 664.555 160.107 664.461 158.475C664.402 157.448 662.796 157.441 662.855 158.475C662.932 159.806 663.254 161.125 663.257 162.457C663.216 163.687 662.736 164.862 661.902 165.768C660.984 166.817 659.927 167.737 658.762 168.502C657.51 169.366 656.222 170.188 654.904 170.948C653.592 171.726 652.211 172.383 650.78 172.911C649.751 173.277 648.568 173.564 647.48 173.303C647.221 173.25 646.976 173.145 646.758 172.994C646.541 172.843 646.357 172.65 646.216 172.426C646.076 172.202 645.982 171.951 645.941 171.69C645.9 171.429 645.912 171.162 645.977 170.906C646.237 169.477 647.39 168.35 648.308 167.299C650.596 164.676 653.013 162.171 655.398 159.638C656.107 158.886 654.974 157.748 654.263 158.502V158.504Z" fill="#211715"/>
<path d="M692.668 156.355C693.26 157.616 693.747 158.924 694.314 160.198C695.004 161.695 695.801 163.14 696.699 164.522C697.706 166.129 698.606 167.801 699.393 169.526C699.979 170.813 701.095 172.834 700.242 174.226C699.565 175.333 697.903 175.589 696.741 175.274C695.216 174.861 693.911 173.755 692.739 172.743C690.776 171.028 689.067 169.043 687.663 166.846C687.503 166.599 687.35 166.348 687.211 166.089C687.16 165.995 687.113 165.899 687.066 165.802C687.052 165.773 687.005 165.655 687.063 165.802C687.048 165.764 687.032 165.726 687.02 165.687C686.801 164.753 686.676 163.8 686.648 162.842C686.499 161.26 686.367 159.676 686.17 158.099C686.163 157.888 686.077 157.688 685.928 157.539C685.778 157.39 685.578 157.303 685.367 157.297C685.154 157.298 684.951 157.383 684.801 157.533C684.65 157.683 684.565 157.887 684.564 158.099C684.752 159.615 684.882 161.136 685.025 162.656C685.169 164.176 685.155 165.735 685.934 167.096C686.657 168.297 687.478 169.437 688.388 170.504C689.264 171.61 690.229 172.642 691.273 173.591C692.623 174.78 694.048 175.966 695.739 176.631C696.502 176.933 697.325 177.054 698.143 176.984C698.961 176.914 699.752 176.656 700.453 176.229C702.103 175.149 702.38 173.243 701.872 171.45C701.332 169.546 700.347 167.693 699.404 165.963C698.387 164.1 697.122 162.386 696.2 160.472C695.422 158.856 694.817 157.166 694.056 155.543C693.617 154.609 692.233 155.423 692.67 156.354L692.668 156.355Z" fill="#211715"/>
<path d="M670.561 43.4218C668.467 43.8665 666.329 44.077 664.188 44.0496C663.154 44.0743 662.12 44.0229 661.094 43.8959C660.577 43.824 660.065 43.7197 659.558 43.6012C659.042 43.417 658.509 43.288 657.966 43.2163C656.933 43.2163 656.931 44.8219 657.966 44.8219C658.049 44.8219 658.465 44.9856 658.638 45.0294C658.907 45.0976 659.177 45.1623 659.448 45.2213C659.97 45.3353 660.499 45.4244 661.031 45.4938C662.127 45.6255 663.232 45.6792 664.337 45.6544C666.572 45.67 668.802 45.4412 670.988 44.972C671.991 44.7352 671.568 43.1866 670.561 43.4238V43.4218Z" fill="#211715"/>
<path d="M682.443 80.5964C682.724 80.0208 683.082 79.3726 683.549 78.5256C684.021 77.6715 683.83 76.7964 683.995 76.2509C684.504 74.5651 684.974 72.1768 685.333 70.4532C685.333 70.4532 685.365 70.2995 685.419 70.0422C683.638 69.864 681.662 69.7211 680.205 69.6958C680.148 69.9242 680.115 70.0518 680.115 70.0518C679.698 71.669 679.558 73.8807 679.14 75.4979C679.122 75.6154 679.069 75.7245 678.987 75.8106C678.881 75.9009 678.725 75.8724 678.59 75.9029C676.491 76.3084 674.558 77.3234 673.033 78.8211C676.139 79.7788 678.985 80.592 682.04 81.5212C682.153 81.221 682.286 80.9207 682.443 80.5964Z" fill="white"/>
<path d="M657.468 38.0139C656.016 38.5779 654.532 39.0475 653.055 39.5416C651.725 39.9287 650.437 40.4483 649.21 41.0926C648.161 41.6346 647.256 42.4189 646.571 43.3805C646.075 44.2301 645.661 45.1249 645.335 46.053C644.972 47.1182 644.679 48.2057 644.456 49.3087C644.143 50.5843 643.8 51.8519 643.453 53.1183C642.778 55.574 642.242 58.0719 641.521 60.5132C640.616 63.5754 639.634 66.6826 639.844 69.9182C639.911 70.9437 641.517 70.9514 641.45 69.9182C641.269 67.1313 642.02 64.4472 642.811 61.804C643.524 59.4202 644.057 56.9921 644.713 54.5918C645.034 53.4197 645.361 52.2493 645.667 51.0732C645.982 49.8598 646.2 48.6083 646.558 47.4081C646.824 46.5518 647.161 45.7193 647.566 44.9195C647.951 44.1154 648.548 43.4313 649.292 42.9402C650.511 42.1732 651.831 41.5812 653.215 41.1813C654.78 40.6523 656.356 40.1618 657.895 39.5633C658.098 39.5016 658.269 39.3649 658.373 39.1812C658.478 38.9975 658.508 38.7807 658.457 38.5755C658.4 38.3707 658.264 38.197 658.079 38.0918C657.894 37.9866 657.675 37.9585 657.47 38.0135L657.468 38.0139Z" fill="#211715"/>
<path d="M672.007 39.3834C674.693 40.5134 677.485 41.4057 680.079 42.7467C681.116 43.283 682.083 43.8405 682.676 44.8869C682.967 45.5033 683.174 46.1555 683.293 46.8265C683.454 47.4561 683.607 48.0871 683.754 48.7194C684.376 51.3951 684.844 54.1009 685.249 56.8167C685.545 58.806 685.948 60.7764 686.267 62.7621C686.473 64.0514 686.649 65.3471 686.745 66.65C686.864 67.7851 686.849 68.9303 686.7 70.0619C686.649 70.2671 686.68 70.4837 686.784 70.6674C686.889 70.851 687.059 70.9876 687.262 71.0493C687.467 71.1041 687.686 71.0759 687.87 70.9707C688.055 70.8656 688.191 70.6919 688.249 70.4873C688.639 68.1633 688.318 65.7509 687.985 63.4417C687.688 61.383 687.248 59.3475 686.932 57.2948C686.495 54.4521 686.055 51.6163 685.422 48.8093C685.178 47.4329 684.831 46.077 684.382 44.7533C683.906 43.587 683.064 42.6075 681.982 41.9632C679.008 40.1726 675.619 39.1739 672.436 37.8345C672.23 37.7791 672.011 37.8071 671.826 37.9123C671.641 38.0175 671.505 38.1915 671.448 38.3964C671.397 38.6017 671.427 38.8187 671.531 39.0025C671.636 39.1863 671.807 39.3229 672.01 39.3838L672.007 39.3834Z" fill="#211715"/>
<path d="M677.484 64.865C677.484 66.4962 677.504 68.1275 677.505 69.7591C677.507 69.9714 677.592 70.1744 677.742 70.3245C677.892 70.4746 678.095 70.5598 678.308 70.5619C681.372 70.4549 684.441 70.628 687.474 71.0793C687.687 71.0781 687.89 70.9931 688.04 70.8428C688.191 70.6925 688.276 70.4891 688.277 70.2765C688.272 70.0652 688.186 69.864 688.036 69.7145C687.887 69.5651 687.685 69.4788 687.474 69.4738C684.441 69.0225 681.372 68.8493 678.308 68.9564L679.11 69.7591C679.11 68.1275 679.09 66.4962 679.089 64.865C679.089 63.8318 677.484 63.8302 677.484 64.865Z" fill="#211715"/>
<path d="M671.447 38.396C670.687 42.0808 669.45 45.6063 668.312 49.1835C667.456 51.8752 666.867 54.6151 666.206 57.3562C665.629 59.7497 665.022 62.1368 664.416 64.5231C663.914 66.4975 663.192 68.5647 663.082 70.607C662.979 72.5024 663.427 74.3953 663.759 76.2489C664.058 77.9139 664.381 79.5745 664.713 81.2326C665.418 84.7432 666.17 88.2438 666.913 91.7459C667.548 94.7391 668.196 97.7319 668.741 100.743C668.764 100.945 668.832 101.14 668.94 101.312C669.049 101.484 669.194 101.63 669.366 101.739C669.723 101.899 670.122 101.945 670.506 101.87C671.279 101.819 672.054 101.784 672.827 101.747C674.842 101.648 676.857 101.539 678.866 101.345C679.408 101.273 679.953 101.238 680.5 101.24C680.941 101.257 681.383 101.283 681.822 101.32C682.401 101.37 682.974 101.472 683.553 101.523C683.741 101.551 683.934 101.534 684.114 101.473C684.295 101.412 684.459 101.309 684.592 101.172C684.978 100.754 684.886 100.198 684.845 99.6798C684.765 98.6519 684.649 97.6267 684.524 96.6036C684.269 94.5023 683.973 92.4054 683.792 90.2961C683.627 88.3549 683.517 86.4082 683.368 84.4659C683.294 83.5121 683.216 82.559 683.133 81.6063C683.128 81.3951 683.042 81.194 682.892 81.0446C682.743 80.8952 682.542 80.8089 682.331 80.8035C682.118 80.8051 681.915 80.8902 681.765 81.0404C681.614 81.1906 681.529 81.3939 681.528 81.6063C681.797 84.6569 681.944 87.7191 682.229 90.7677C682.382 92.4074 682.598 94.0403 682.803 95.6739C682.903 96.4719 683.001 97.2699 683.087 98.0694C683.235 98.8708 683.297 99.6857 683.274 100.5L683.383 100.095L683.426 100.039L683.831 99.9291C683.467 99.9234 683.104 99.8846 682.747 99.8131C682.299 99.7577 681.849 99.7139 681.398 99.6818C679.942 99.6468 678.485 99.7171 677.039 99.8922C675.688 99.9921 674.335 100.064 672.982 100.131C672.423 100.158 671.863 100.184 671.304 100.214C670.943 100.234 670.312 100.396 669.98 100.269L670.334 100.476L670.322 100.52L670.285 100.314C670.265 100.207 670.246 100.1 670.227 99.9953C670.189 99.793 670.152 99.5907 670.113 99.3884C670.027 98.9335 669.939 98.4801 669.849 98.0281C669.649 97.0131 669.442 95.9992 669.23 94.9863C668.748 92.6735 668.254 90.3635 667.764 88.0523C666.761 83.3139 665.767 78.571 664.941 73.7972C664.694 72.5828 664.621 71.3395 664.723 70.1044C664.815 69.443 664.955 68.7891 665.141 68.1476C665.479 66.8348 665.815 65.5211 666.147 64.2064C666.876 61.3344 667.639 58.4665 668.252 55.5664C669.457 49.8755 671.815 44.5181 672.989 38.8179C673.197 37.8096 671.65 37.3781 671.441 38.3912L671.447 38.396Z" fill="#211715"/>
<path d="M657.682 76.8309H664.104C665.137 76.8309 665.139 75.2253 664.104 75.2253H657.682C656.649 75.2253 656.647 76.8309 657.682 76.8309Z" fill="#211715"/>
<path d="M679.341 69.8382C679.08 70.8742 678.947 71.9363 678.791 72.9916C678.71 73.525 678.63 74.0581 678.524 74.5867C678.501 74.7007 678.317 75.2061 678.366 75.2847C678.742 75.1162 678.816 75.0546 678.588 75.1001C678.517 75.1093 678.447 75.119 678.376 75.129C678.276 75.1475 678.176 75.1748 678.075 75.1988C676.042 75.677 674.168 76.6737 672.634 78.0917C671.872 78.7945 673.011 79.9276 673.77 79.2272C674.605 78.4443 675.568 77.8092 676.616 77.3491C677.026 77.1766 677.446 77.0304 677.875 76.9116C678.287 76.7936 678.718 76.7478 679.113 76.633C679.758 76.4452 679.909 75.7845 680.032 75.2097C680.148 74.6642 680.235 74.1127 680.318 73.5616C680.483 72.4589 680.617 71.3479 680.889 70.2653C681.142 69.2618 679.593 68.8352 679.341 69.8382Z" fill="#211715"/>
<path d="M672.008 79.3444C675.368 80.3908 678.751 81.3574 682.118 82.3833C683.108 82.6852 683.532 81.1358 682.545 80.8351C679.178 79.8092 675.794 78.8422 672.435 77.7962C671.446 77.4879 671.023 79.0377 672.008 79.3444Z" fill="#211715"/>
<path d="M684.559 70.2396C684.154 72.1864 683.711 74.1118 683.221 76.0377C683.145 76.4721 683.097 76.9109 683.078 77.3515C682.98 77.8588 682.782 78.3418 682.497 78.7724C682.049 79.5599 681.65 80.3744 681.304 81.2113C681.248 81.4167 681.276 81.6356 681.382 81.8204C681.487 82.0053 681.661 82.1412 681.865 82.1987C682.071 82.2501 682.288 82.2204 682.472 82.1157C682.656 82.0111 682.792 81.8395 682.853 81.6367C683.192 80.8496 683.58 80.0846 684.014 79.346C684.306 78.8727 684.513 78.352 684.625 77.8075C684.698 77.3639 684.666 76.8979 684.771 76.4632C685.238 74.5325 685.704 72.6118 686.109 70.6655C686.318 69.6572 684.771 69.2261 684.56 70.2384L684.559 70.2396Z" fill="#211715"/>
<path d="M659.074 84.2868C655.471 83.6446 642.401 81.6753 638.554 81.1483C638.32 81.1159 638.083 81.174 637.89 81.3107C637.698 81.4474 637.565 81.6525 637.518 81.8841C637.026 84.3057 636.036 90.4421 635.678 92.95C635.643 93.192 635.705 93.438 635.851 93.6346C635.996 93.8312 636.213 93.9625 636.455 94.0001C640.158 94.5793 653.642 96.5991 657.33 97.0535C657.569 97.0835 657.81 97.0197 658.002 96.8756C658.195 96.7315 658.324 96.5182 658.362 96.2808C658.77 93.7725 659.555 87.7412 659.835 85.3095C659.863 85.0741 659.799 84.837 659.658 84.6469C659.516 84.4567 659.307 84.3279 659.074 84.2868Z" fill="white"/>
<path d="M659.287 83.5129C654.702 82.6997 650.086 82.041 645.48 81.3522C643.379 81.0379 641.279 80.7244 639.178 80.429C638.521 80.3375 637.913 80.2728 637.356 80.716C636.811 81.1503 636.72 81.7789 636.599 82.4203C636.353 83.7232 636.131 85.0293 635.913 86.3391C635.678 87.7464 635.45 89.155 635.23 90.5649C635.14 91.1424 635.053 91.7205 634.967 92.2994C634.858 93.0415 634.801 93.7845 635.413 94.3424C636.07 94.9413 637.251 94.9285 638.094 95.0573C639.169 95.2214 640.245 95.3843 641.322 95.5462C646.173 96.2755 651.024 97.0101 655.886 97.6652C656.97 97.8109 658.276 98.1553 658.945 96.9924C659.229 96.4975 659.241 95.832 659.323 95.2769C659.42 94.6242 659.513 93.9709 659.604 93.3169C659.809 91.8451 660.005 90.3721 660.195 88.898C660.348 87.7118 660.576 86.502 660.639 85.3071C660.659 84.8972 660.535 84.4932 660.288 84.1652C660.042 83.8372 659.688 83.6058 659.289 83.5113C658.285 83.2596 657.858 84.8078 658.862 85.0594C659.035 85.1028 659.049 85.1317 659.025 85.3886C659.001 85.6354 658.966 85.8815 658.937 86.1275C658.869 86.6815 658.801 87.2351 658.731 87.7885C658.564 89.1056 658.392 90.4218 658.214 91.737C658.047 92.9681 657.877 94.1987 657.69 95.4266C657.657 95.6385 657.633 95.8553 657.589 96.0648C657.543 96.2852 657.506 96.2655 657.248 96.2378C656.916 96.2037 656.585 96.1531 656.254 96.109L656.275 96.1118L656.114 96.0901L655.825 96.05L655.16 95.9584C654.665 95.8894 654.17 95.8198 653.675 95.7497C652.548 95.5892 651.421 95.427 650.295 95.2632C647.852 94.9076 645.409 94.5463 642.967 94.1795C641.061 93.8937 639.154 93.6047 637.249 93.3125C637.013 93.2759 636.515 93.2723 636.469 93.0801C636.468 92.8791 636.496 92.6789 636.552 92.486C636.591 92.2219 636.631 91.9579 636.673 91.6941C636.871 90.3954 637.076 89.0982 637.29 87.8026C637.502 86.5081 637.72 85.214 637.951 83.9227C638.04 83.4234 638.131 82.9244 638.228 82.4263C638.315 81.9848 638.297 81.9129 638.718 81.9715C640.631 82.2381 642.542 82.5226 644.452 82.8072C648.948 83.4776 653.444 84.1447 657.926 84.8973C658.239 84.9495 658.551 85.003 658.863 85.0578C659.068 85.1084 659.285 85.0783 659.469 84.9737C659.652 84.8692 659.789 84.6982 659.851 84.4959C659.904 84.2909 659.875 84.0733 659.769 83.8896C659.664 83.7058 659.491 83.5706 659.287 83.5129Z" fill="#211715"/>
<path d="M656.879 38.7878C656.973 42.017 657.266 45.235 657.505 48.4557C657.746 51.7194 657.871 54.9868 657.901 58.2593C657.916 59.9139 657.897 61.57 657.802 63.2225C657.757 64.0253 657.682 64.8213 657.609 65.6209C657.59 65.8308 657.638 65.4402 657.609 65.6345C657.593 65.7353 657.579 65.8352 657.563 65.9372C657.306 67.5969 657.016 69.2519 656.747 70.91C656.22 74.1597 655.731 77.415 655.28 80.6759C655.231 80.8811 655.262 81.0974 655.366 81.2809C655.47 81.4644 655.641 81.6012 655.842 81.6637C656.048 81.7188 656.267 81.6906 656.451 81.5855C656.636 81.4803 656.772 81.3065 656.83 81.1018C657.489 76.2819 658.291 71.4872 659.061 66.6846C659.389 64.3875 659.54 62.0686 659.512 59.7485C659.531 56.4322 659.432 53.1071 659.209 49.7988C658.961 46.1285 658.594 42.4653 658.487 38.7866C658.457 37.7558 656.851 37.7514 656.881 38.7866L656.879 38.7878Z" fill="#211715"/>
<path d="M639.113 89.7718C638.921 89.7316 639.216 89.724 639.406 89.9616V91.0968L639.051 91.3035C638.635 91.3838 639.101 91.3537 639.269 91.3733C639.597 91.4135 639.924 91.4536 640.251 91.4965C641.341 91.6382 642.277 91.7671 643.441 91.9284C646.277 92.3218 649.111 92.728 651.94 93.1635C653.133 93.3474 654.325 93.5316 655.513 93.7504C656.523 93.9366 656.958 92.3896 655.94 92.2022C650.794 91.2517 645.576 90.5854 640.386 89.9074C639.764 89.8272 638.808 89.5141 638.272 89.9616C638.126 90.1143 638.044 90.3177 638.044 90.5292C638.044 90.7407 638.126 90.944 638.272 91.0968C638.383 91.2137 638.529 91.292 638.688 91.3199C639.696 91.5323 640.127 89.9849 639.115 89.7718H639.113Z" fill="#211715"/>
<path d="M642.388 69.1298C642.411 70.7992 643.221 82.8975 642.864 86.0183C642.953 88.0699 640.504 90.6344 640.536 92.3017C640.63 93.3486 640.536 94.8108 641.058 95.7421C641.447 96.4349 642.267 96.7592 643.047 96.9109C643.827 97.0627 644.645 97.0992 645.363 97.4396C645.844 97.6671 646.274 98.0292 646.8 98.1051C647.325 98.1809 647.969 97.7555 647.829 97.2433C648.113 97.536 648.451 97.7711 648.824 97.9357C649.012 98.0149 649.219 98.039 649.42 98.0053C649.621 97.9717 649.809 97.8815 649.961 97.7454C650.087 97.5646 650.174 97.36 650.217 97.1441C650.26 96.9283 650.258 96.7058 650.212 96.4907L649.871 92.2431C650.299 92.2696 650.772 93.1964 651.011 93.5521C651.199 93.8623 651.472 94.1121 651.797 94.2718C651.961 94.3485 652.143 94.3765 652.323 94.3523C652.502 94.3281 652.67 94.2528 652.808 94.1353C653.04 93.8984 653.207 93.6056 653.293 93.2852C653.379 92.9649 653.381 92.6278 653.298 92.3066C652.585 90.5228 651.423 89.7517 650.444 88.7831C649.749 88.0959 648.959 87.8559 648.459 87.017C648.378 86.9075 648.32 86.7829 648.289 86.6505C648.257 86.5182 648.253 86.3808 648.276 86.2467C648.024 83.0175 648.198 75.8278 648.671 68.4474" fill="white"/>
<path d="M640.536 92.3018C640.63 93.3486 640.536 94.8109 641.058 95.7421C641.447 96.4349 642.267 96.7592 643.047 96.911C643.827 97.0627 644.645 97.0992 645.363 97.4396C645.844 97.6672 646.274 98.0292 646.8 98.1051C647.325 98.181 647.969 97.7555 647.829 97.2433C648.113 97.536 648.451 97.7712 648.824 97.9357C649.012 98.0149 649.219 98.0391 649.42 98.0054C649.621 97.9717 649.809 97.8816 649.961 97.7455C650.087 97.5647 650.174 97.36 650.217 97.1441C650.26 96.9283 650.258 96.7059 650.212 96.4907L649.871 92.2432" fill="white"/>
<path d="M639.733 92.3017C639.823 93.3927 639.741 94.5548 640.123 95.5992C640.545 96.754 641.527 97.395 642.698 97.6567C643.3 97.7912 643.919 97.8273 644.515 97.9867C645.154 98.1577 645.657 98.6004 646.283 98.8027C647.492 99.1932 648.822 98.3684 648.605 97.0301L647.263 97.8112C647.851 98.3415 648.527 98.8649 649.366 98.8147C649.75 98.8005 650.118 98.6573 650.41 98.4082C650.703 98.1591 650.903 97.8187 650.978 97.442C651.138 96.6633 650.961 95.7963 650.898 95.0144L650.675 92.2447C650.595 91.222 648.986 91.2132 649.07 92.2447L649.374 96.0307C649.392 96.2543 649.532 97.1076 649.37 97.1947C649.068 97.3605 648.586 96.8455 648.398 96.6761C648.271 96.557 648.108 96.4821 647.935 96.4626C647.762 96.4431 647.587 96.48 647.436 96.5678C647.286 96.6556 647.167 96.7896 647.099 96.95C647.031 97.1104 647.016 97.2885 647.057 97.458C647.012 97.1795 647.201 97.2927 646.96 97.3095C646.838 97.3053 646.719 97.2717 646.612 97.2116C646.177 97.0149 645.795 96.7375 645.344 96.5693C644.496 96.2518 643.571 96.2735 642.712 96.001C642.4 95.9204 642.12 95.748 641.908 95.5061C641.696 95.2642 641.561 94.964 641.522 94.6447C641.412 93.8691 641.351 93.0874 641.339 92.3042C641.255 91.2814 639.649 91.2726 639.733 92.3042V92.3017Z" fill="#211715"/>
<path d="M641.339 92.3018C641.339 92.2419 641.346 92.1813 641.345 92.1215C641.342 91.969 641.323 92.2143 641.345 92.1171C641.371 91.9967 641.396 91.8763 641.432 91.7587C641.467 91.6411 641.506 91.5299 641.549 91.4175C641.556 91.4014 641.629 91.2212 641.595 91.3023C641.56 91.3834 641.642 91.1995 641.649 91.1819C641.906 90.6247 642.211 90.0909 642.499 89.5506C643.078 88.4705 643.703 87.2775 643.667 86.0184C643.667 85.8054 643.583 85.6013 643.432 85.4507C643.282 85.3002 643.077 85.2156 642.865 85.2156C642.652 85.2156 642.447 85.3002 642.297 85.4507C642.146 85.6013 642.062 85.8054 642.062 86.0184C642.065 86.1532 642.061 86.2882 642.048 86.4226C642.04 86.5117 642.073 86.323 642.039 86.4719C642.022 86.5482 642.009 86.6245 641.991 86.7003C641.924 86.9646 641.839 87.2239 641.737 87.4762C641.676 87.6271 641.507 87.9832 641.381 88.2304C641.24 88.5074 641.092 88.7807 640.945 89.0541C640.408 90.0451 639.732 91.1369 639.734 92.3018C639.736 93.3345 641.341 93.3365 641.339 92.3018Z" fill="#211715"/>
<path d="M648.27 86.2693C648.236 86.5333 648.304 86.8003 648.461 87.0159C648.96 87.856 649.751 88.096 650.446 88.782C651.424 89.7506 652.586 90.5216 653.3 92.3054C653.383 92.6267 653.381 92.9638 653.295 93.2841C653.209 93.6044 653.042 93.8972 652.81 94.1342C652.672 94.2516 652.504 94.327 652.325 94.3512C652.145 94.3754 651.963 94.3474 651.799 94.2706C651.474 94.111 651.201 93.8612 651.013 93.5509C650.773 93.1953 650.301 92.2685 649.873 92.242" fill="white"/>
<path d="M647.467 86.2692C647.379 86.9781 647.864 87.6913 648.359 88.1582C648.798 88.572 649.341 88.8522 649.783 89.26C650.576 89.9082 651.296 90.6408 651.93 91.4448C652.184 91.812 652.612 92.3852 652.576 92.8336C652.557 93.0744 652.408 93.6279 652.115 93.5352C651.749 93.4196 651.518 92.8308 651.325 92.5402C651.033 92.1018 650.643 91.5604 650.086 91.4693C649.881 91.4191 649.664 91.4494 649.481 91.5539C649.297 91.6584 649.16 91.8292 649.099 92.0312C649.044 92.2366 649.072 92.4553 649.177 92.6401C649.282 92.8249 649.456 92.9609 649.661 93.0186C649.772 93.0367 649.677 93.0186 649.632 92.9785C649.702 93.0405 649.766 93.1087 649.824 93.1824C649.942 93.3446 650.052 93.5132 650.151 93.6873C650.398 94.1282 650.734 94.5128 651.137 94.8169C651.383 94.9901 651.668 95.1006 651.966 95.1388C652.265 95.1771 652.568 95.1419 652.85 95.0364C653.108 94.9156 653.339 94.7439 653.529 94.5318C653.719 94.3196 653.864 94.0713 653.956 93.8017C654.826 91.7085 652.73 89.8199 651.35 88.5367C650.919 88.1267 650.46 87.7467 649.977 87.3995C649.632 87.1555 649.014 86.7541 649.073 86.2692C649.072 86.0566 648.987 85.853 648.837 85.7027C648.687 85.5524 648.483 85.4675 648.271 85.4664C648.059 85.4714 647.858 85.5576 647.708 85.7071C647.559 85.8566 647.472 86.0579 647.467 86.2692Z" fill="#211715"/>
<path d="M641.645 70.9586C641.672 72.6043 641.809 74.25 641.895 75.8957C642.019 78.2872 642.136 80.6811 642.156 83.0762C642.182 84.0583 642.15 85.0411 642.061 86.0196C642.063 86.2321 642.148 86.4356 642.298 86.5859C642.448 86.7361 642.652 86.8211 642.864 86.8224C643.076 86.8176 643.277 86.7315 643.427 86.5819C643.576 86.4324 643.662 86.231 643.667 86.0196C643.818 84.032 643.825 82.036 643.688 80.0473C643.606 77.7481 643.477 75.4509 643.353 73.1534C643.313 72.4232 643.262 71.6915 643.251 70.9598C643.234 69.9278 641.628 69.9246 641.645 70.9598V70.9586Z" fill="#211715"/>
<path d="M647.87 70.4532C647.543 75.577 647.129 80.7762 647.451 85.9116C647.516 86.938 649.122 86.9452 649.057 85.9116C648.736 80.7762 649.148 75.577 649.475 70.4532C649.541 69.4216 647.936 69.4256 647.87 70.4532Z" fill="#211715"/>
<path d="M640.645 70.721C643.273 70.7174 645.914 70.5761 648.532 70.3565C649.102 70.3087 650.051 70.3794 650.38 69.8387C650.529 69.5285 650.612 69.1908 650.624 68.8469C650.749 67.8474 650.778 66.8335 650.815 65.8276C650.849 64.8723 650.857 63.9154 650.903 62.9605C650.952 61.9277 649.346 61.9301 649.297 62.9605C649.245 64.0555 649.237 65.1525 649.193 66.2479C649.167 66.9017 649.137 67.5564 649.083 68.2087C649.072 68.3411 649.061 68.4736 649.047 68.6052C649.039 68.6751 649.032 68.7449 649.023 68.8148C649.039 68.7172 649.035 68.718 649.023 68.8148C649.009 68.8926 648.983 68.9753 648.976 69.0528C648.958 69.2499 649.035 68.9705 648.99 69.0375L649.682 68.6381C646.681 68.9663 643.664 69.1253 640.645 69.1146C639.612 69.1146 639.61 70.7202 640.645 70.7202V70.721Z" fill="#211715"/>
<path d="M650.365 95.2688C650.384 95.2985 650.422 95.3435 650.431 95.3551C650.435 95.3599 650.474 95.4153 650.498 95.441L650.503 95.4454C650.556 95.4912 650.612 95.5333 650.669 95.5743C650.673 95.5769 650.677 95.5792 650.681 95.5811C650.746 95.6104 650.81 95.6409 650.878 95.6638H650.884C650.988 95.6971 651.099 95.7021 651.205 95.6783C651.312 95.6733 651.414 95.6403 651.504 95.5827L651.666 95.4575C651.743 95.387 651.8 95.298 651.832 95.199C651.868 95.1381 651.887 95.0688 651.887 94.9983C651.911 94.8919 651.906 94.7809 651.873 94.6772L651.792 94.4853C651.723 94.3661 651.623 94.2669 651.504 94.1971L651.464 94.1694C651.375 94.1118 651.272 94.0789 651.166 94.0739C651.059 94.05 650.948 94.055 650.845 94.0883C650.646 94.1517 650.476 94.2821 650.363 94.4572L650.283 94.6491C650.245 94.7888 650.245 94.9361 650.283 95.0758L650.363 95.2676C650.433 95.3868 650.532 95.486 650.651 95.5558L650.691 95.5835L651.31 94.1164L651.299 94.1132L651.491 94.1935C651.486 94.1914 651.481 94.1886 651.476 94.1851L651.639 94.3107C651.635 94.3072 651.631 94.3034 651.628 94.2995L651.753 94.462L651.75 94.4568C651.637 94.2817 651.467 94.1513 651.268 94.0879C651.164 94.0545 651.053 94.0495 650.947 94.0735C650.841 94.0781 650.738 94.111 650.648 94.1686L650.486 94.2942C650.387 94.3925 650.316 94.5147 650.279 94.6487L650.251 94.8618C650.251 95.0043 650.289 95.1443 650.361 95.2672L650.365 95.2688Z" fill="#211715"/>
<path d="M662.721 29.884C663.462 30.2696 664.288 30.4629 665.124 30.446C666.006 30.4801 666.874 30.2179 667.589 29.7014C667.74 29.5508 667.825 29.3467 667.825 29.1338C667.825 28.921 667.74 28.7168 667.589 28.5663C667.436 28.4214 667.233 28.3407 667.022 28.3407C666.811 28.3407 666.608 28.4214 666.454 28.5663C666.731 28.3507 666.435 28.5663 666.348 28.6132C666.28 28.6485 666.095 28.7055 666.344 28.6224C666.279 28.6445 666.215 28.6722 666.148 28.6939C666.065 28.7204 665.98 28.7433 665.895 28.7633C665.795 28.7715 665.696 28.7902 665.599 28.8191C665.675 28.779 665.727 28.8039 665.602 28.8163C665.548 28.8215 665.494 28.826 665.441 28.8296C665.312 28.838 665.182 28.8412 665.051 28.8404C664.935 28.8404 664.818 28.8363 664.702 28.828C664.648 28.8244 664.595 28.8199 664.541 28.8147C664.511 28.8115 664.48 28.8083 664.45 28.8043C664.387 28.7971 664.41 28.7999 664.518 28.8135C664.429 28.8131 664.34 28.7965 664.256 28.7645C664.172 28.7461 664.088 28.7244 664.006 28.6995C663.934 28.6782 663.864 28.6526 663.793 28.6281C663.958 28.7083 663.61 28.5655 663.793 28.6281C663.705 28.5869 663.619 28.5435 663.533 28.498C663.349 28.3906 663.13 28.3605 662.924 28.4145C662.718 28.4685 662.542 28.6022 662.434 28.786C662.327 28.9699 662.297 29.1889 662.351 29.3949C662.405 29.6009 662.538 29.777 662.722 29.8844L662.721 29.884Z" fill="#211715"/>
<path d="M664.622 24.3441C664.728 24.7264 664.813 25.1144 664.876 25.5061L664.848 25.2926C664.855 25.3458 664.857 25.3996 664.852 25.4531L664.881 25.2396C664.877 25.2642 664.871 25.2884 664.863 25.3118L664.943 25.12C664.936 25.1362 664.927 25.1518 664.917 25.1665L665.043 25.004C665.032 25.0178 665.019 25.0303 665.005 25.0413L665.168 24.9157C665.138 24.934 665.107 24.9504 665.076 24.9646L665.268 24.8844C665.218 24.9056 665.166 24.9209 665.112 24.9297L665.326 24.9008C665.277 24.9066 665.228 24.9066 665.18 24.9008L665.394 24.9293C665.339 24.9217 665.285 24.9084 665.23 24.9008C665.126 24.8674 665.015 24.8625 664.909 24.8868C664.802 24.8913 664.699 24.9242 664.61 24.9819C664.519 25.0351 664.439 25.1057 664.376 25.1896C664.312 25.2736 664.265 25.3693 664.238 25.4713C664.212 25.5733 664.205 25.6795 664.22 25.784C664.234 25.8885 664.269 25.9891 664.322 26.0801C664.373 26.1711 664.442 26.2507 664.525 26.3141C664.608 26.3775 664.702 26.4234 664.803 26.449C664.947 26.4687 665.084 26.5044 665.232 26.5108C665.46 26.5112 665.684 26.4561 665.886 26.3502C666.018 26.2883 666.134 26.1982 666.226 26.0864C666.319 25.9745 666.385 25.8437 666.422 25.7032C666.47 25.4809 666.468 25.2507 666.416 25.0293C666.353 24.6552 666.266 24.2843 666.17 23.917C666.113 23.7155 665.981 23.5433 665.801 23.4353C665.617 23.3279 665.398 23.2978 665.192 23.3518C664.986 23.4058 664.81 23.5393 664.703 23.7231C664.598 23.9116 664.57 24.1328 664.622 24.3417L664.622 24.3441Z" fill="#211715"/>
<path d="M658.678 20.9984C658.484 21.629 658.611 23.0796 659.805 23.2033C661.384 23.1936 661.468 21.4399 660.937 20.6155C660.501 19.9403 659.223 19.6594 658.678 20.9984Z" fill="#211715"/>
<path d="M671.321 20.9989C671.515 21.6295 671.389 23.0797 670.194 23.2033C668.616 23.1937 668.532 21.44 669.063 20.6155C669.498 19.9404 670.778 19.6598 671.321 20.9989Z" fill="#211715"/>
<path d="M645.183 98.1938C645.508 104.967 646.103 111.73 646.596 118.491C647.084 125.177 647.199 131.893 647.404 138.592C647.603 145.041 647.803 151.491 648.004 157.942C648.007 158.117 648.065 158.286 648.171 158.426C648.277 158.565 648.425 158.667 648.593 158.716C649.727 158.961 650.879 159.115 652.038 159.175C653.773 159.316 655.515 159.37 657.256 159.335C659.097 159.319 660.934 159.141 662.744 158.803C664.145 158.522 665.621 158.09 666.735 157.155C667.28 156.697 667.163 156.226 667.121 155.619C667.078 155.013 667.041 154.4 667 153.791C666.87 151.778 666.743 149.764 666.619 147.75C666.236 141.626 665.848 135.502 665.455 129.378C665.024 122.723 664.583 116.068 664.095 109.416C663.765 104.924 663.485 100.412 662.936 95.94C662.896 95.6069 662.851 95.2741 662.803 94.9422C662.745 94.7374 662.609 94.5636 662.424 94.4585C662.239 94.3533 662.02 94.3252 661.815 94.3802C661.612 94.4413 661.441 94.5779 661.336 94.7618C661.232 94.9457 661.202 95.1627 661.253 95.368C661.267 95.4664 661.281 95.5651 661.293 95.6635C661.248 95.346 661.306 95.7642 661.317 95.8589C661.35 96.1265 661.382 96.3941 661.411 96.6617C661.485 97.328 661.552 97.9952 661.615 98.6627C661.786 100.469 661.936 102.275 662.08 104.081C662.466 108.938 662.806 113.795 663.136 118.658C663.504 124.066 663.858 129.476 664.199 134.886C664.494 139.511 664.785 144.136 665.072 148.761C665.226 151.221 665.358 153.684 665.55 156.141C665.556 156.227 665.563 156.312 665.571 156.398L665.806 155.83C665.5 156.114 665.149 156.345 664.767 156.513C664.299 156.724 663.813 156.895 663.315 157.022C662.087 157.336 660.832 157.536 659.567 157.619C656.916 157.814 654.254 157.786 651.607 157.536C651.316 157.509 651.024 157.48 650.733 157.447C650.601 157.433 650.47 157.417 650.337 157.4L650.151 157.377C650.266 157.392 650.186 157.381 650.117 157.371C649.747 157.318 649.377 157.26 649.015 157.17L649.605 157.945C649.275 147.663 649.002 137.38 648.628 127.1C648.411 121.129 647.949 115.186 647.517 109.226C647.25 105.552 646.961 101.876 646.784 98.1967C646.735 97.1679 645.129 97.1623 645.178 98.1967L645.183 98.1938Z" fill="#211715"/>
<path d="M661.962 102.548C662.009 102.941 662.104 103.327 662.246 103.697C662.37 104.152 662.493 104.607 662.617 105.062C662.85 105.922 663.082 106.783 663.312 107.644C663.789 109.423 664.26 111.203 664.726 112.985C665.68 116.628 666.617 120.275 667.536 123.925C669.383 131.229 671.186 138.543 672.947 145.866C673.903 149.817 674.855 153.769 675.801 157.722C675.838 157.856 675.909 157.978 676.008 158.077C676.106 158.175 676.229 158.247 676.363 158.283C679.418 159.152 682.763 158.94 685.87 158.499C688.702 158.098 691.803 157.459 694.284 155.96C694.749 155.679 695.562 155.232 695.562 154.616C695.538 154.355 695.486 154.097 695.405 153.848C695.259 153.237 695.105 152.627 694.95 152.018C694.462 150.103 693.957 148.192 693.45 146.281C692.083 141.124 690.697 135.973 689.29 130.827C688.177 126.736 687.065 122.645 685.915 118.564C685.344 116.54 684.947 114.482 684.513 112.423C683.802 109.047 683.087 105.672 682.368 102.298C682.245 101.723 682.12 101.148 681.995 100.572C681.774 99.563 680.225 99.9897 680.447 100.998C681.544 106.011 682.584 111.036 683.64 116.058C684.154 118.499 684.9 120.89 685.563 123.295C686.607 127.079 687.641 130.865 688.666 134.654C689.742 138.623 690.808 142.594 691.865 146.568C692.555 149.169 693.264 151.768 693.884 154.387C693.918 154.534 693.952 154.681 693.985 154.829L694.192 154.048C694.133 154.103 694.071 154.155 694.012 154.209C693.877 154.324 694.023 154.209 693.913 154.286C693.735 154.413 693.552 154.531 693.363 154.641C692.976 154.864 692.576 155.062 692.165 155.235C691.061 155.685 689.923 156.047 688.762 156.316C686.14 156.97 683.445 157.284 680.743 157.251C679.408 157.251 678.08 157.078 676.79 156.737L677.352 157.298C675.65 150.204 673.934 143.112 672.203 136.025C670.41 128.725 668.573 121.436 666.692 114.158C666.18 112.191 665.662 110.226 665.139 108.262C664.878 107.282 664.615 106.303 664.351 105.324C664.22 104.839 664.088 104.355 663.957 103.87C663.895 103.643 663.834 103.417 663.771 103.19L663.679 102.851C663.668 102.811 663.568 102.416 663.568 102.553C663.568 101.52 661.963 101.519 661.963 102.553L661.962 102.548Z" fill="#211715"/>
</g>
<defs>
<clipPath id="clip0_63_76">
<rect width="177" height="177" fill="white" transform="translate(580)"/>
</clipPath>
</defs>
</svg>
