<svg width="49" height="49" viewBox="0 0 49 49" fill="none" xmlns="http://www.w3.org/2000/svg">
<path d="M42.519 11.2681C42.3752 11.0961 42.1955 10.9577 41.9924 10.8628C41.7893 10.7679 41.5679 10.7187 41.3438 10.7188H10.4661L9.53012 5.57758C9.40192 4.87193 9.03013 4.23366 8.47956 3.77404C7.929 3.31442 7.23458 3.0626 6.51738 3.0625H3.0625C2.65639 3.0625 2.26691 3.22383 1.97974 3.51099C1.69258 3.79816 1.53125 4.18764 1.53125 4.59375C1.53125 4.99986 1.69258 5.38934 1.97974 5.67651C2.26691 5.96367 2.65639 6.125 3.0625 6.125H6.50781L11.4002 32.9774C11.5443 33.7737 11.8962 34.5179 12.4204 35.1345C11.6969 35.8102 11.1748 36.6731 10.9118 37.6274C10.6488 38.5818 10.6553 39.5903 10.9305 40.5412C11.2057 41.492 11.7389 42.3481 12.4709 43.0145C13.203 43.6808 14.1053 44.1314 15.0778 44.3163C16.0502 44.5011 17.0549 44.413 17.9804 44.0618C18.9059 43.7105 19.716 43.1098 20.3209 42.3262C20.9258 41.5426 21.3019 40.6068 21.4074 39.6225C21.513 38.6383 21.3438 37.644 20.9188 36.75H29.6125C29.2699 37.4672 29.0926 38.2521 29.0938 39.0469C29.0938 40.1069 29.4081 41.143 29.997 42.0244C30.5859 42.9057 31.4229 43.5927 32.4022 43.9983C33.3815 44.4039 34.4591 44.5101 35.4987 44.3033C36.5383 44.0965 37.4933 43.586 38.2428 42.8365C38.9923 42.087 39.5027 41.1321 39.7095 40.0924C39.9163 39.0528 39.8102 37.9752 39.4045 36.9959C38.9989 36.0166 38.312 35.1796 37.4306 34.5907C36.5493 34.0018 35.5131 33.6875 34.4531 33.6875H15.9193C15.5607 33.6874 15.2135 33.5615 14.9382 33.3317C14.6629 33.1019 14.477 32.7828 14.4129 32.43L13.8061 29.0938H36.0093C37.0851 29.0936 38.1267 28.7159 38.9525 28.0264C39.7784 27.337 40.3361 26.3796 40.5284 25.3211L42.8559 12.5237C42.8953 12.3025 42.8855 12.0754 42.8273 11.8584C42.7691 11.6414 42.6638 11.4398 42.519 11.2681ZM18.375 39.0469C18.375 39.5012 18.2403 39.9452 17.9879 40.3229C17.7355 40.7007 17.3768 40.9951 16.9571 41.1689C16.5374 41.3428 16.0756 41.3882 15.63 41.2996C15.1845 41.211 14.7752 40.9922 14.454 40.671C14.1328 40.3498 13.914 39.9405 13.8254 39.495C13.7368 39.0494 13.7822 38.5876 13.9561 38.1679C14.1299 37.7482 14.4243 37.3895 14.8021 37.1371C15.1798 36.8847 15.6238 36.75 16.0781 36.75C16.6873 36.75 17.2715 36.992 17.7023 37.4227C18.133 37.8535 18.375 38.4377 18.375 39.0469ZM36.75 39.0469C36.75 39.5012 36.6153 39.9452 36.3629 40.3229C36.1105 40.7007 35.7518 40.9951 35.3321 41.1689C34.9124 41.3428 34.4506 41.3882 34.005 41.2996C33.5595 41.211 33.1502 40.9922 32.829 40.671C32.5078 40.3498 32.289 39.9405 32.2004 39.495C32.1118 39.0494 32.1572 38.5876 32.3311 38.1679C32.5049 37.7482 32.7993 37.3895 33.1771 37.1371C33.5548 36.8847 33.9988 36.75 34.4531 36.75C35.0623 36.75 35.6465 36.992 36.0773 37.4227C36.508 37.8535 36.75 38.4377 36.75 39.0469ZM37.5156 24.7737C37.4514 25.1275 37.2646 25.4474 36.9881 25.6773C36.7117 25.9073 36.3631 26.0325 36.0035 26.0312H13.2491L11.0231 13.7812H39.5082L37.5156 24.7737Z" fill="#6D28D9"/>
</svg>
