<!-- icon666.com - MILLIONS vector ICONS FREE --><svg viewBox="-58 0 492 492.00009" xmlns="http://www.w3.org/2000/svg"><path d="m226 346v70.851562l-24.910156-23.1875c-2.425782-2.257812-6.222656-2.121093-8.480469.304688s-2.121094 6.222656.300781 8.480469l35 32.574219c2.304688 2.144531 5.875 2.144531 8.179688 0l35-32.574219c2.425781-2.257813 2.558594-6.054688.300781-8.480469s-6.054687-2.5625-8.480469-.304688l-24.910156 23.1875v-70.851562c0-3.3125-2.6875-6-6-6s-6 2.6875-6 6zm0 0" fill="#000000" style="fill: rgb(255, 255, 255);"></path><path d="m150.300781 62.144531v-16.042969c0-25.460937-20.636719-46.101562-46.097656-46.101562s-46.101563 20.640625-46.101563 46.101562v16.042969c0 25.457031 20.640626 46.097657 46.101563 46.097657s46.097656-20.640626 46.097656-46.097657zm-80.199219 0v-16.042969c.023438-18.824218 15.277344-34.078124 34.101563-34.101562 18.824219.023438 34.078125 15.277344 34.097656 34.101562v16.042969c0 18.832031-15.265625 34.097657-34.097656 34.097657-18.835937 0-34.101563-15.265626-34.101563-34.097657zm0 0" fill="#000000" style="fill: rgb(255, 255, 255);"></path><path d="m370.0625 480h-36v-143.9375l24.300781 18.542969c1.703125 1.3125 3.980469 1.617187 5.96875.789062 1.988281-.824219 3.378907-2.648437 3.652344-4.785156.269531-2.132813-.625-4.25-2.339844-5.546875l-130-99.203125c-2.152343-1.640625-5.132812-1.640625-7.28125 0l-17.367187 13.253906v-91.507812c2.472656-26.082031-16.574219-49.269531-42.644532-51.914063-1.121093-.113281-13.472656-.195312-36.710937-.242187h-.011719c-2.148437.003906-4.128906 1.152343-5.199218 3.015625l-20.683594 36.054687-19.589844-35.941406c-1.050781-1.929687-3.070312-3.128906-5.265625-3.128906h-33.222656c-26.324219 0-47.66406275 21.339843-47.667969 47.660156 0 1.394531.199219 98.453125.210938 102.574219.003906 15.527344 12.59375 28.117187 28.121093 28.117187h.320313c5.914062-.074219 11.652344-2.050781 16.355468-5.640625l5.519532 186.789063c0 .136719.011718.273437.023437.410156.902344 9.457031 8.863281 16.671875 18.363281 16.640625h301.148438c3.316406 0 6-2.6875 6-6s-2.683594-6-6-6zm-272.832031-126.523438c2.011719 2.632813 5.777343 3.136719 8.410156 1.128907l24.300781-18.542969v143.9375h-61.019531c-3.257813.007812-6.007813-2.417969-6.402344-5.648438l-5.9375-200.75-.132812-8.632812c-.050781-3.28125-2.71875-5.910156-6-5.910156h-.046875c-3.296875.023437-5.953125 2.703125-5.953125 6 0 9.128906-7.148438 16.632812-15.941407 16.734375h-.175781c-8.90625 0-16.125-7.21875-16.121093-16.125 0-1.011719-.210938-101.175781-.210938-102.554688.003906-19.699219 15.96875-35.664062 35.667969-35.664062h29.648437l23.015625 42.234375c1.039063 1.90625 3.027344 3.105468 5.199219 3.128906 2.179688.046875 4.207031-1.113281 5.269531-3.011719l24.289063-42.34375c12.703125.03125 30.167968.101563 32.152344.1875 19.546874 2.039063 33.757812 19.511719 31.777343 39.066407-.023437.199218-.03125.398437-.03125.597656v100.960937l-100.628906 76.792969c-2.632813 2.011719-3.140625 5.777344-1.128906 8.414062zm224.832031 126.523438h-180.128906v-153.09375l90.0625-68.730469 90.066406 68.730469zm0 0" fill="#000000" style="fill: rgb(255, 255, 255);"></path></svg>